M48
; DRILL file {KiCad 8.99.0-1558-g48f6f837a1} date 2024-07-10T14:27:00+0300
; FORMAT={-:-/ absolute / metric / decimal}
; #@! TF.CreationDate,2024-07-10T14:27:00+03:00
; #@! TF.GenerationSoftware,Kicad,Pcbnew,8.99.0-1558-g48f6f837a1
; #@! TF.FileFunction,Plated,1,2,PTH
FMAT,2
METRIC
; #@! TA.AperFunction,Plated,PTH,ComponentDrill
T1C0.300
; #@! TA.AperFunction,Plated,PTH,ViaDrill
T2C0.400
; #@! TA.AperFunction,Plated,PTH,ComponentDrill
T3C0.600
; #@! TA.AperFunction,Plated,PTH,ComponentDrill
T4C1.000
%
G90
G05
T1
X130.083Y-99.249
X130.083Y-100.774
X131.608Y-99.249
X131.608Y-100.774
X133.133Y-99.249
X133.133Y-100.774
T2
X112.793Y-93.963
X113.422Y-94.593
X113.998Y-80.424
X114.061Y-95.232
X114.85Y-82.13
X115.555Y-89.945
X115.58Y-102.48
X115.95Y-101.63
X115.981Y-87.764
X116.154Y-70.899
X116.208Y-79.418
X116.232Y-81.285
X116.801Y-70.252
X117.434Y-69.619
X117.521Y-75.621
X117.799Y-83.064
X119.386Y-85.311
X119.747Y-71.623
X120.702Y-95.929
X122.54Y-88.146
X123.588Y-102.293
X123.622Y-97.194
X123.916Y-100.973
X124.141Y-81.831
X124.874Y-106.079
X125.031Y-79.047
X125.537Y-81.877
X125.561Y-102.293
X126.498Y-96.784
X127.65Y-80.35
X127.697Y-104.788
X127.763Y-97.528
X127.841Y-81.455
X129.54Y-80.58
X130.763Y-73.856
X131.087Y-87.648
X132.398Y-77.876
X132.812Y-73.748
X133.53Y-81.572
X133.703Y-86.142
X133.894Y-77.827
X134.807Y-82.141
X134.879Y-76.056
X135.228Y-73.859
X135.834Y-95.642
X136.026Y-76.072
X136.114Y-80.58
X136.897Y-76.072
X137.221Y-83.877
X137.7Y-98.478
X137.975Y-104.793
X138.356Y-95.834
X139.426Y-71.272
X141.006Y-71.289
X141.271Y-76.072
X142.251Y-75.256
X142.251Y-76.072
X142.899Y-72.466
X143.269Y-102.668
X143.346Y-68.275
X144.189Y-68.275
X144.518Y-66.402
X145.084Y-68.275
X146.15Y-70.99
X146.247Y-95.604
X146.27Y-100.83
X146.282Y-99.105
X146.282Y-99.962
X146.282Y-102.149
X146.379Y-107.776
X146.54Y-70.07
X146.79Y-69.08
X147.41Y-103.46
X150.265Y-79.417
T4
X118.359Y-87.314
X118.359Y-89.854
X118.359Y-92.394
X118.359Y-94.934
X118.359Y-97.474
X118.359Y-100.014
X143.303Y-87.342
X143.303Y-89.882
X143.303Y-92.422
X143.303Y-94.962
X143.303Y-97.502
X143.303Y-100.042
T3
X127.251Y-67.374G85X127.251Y-66.774
G05
X127.251Y-71.804G85X127.251Y-70.704
G05
X135.891Y-67.374G85X135.891Y-66.774
G05
X135.891Y-71.804G85X135.891Y-70.704
G05
M30
