M48
; DRILL file {KiCad 8.99.0-1558-g48f6f837a1} date 2024-07-10T14:27:00+0300
; FORMAT={-:-/ absolute / metric / decimal}
; #@! TF.CreationDate,2024-07-10T14:27:00+03:00
; #@! TF.GenerationSoftware,Kicad,Pcbnew,8.99.0-1558-g48f6f837a1
; #@! TF.FileFunction,NonPlated,1,2,NPTH
FMAT,2
METRIC
; #@! TA.AperFunction,NonPlated,NPTH,ComponentDrill
T1C0.300
; #@! TA.AperFunction,NonPlated,NPTH,ComponentDrill
T2C0.650
; #@! TA.AperFunction,NonPlated,NPTH,ComponentDrill
T3C0.900
%
G90
G05
T1
X98.6Y-97.965
X98.6Y-98.661
X98.6Y-99.364
X98.6Y-100.067
X98.6Y-100.77
X98.62Y-72.265
X98.62Y-72.961
X98.62Y-73.664
X98.62Y-74.367
X98.62Y-75.07
X108.34Y-72.245
X108.34Y-72.941
X108.34Y-73.644
X108.34Y-74.347
X108.34Y-75.05
X108.39Y-97.945
X108.39Y-98.641
X108.39Y-99.344
X108.39Y-100.047
X108.39Y-100.75
X120.241Y-113.0
X120.251Y-109.2
X120.944Y-113.0
X120.954Y-109.2
X121.647Y-113.0
X121.657Y-109.2
X122.35Y-113.0
X122.36Y-109.2
X139.451Y-109.2
X139.451Y-113.01
X140.154Y-109.2
X140.154Y-113.01
X140.857Y-109.2
X140.857Y-113.01
X141.56Y-109.2
X141.56Y-113.01
X153.4Y-72.235
X153.4Y-72.931
X153.4Y-73.634
X153.4Y-74.337
X153.4Y-75.04
X153.4Y-97.975
X153.4Y-98.671
X153.4Y-99.374
X153.4Y-100.077
X153.4Y-100.78
X163.19Y-72.265
X163.19Y-72.961
X163.19Y-73.664
X163.19Y-74.367
X163.19Y-75.07
X163.2Y-97.975
X163.2Y-98.671
X163.2Y-99.374
X163.2Y-100.077
X163.2Y-100.78
T2
X128.681Y-70.724
X134.461Y-70.724
T3
X119.625Y-65.675
X122.625Y-65.675
M30
