%TF.GenerationSoftware,KiCad,Pcbnew,8.99.0-1558-g48f6f837a1*%
%TF.CreationDate,2024-07-10T14:27:02+03:00*%
%TF.ProjectId,ESP32 drone,45535033-3220-4647-926f-6e652e6b6963,rev?*%
%TF.SameCoordinates,Original*%
%TF.FileFunction,Drillmap*%
%TF.FilePolarity,Positive*%
%FSLAX45Y45*%
G04 Gerber Fmt 4.5, Leading zero omitted, Abs format (unit mm)*
G04 Created by KiCad (PCBNEW 8.99.0-1558-g48f6f837a1) date 2024-07-10 14:27:02*
%MOMM*%
%LPD*%
G01*
G04 APERTURE LIST*
%ADD10C,0.025400*%
%ADD11C,0.200000*%
%ADD12C,0.100000*%
G04 APERTURE END LIST*
D10*
X8974500Y-11228963D02*
G75*
G02*
X8844502Y-11134606I-2000J133973D01*
G01*
X9510218Y-7267372D02*
G75*
G02*
X9560208Y-7317359I2J-49988D01*
G01*
X8196174Y-8834323D02*
G75*
G02*
X8396167Y-9034323I-4J-199997D01*
G01*
X8396174Y-8267370D02*
X8396174Y-8207375D01*
X10839755Y-9761652D02*
X9860230Y-9761652D01*
X17743323Y-9419336D02*
G75*
G02*
X17693336Y-9469323I-49983J-4D01*
G01*
X9746158Y-9224340D02*
X9746158Y-9419336D01*
X8143774Y-3796817D02*
X8089748Y-3850843D01*
X8396174Y-9094343D02*
X8396174Y-9034323D01*
X9746158Y-7882357D02*
X9746158Y-8077378D01*
X16753129Y-5044186D02*
G75*
G02*
X16754954Y-5079438I-16819J-18544D01*
G01*
X8247050Y-12948056D02*
G75*
G02*
X8982457Y-12207486I642700J97206D01*
G01*
X16328340Y-8207375D02*
G75*
G02*
X16278325Y-8157362I0J50015D01*
G01*
X14619758Y-13250850D02*
G75*
G02*
X14219759Y-13650848I-399998J0D01*
G01*
X8281162Y-9174328D02*
X8281162Y-9144330D01*
X9860230Y-10458094D02*
X9860230Y-10111638D01*
X16407015Y-5427637D02*
G75*
G02*
X16371741Y-5425802I-16715J18637D01*
G01*
X16273323Y-8467369D02*
X16423336Y-8317357D01*
X9610217Y-7832369D02*
G75*
G02*
X9560211Y-7782357I3J50009D01*
G01*
X9846793Y-6754901D02*
G75*
G02*
X9860206Y-6843598I-286563J-88699D01*
G01*
X9866512Y-5333588D02*
G75*
G02*
X9864674Y-5368859I-18642J-16712D01*
G01*
X17660290Y-13650849D02*
X17889754Y-13650849D01*
X18039741Y-8834323D02*
G75*
G02*
X18089757Y-8884336I-1J-50017D01*
G01*
X10042576Y-7767371D02*
X9910217Y-7767371D01*
X9518346Y-12316054D02*
G75*
G02*
X9483071Y-12314220I-16716J18644D01*
G01*
X9426372Y-12257507D02*
X9483073Y-12314218D01*
X17983327Y-8467369D02*
G75*
G02*
X17783331Y-8267370I3J199999D01*
G01*
X8139761Y-9534322D02*
G75*
G02*
X8089768Y-9484335I-1J49992D01*
G01*
X17826457Y-13479475D02*
G75*
G02*
X17827365Y-13443300I17683J17655D01*
G01*
X15339746Y-10111638D02*
X16319272Y-10111638D01*
X8331150Y-9094343D02*
X8396174Y-9094343D01*
X8139761Y-8467369D02*
X8196174Y-8467369D01*
X10839755Y-10111638D02*
X10839755Y-10276891D01*
X8272095Y-9534322D02*
G75*
G02*
X8322098Y-9584334I-5J-50008D01*
G01*
X9901174Y-9144330D02*
X9901174Y-9174328D01*
X16669284Y-10034321D02*
G75*
G02*
X16619289Y-9984334I-4J49991D01*
G01*
X8436153Y-9224340D02*
X8331150Y-9224340D01*
X13939749Y-13350850D02*
G75*
G02*
X13839749Y-13450849I-99999J0D01*
G01*
X8893277Y-11634089D02*
G75*
G02*
X8606692Y-11422785I3J299999D01*
G01*
X12339752Y-13450849D02*
G75*
G02*
X12239751Y-13350850I-2J99999D01*
G01*
X17286224Y-5667604D02*
X16890442Y-5667604D01*
X16086913Y-8884336D02*
X16086913Y-9484335D01*
X17857394Y-7717358D02*
X17857394Y-6843598D01*
X9860230Y-7540041D02*
X10839755Y-7540041D01*
X17197426Y-12207443D02*
G75*
G02*
X17020273Y-12143320I-28526J197963D01*
G01*
X10092589Y-9484335D02*
G75*
G02*
X10042576Y-9534339I-50009J5D01*
G01*
X14184757Y-10900842D02*
X14715795Y-10900842D01*
X9560230Y-9519336D02*
G75*
G02*
X9610217Y-9469350I49990J-4D01*
G01*
X17447000Y-6540000D02*
G75*
G02*
X17208195Y-6863922I-238810J-73930D01*
G01*
X17208195Y-6071953D02*
G75*
G02*
X17338200Y-6166308I2005J-133977D01*
G01*
X17557395Y-7317359D02*
X17557395Y-7782357D01*
X8235722Y-3704895D02*
X8353044Y-3822217D01*
X9560230Y-7317359D02*
X9560230Y-7782357D01*
X8335518Y-10546791D02*
G75*
G02*
X8322105Y-10458094I286582J88701D01*
G01*
X13939749Y-11600840D02*
X13939749Y-13350850D01*
X17339293Y-11132182D02*
G75*
G02*
X17209293Y-11226540I-128003J39622D01*
G01*
X9510218Y-10034321D02*
X8672094Y-10034321D01*
X17848326Y-8077378D02*
G75*
G02*
X17898322Y-8127365I4J-49992D01*
G01*
X8620329Y-3751961D02*
X8519211Y-3650844D01*
X8622107Y-9984334D02*
X8622107Y-9519336D01*
X10042576Y-7767371D02*
G75*
G02*
X10092569Y-7817358I4J-49989D01*
G01*
X17983327Y-8467369D02*
X18039741Y-8467369D01*
X8672094Y-7267372D02*
X9510218Y-7267372D01*
X16669284Y-7267372D02*
X17507382Y-7267372D01*
X8572094Y-9469323D02*
G75*
G02*
X8622107Y-9519336I-4J-50017D01*
G01*
X8978000Y-6865987D02*
G75*
G02*
X8739195Y-6542070I0J249987D01*
G01*
X10839755Y-7540041D02*
X10839755Y-9761652D01*
X9860230Y-10111638D02*
X10839755Y-10111638D01*
X8622107Y-7782357D02*
X8622107Y-7317359D01*
X8792541Y-3808146D02*
G75*
G02*
X9185862Y-3872201I97209J-642694D01*
G01*
X8322107Y-7717358D02*
G75*
G02*
X8272095Y-7767377I-50017J-2D01*
G01*
X16753129Y-5044186D02*
G75*
G02*
X16696411Y-4987468I536591J593306D01*
G01*
X8984000Y-6074023D02*
X9223000Y-6074023D01*
X18035702Y-13504875D02*
X18089753Y-13450849D01*
X8982075Y-5094249D02*
G75*
G02*
X9159229Y-5158371I28525J-197971D01*
G01*
X8436153Y-8077378D02*
X8436153Y-7882357D01*
X17783328Y-9034323D02*
X17783328Y-9094343D01*
X15339746Y-7540041D02*
X16319272Y-7540041D01*
X9901174Y-8157362D02*
G75*
G02*
X9851162Y-8207374I-50014J2D01*
G01*
X10839755Y-10276891D02*
X9159215Y-12143308D01*
X9746158Y-9419336D02*
G75*
G02*
X9696171Y-9469328I-49988J-4D01*
G01*
X17857394Y-10458094D02*
X17857394Y-9584334D01*
X9851162Y-9224340D02*
X9746158Y-9224340D01*
X16319272Y-6843598D02*
G75*
G02*
X16332684Y-6754901I299998J-2D01*
G01*
X9518351Y-12316058D02*
X9866150Y-11967726D01*
X16319272Y-9761652D02*
X15339746Y-9761652D01*
X8247152Y-12948590D02*
G75*
G02*
X8190869Y-13120272I-197712J-30250D01*
G01*
X9159215Y-12143308D02*
G75*
G02*
X8982078Y-12207423I-148615J133838D01*
G01*
X14184757Y-11300841D02*
X14184757Y-10900842D01*
X12239752Y-11600840D02*
G75*
G02*
X12339752Y-11500842I99998J0D01*
G01*
X17918380Y-13387553D02*
X18035702Y-13504875D01*
X8436153Y-7882357D02*
G75*
G02*
X8486166Y-7832343I50017J-3D01*
G01*
X8353044Y-13479501D02*
X8235722Y-13596823D01*
X9906153Y-8467369D02*
X10042576Y-8467369D01*
X8281162Y-8127365D02*
G75*
G02*
X8331150Y-8077372I49988J5D01*
G01*
X16839195Y-6166310D02*
G75*
G02*
X16969194Y-6071958I127995J-39620D01*
G01*
X8572094Y-9469323D02*
X8486166Y-9469323D01*
X9461805Y-6542070D02*
X9353000Y-6168380D01*
X16423336Y-8984336D02*
X16273323Y-8834323D01*
X16423336Y-8207375D02*
X16328340Y-8207375D01*
X9851162Y-8207375D02*
X9756166Y-8207375D01*
X8281162Y-8157362D02*
X8281162Y-8127365D01*
X9864326Y-11932474D02*
X9807625Y-11875763D01*
X17943780Y-13596823D02*
X17826457Y-13479501D01*
X8272095Y-7767371D02*
X8139761Y-7767371D01*
X16871188Y-4315130D02*
X16711016Y-4154957D01*
X8089748Y-7817358D02*
G75*
G02*
X8139761Y-7767348I50012J-2D01*
G01*
X16319272Y-7540041D02*
X16319272Y-7717358D01*
X16278327Y-9174328D02*
X16278327Y-9144330D01*
X18089753Y-13450849D02*
X18089753Y-13221386D01*
X16969195Y-6071953D02*
X17208195Y-6071953D01*
X16619271Y-9984334D02*
X16619271Y-9519336D01*
X12264746Y-10900842D02*
X12264746Y-11300841D01*
X16582213Y-12581382D02*
G75*
G02*
X16646332Y-12758520I-133833J-148618D01*
G01*
X16433343Y-8077378D02*
X16433343Y-7882357D01*
X17693336Y-7832369D02*
G75*
G02*
X17743331Y-7882357I4J-49991D01*
G01*
X17988636Y-13120268D02*
G75*
G02*
X17932354Y-12948591I141424J141428D01*
G01*
X9468485Y-4154957D02*
X9308288Y-4315130D01*
X17020286Y-12143308D02*
X15339746Y-10276891D01*
X17898339Y-8157362D02*
G75*
G02*
X17848326Y-8207369I-50009J2D01*
G01*
X8089748Y-8884336D02*
X8089748Y-9484335D01*
X16619271Y-7782357D02*
X16619271Y-7317359D01*
X9756166Y-8317357D02*
X9906153Y-8467369D01*
X11994744Y-10900842D02*
X11994744Y-11300841D01*
X17154043Y-13269392D02*
X16993845Y-13429590D01*
X9483090Y-4987468D02*
G75*
G02*
X9426793Y-5043665I-592520J537278D01*
G01*
X8196174Y-8834323D02*
X8139761Y-8834323D01*
X14619758Y-13250850D02*
X14619758Y-11700840D01*
X16569284Y-9469323D02*
X16483330Y-9469323D01*
X17943780Y-3704895D02*
X17889754Y-3650844D01*
X16269285Y-9534322D02*
G75*
G02*
X16319288Y-9584334I-5J-50008D01*
G01*
X16711016Y-13146761D02*
G75*
G02*
X16646398Y-12758141I578734J295911D01*
G01*
X8792007Y-3808247D02*
G75*
G02*
X8620327Y-3751963I-30247J197717D01*
G01*
X16136925Y-8467369D02*
X16273323Y-8467369D01*
X9851162Y-9094343D02*
G75*
G02*
X9901147Y-9144330I-2J-49987D01*
G01*
X9910217Y-9534322D02*
X10042576Y-9534322D01*
X9901174Y-9174328D02*
G75*
G02*
X9851162Y-9224344I-50014J-2D01*
G01*
X8519211Y-3650844D02*
X8289748Y-3650844D01*
X16582213Y-4720311D02*
X14715795Y-6400851D01*
X8729695Y-10760917D02*
X8844500Y-11134607D01*
X17743323Y-9224340D02*
X17743323Y-9419336D01*
X14219759Y-11300841D02*
G75*
G02*
X14619759Y-11700840I1J-399999D01*
G01*
X16603879Y-5878906D02*
G75*
G02*
X16890442Y-5667627I286561J-88694D01*
G01*
X16890442Y-11634089D02*
X17286224Y-11634089D01*
X16319272Y-6843598D02*
X16319272Y-7190054D01*
X8289748Y-3650844D02*
X8235722Y-3704895D01*
X9308211Y-4314876D02*
G75*
G02*
X9024979Y-4032139I-418465J-135966D01*
G01*
X8190865Y-13120268D02*
X8089748Y-13221386D01*
X8854000Y-6168380D02*
G75*
G02*
X8984000Y-6074023I128000J-39620D01*
G01*
X8089748Y-7817358D02*
X8089748Y-8417357D01*
X16754964Y-12222245D02*
X16406631Y-11874447D01*
X8739195Y-6542070D02*
X8854000Y-6168380D01*
X8436153Y-9419336D02*
X8436153Y-9224340D01*
X16619271Y-7782357D02*
G75*
G02*
X16569284Y-7832351I-49991J-3D01*
G01*
X16319272Y-10111638D02*
X16319272Y-10458094D01*
X17557395Y-9519336D02*
X17557395Y-9984334D01*
X12324741Y-6400851D02*
X13854761Y-6400851D01*
X15339746Y-7190054D02*
X15339746Y-7024802D01*
X8893277Y-11634089D02*
X9289034Y-11634089D01*
X16754933Y-12222251D02*
G75*
G02*
X16753105Y-12257505I-18623J-16709D01*
G01*
X17198163Y-12207342D02*
G75*
G02*
X17932275Y-12949174I91597J-643508D01*
G01*
X8335518Y-10546791D02*
X8606689Y-11422812D01*
X9597289Y-12581382D02*
X11463706Y-10900842D01*
X8396174Y-8267370D02*
G75*
G02*
X8196174Y-8467374I-200004J0D01*
G01*
X8331150Y-8207375D02*
G75*
G02*
X8281135Y-8157362I0J50015D01*
G01*
X9483090Y-4987468D02*
G75*
G02*
X9518339Y-4985647I18540J-16812D01*
G01*
X16278327Y-8127365D02*
G75*
G02*
X16328340Y-8077357I50013J-5D01*
G01*
X17783328Y-9034323D02*
G75*
G02*
X17983327Y-8834318I200002J3D01*
G01*
X17857394Y-10458094D02*
G75*
G02*
X17843981Y-10546791I-300004J4D01*
G01*
X9289034Y-5667604D02*
X8893277Y-5667604D01*
X8486166Y-9469323D02*
G75*
G02*
X8436187Y-9419336I4J49983D01*
G01*
X12264746Y-11300841D02*
X13914755Y-11300841D01*
X8139761Y-8467369D02*
G75*
G02*
X8089751Y-8417357I-1J50009D01*
G01*
X9756166Y-9094343D02*
X9851162Y-9094343D01*
X16970293Y-11226538D02*
X17209293Y-11226538D01*
X8139761Y-9534322D02*
X8272095Y-9534322D01*
X11959743Y-13650849D02*
X14219759Y-13650849D01*
X17898339Y-9144330D02*
X17898339Y-9174328D01*
X16328340Y-9094343D02*
X16423336Y-9094343D01*
X17743323Y-8077378D02*
X17848326Y-8077378D01*
X16724390Y-6540000D02*
X16839195Y-6166310D01*
X17783328Y-9094343D02*
X17848326Y-9094343D01*
X8322107Y-9584334D02*
X8322107Y-10458094D01*
X9860230Y-7190054D02*
X9860230Y-6843598D01*
X9025459Y-4032301D02*
X9185656Y-3872103D01*
X16086913Y-8884336D02*
G75*
G02*
X16136925Y-8834323I50017J-4D01*
G01*
X18089753Y-9484335D02*
G75*
G02*
X18039741Y-9534343I-50013J5D01*
G01*
X9864326Y-11932474D02*
G75*
G02*
X9866152Y-11967728I-16826J-18546D01*
G01*
X17153789Y-4032377D02*
G75*
G02*
X16871054Y-4315618I135971J-418463D01*
G01*
X8297114Y-3913480D02*
G75*
G02*
X8352385Y-3858210I592626J-537360D01*
G01*
X13839749Y-11500841D02*
G75*
G02*
X13939749Y-11600840I1J-99999D01*
G01*
X8352663Y-3821811D02*
G75*
G02*
X8352160Y-3858418I-17313J-18069D01*
G01*
X16315181Y-5369248D02*
X16371882Y-5425959D01*
X10839755Y-7024802D02*
X10839755Y-7190054D01*
X8331150Y-8077378D02*
X8436153Y-8077378D01*
X16696411Y-12314225D02*
G75*
G02*
X16661162Y-12316047I-18541J16815D01*
G01*
X17898339Y-9174328D02*
G75*
G02*
X17848326Y-9224339I-50009J-2D01*
G01*
X17898339Y-8127365D02*
X17898339Y-8157362D01*
X16371380Y-11876271D02*
G75*
G02*
X16406628Y-11874450I18540J-16819D01*
G01*
X8089748Y-4080307D02*
X8190865Y-4181424D01*
X8352384Y-13443483D02*
G75*
G02*
X8297114Y-13388213I537366J592643D01*
G01*
X17857394Y-9584334D02*
G75*
G02*
X17907381Y-9534344I49986J4D01*
G01*
X16315181Y-5369248D02*
G75*
G02*
X16313362Y-5334001I16819J18538D01*
G01*
X9213500Y-10437000D02*
X8968500Y-10437000D01*
X17988636Y-4181424D02*
X18089753Y-4080307D01*
X9756166Y-8207375D02*
X9756166Y-8317357D01*
X9746158Y-8077378D02*
X9851162Y-8077378D01*
X9575623Y-11422786D02*
G75*
G02*
X9289034Y-11634094I-286593J88696D01*
G01*
X9424543Y-5079441D02*
G75*
G02*
X9426369Y-5044182I18647J16711D01*
G01*
X17907381Y-7767371D02*
G75*
G02*
X17857369Y-7717358I-1J50011D01*
G01*
X10092589Y-8417357D02*
G75*
G02*
X10042576Y-8467369I-50009J-3D01*
G01*
X8331150Y-9224340D02*
G75*
G02*
X8281140Y-9174328I0J50010D01*
G01*
X18089753Y-8417357D02*
G75*
G02*
X18039741Y-8467373I-50013J-3D01*
G01*
X17020286Y-5158384D02*
G75*
G02*
X17197423Y-5094269I148614J-133836D01*
G01*
X11463706Y-6400851D02*
X9597289Y-4720311D01*
X17826457Y-3822217D02*
X17943780Y-3704895D01*
X16278327Y-9144330D02*
G75*
G02*
X16328340Y-9094317I50013J0D01*
G01*
X8396174Y-8207375D02*
X8331150Y-8207375D01*
X17827116Y-3858211D02*
G75*
G02*
X17882181Y-3913255I-537346J-592619D01*
G01*
X17607382Y-7832369D02*
X17693336Y-7832369D01*
X16970293Y-11226538D02*
G75*
G02*
X16840289Y-11132183I-2003J133978D01*
G01*
X12239752Y-13350850D02*
X12239752Y-11600840D01*
X9772492Y-11874085D02*
G75*
G02*
X9807769Y-11875918I16718J-18635D01*
G01*
X16136925Y-9534322D02*
X16269285Y-9534322D01*
X16328340Y-9224340D02*
G75*
G02*
X16278330Y-9174328I0J50010D01*
G01*
X9860230Y-9761652D02*
X9860230Y-9584334D01*
X9860230Y-7717358D02*
X9860230Y-7540041D01*
X9533154Y-12758522D02*
G75*
G02*
X9597279Y-12581371I197966J28522D01*
G01*
X17827346Y-3858412D02*
G75*
G02*
X17826466Y-3822226I16794J18512D01*
G01*
X16993845Y-3872103D02*
X17154043Y-4032301D01*
X17848326Y-9094343D02*
G75*
G02*
X17898317Y-9144330I4J-49987D01*
G01*
X16433343Y-7882357D02*
G75*
G02*
X16483330Y-7832373I49987J-3D01*
G01*
X9213500Y-10437000D02*
G75*
G02*
X9452309Y-10760918I0J-249990D01*
G01*
X16312991Y-11968105D02*
G75*
G02*
X16314826Y-11932831I18639J16715D01*
G01*
X17507382Y-10034321D02*
X16669284Y-10034321D01*
X17743323Y-7882357D02*
X17743323Y-8077378D01*
X18039741Y-7767371D02*
X17907381Y-7767371D01*
X11559744Y-11700840D02*
G75*
G02*
X11959743Y-11300844I399996J0D01*
G01*
X15339746Y-9761652D02*
X15339746Y-7540041D01*
X17882185Y-13388442D02*
G75*
G02*
X17918374Y-13387559I18515J-16788D01*
G01*
X9860230Y-10458094D02*
G75*
G02*
X9846815Y-10546798I-300000J4D01*
G01*
X8622107Y-7317359D02*
G75*
G02*
X8672094Y-7267377I49983J-1D01*
G01*
X16483330Y-9469323D02*
G75*
G02*
X16433347Y-9419336I0J49983D01*
G01*
X8261122Y-13387553D02*
G75*
G02*
X8297289Y-13388467I17648J-17677D01*
G01*
X14715795Y-10900842D02*
X16582213Y-12581382D01*
X16136925Y-8467369D02*
G75*
G02*
X16086921Y-8417357I5J50009D01*
G01*
X9808123Y-5425422D02*
G75*
G02*
X9772872Y-5427245I-18543J16822D01*
G01*
X8606689Y-5878906D02*
G75*
G02*
X8893277Y-5667619I286591J-88724D01*
G01*
X10042576Y-8834323D02*
X9906153Y-8834323D01*
X16423336Y-8317357D02*
X16423336Y-8207375D01*
X16725488Y-10758492D02*
X16840293Y-11132182D01*
X9223000Y-6865987D02*
X8978000Y-6865987D01*
X9308288Y-12986563D02*
X9468485Y-13146761D01*
X17557395Y-9519336D02*
G75*
G02*
X17607382Y-9469355I49985J-4D01*
G01*
X16569284Y-9469323D02*
G75*
G02*
X16619297Y-9519336I-4J-50017D01*
G01*
X16319272Y-7717358D02*
G75*
G02*
X16269285Y-7767352I-49992J-2D01*
G01*
X8620329Y-13549732D02*
G75*
G02*
X8792007Y-13493449I141431J-141428D01*
G01*
X16661156Y-4985664D02*
X16313357Y-5333997D01*
X9185656Y-13429590D02*
X9025459Y-13269392D01*
X9461805Y-6542070D02*
G75*
G02*
X9223000Y-6865987I-238805J-73930D01*
G01*
X9772492Y-11874085D02*
X9424548Y-12222255D01*
X17932451Y-4353662D02*
G75*
G02*
X17197045Y-5094201I-642701J-97178D01*
G01*
X9533154Y-12758522D02*
G75*
G02*
X9468379Y-13146961I-643404J-92328D01*
G01*
X9906153Y-8834323D02*
X9756166Y-8984336D01*
X9426372Y-12257507D02*
G75*
G02*
X9424544Y-12222252I16818J18547D01*
G01*
X8289748Y-13650849D02*
X8519211Y-13650849D01*
X13914755Y-10900842D02*
X12264746Y-10900842D01*
X17209293Y-10434575D02*
X16964293Y-10434575D01*
X16136925Y-9534322D02*
G75*
G02*
X16086948Y-9484335I5J49982D01*
G01*
X11959743Y-13650849D02*
G75*
G02*
X11559741Y-13250850I-3J399999D01*
G01*
X18039741Y-7767371D02*
G75*
G02*
X18089729Y-7817358I-1J-49989D01*
G01*
X8974500Y-11228963D02*
X9213500Y-11228963D01*
X10839755Y-7190054D02*
X9860230Y-7190054D01*
X8089748Y-13450849D02*
X8143774Y-13504875D01*
X17557395Y-9984334D02*
G75*
G02*
X17507382Y-10034345I-50015J4D01*
G01*
X9468384Y-4154754D02*
G75*
G02*
X9533092Y-4543550I-578634J-296086D01*
G01*
X8622107Y-7782357D02*
G75*
G02*
X8572094Y-7832377I-50017J-3D01*
G01*
X9808123Y-5425422D02*
X9864834Y-5368721D01*
X9851162Y-8077378D02*
G75*
G02*
X9901142Y-8127365I-2J-49982D01*
G01*
X17286224Y-5667604D02*
G75*
G02*
X17572824Y-5878895I-4J-300026D01*
G01*
X17559173Y-13549732D02*
X17660290Y-13650849D01*
X16371380Y-11876271D02*
X16314669Y-11932972D01*
X9575623Y-11422812D02*
X9846793Y-10546791D01*
X15339746Y-10276891D02*
X15339746Y-10111638D01*
X17932350Y-4353103D02*
G75*
G02*
X17988632Y-4181420I197710J30253D01*
G01*
X16328340Y-8077378D02*
X16433343Y-8077378D01*
X9860230Y-9584334D02*
G75*
G02*
X9910217Y-9534340I49990J4D01*
G01*
X8235722Y-13596823D02*
X8289748Y-13650849D01*
X16619271Y-7317359D02*
G75*
G02*
X16669284Y-7267351I50009J-1D01*
G01*
X16332683Y-10546791D02*
G75*
G02*
X16319270Y-10458094I286587J88701D01*
G01*
X17572787Y-11422812D02*
X17843983Y-10546791D01*
X9901174Y-8127365D02*
X9901174Y-8157362D01*
X16319272Y-7190054D02*
X15339746Y-7190054D01*
X8143774Y-13504875D02*
X8261096Y-13387553D01*
X16269285Y-7767371D02*
X16136925Y-7767371D01*
X18089753Y-13221386D02*
X17988636Y-13120268D01*
X17848326Y-8207375D02*
X17783328Y-8207375D01*
X18089753Y-8417357D02*
X18089753Y-7817358D01*
X8672094Y-10034321D02*
G75*
G02*
X8622099Y-9984334I-4J49991D01*
G01*
X9696171Y-9469323D02*
X9610217Y-9469323D01*
X17387494Y-13493445D02*
G75*
G02*
X17559181Y-13549724I30256J-197715D01*
G01*
X8352155Y-13443280D02*
G75*
G02*
X8353064Y-13479495I-16785J-18540D01*
G01*
X18089753Y-9484335D02*
X18089753Y-8884336D01*
X17783328Y-8207375D02*
X17783328Y-8267370D01*
X8190865Y-4181424D02*
G75*
G02*
X8247145Y-4353102I-141425J-141426D01*
G01*
X9756166Y-8984336D02*
X9756166Y-9094343D01*
X17572787Y-11422786D02*
G75*
G02*
X17286224Y-11634069I-286567J88696D01*
G01*
X17209293Y-10434575D02*
G75*
G02*
X17448093Y-10758490I-3J-249985D01*
G01*
X17559173Y-3751961D02*
G75*
G02*
X17387494Y-3808245I-141433J141431D01*
G01*
X14219759Y-11300841D02*
X14184757Y-11300841D01*
X9025713Y-13269316D02*
G75*
G02*
X9308450Y-12986083I-135967J418466D01*
G01*
X14715795Y-6400851D02*
X13854761Y-6400851D01*
X16312991Y-11968105D02*
X16661161Y-12316048D01*
X8261096Y-3914140D02*
X8143774Y-3796817D01*
X17843983Y-6754901D02*
G75*
G02*
X17857396Y-6843598I-286583J-88699D01*
G01*
X11559744Y-11700840D02*
X11559744Y-13250850D01*
X13914755Y-11300841D02*
X13914755Y-10900842D01*
X9289034Y-5667604D02*
G75*
G02*
X9575625Y-5878905I6J-299996D01*
G01*
X9452305Y-10760917D02*
X9343500Y-11134607D01*
X8729695Y-10760917D02*
G75*
G02*
X8968500Y-10437004I238805J73927D01*
G01*
X17386935Y-13493547D02*
G75*
G02*
X16993641Y-13429490I-97185J642697D01*
G01*
X15339746Y-7024802D02*
X17020286Y-5158384D01*
X8322107Y-6843598D02*
G75*
G02*
X8335519Y-6754901I300003J-2D01*
G01*
X12339752Y-11500841D02*
X13839749Y-11500841D01*
X9343500Y-11134607D02*
G75*
G02*
X9213500Y-11228966I-128000J39617D01*
G01*
X16483330Y-7832369D02*
X16569284Y-7832369D01*
X18089753Y-3850843D02*
X18035702Y-3796817D01*
X9597289Y-4720311D02*
G75*
G02*
X9533166Y-4543173I133831J148621D01*
G01*
X17907381Y-9534322D02*
X18039741Y-9534322D01*
X16994658Y-3871697D02*
G75*
G02*
X17388077Y-3808331I295092J-579143D01*
G01*
X17848326Y-9224340D02*
X17743323Y-9224340D01*
X9223000Y-6074023D02*
G75*
G02*
X9353000Y-6168380I2000J-133977D01*
G01*
X16603879Y-5878906D02*
X16332683Y-6754901D01*
X8606689Y-5878906D02*
X8335518Y-6754901D01*
X16319272Y-9584334D02*
X16319272Y-9761652D01*
X9696171Y-7832369D02*
G75*
G02*
X9746161Y-7882357I-1J-49991D01*
G01*
X17447000Y-6540000D02*
X17338195Y-6166310D01*
X9910217Y-7767371D02*
G75*
G02*
X9860209Y-7717358I3J50011D01*
G01*
X8486166Y-7832369D02*
X8572094Y-7832369D01*
X10042576Y-8834323D02*
G75*
G02*
X10092597Y-8884336I4J-50017D01*
G01*
X9560230Y-9984334D02*
G75*
G02*
X9510218Y-10034340I-50010J4D01*
G01*
X10092589Y-8417357D02*
X10092589Y-7817358D01*
X8519211Y-13650849D02*
X8620329Y-13549732D01*
X17507382Y-7267372D02*
G75*
G02*
X17557368Y-7317359I-2J-49988D01*
G01*
X12324741Y-6400851D02*
X11463706Y-6400851D01*
X9560230Y-9519336D02*
X9560230Y-9984334D01*
X16278327Y-8157362D02*
X16278327Y-8127365D01*
X17918380Y-3914140D02*
G75*
G02*
X17882179Y-3913257I-17680J17680D01*
G01*
X11994744Y-11300841D02*
X11959743Y-11300841D01*
X16433343Y-9224340D02*
X16328340Y-9224340D01*
X16871290Y-12986817D02*
G75*
G02*
X17154501Y-13269542I418460J135967D01*
G01*
X17448098Y-10758492D02*
X17339293Y-11132182D01*
X16661156Y-4985664D02*
G75*
G02*
X16696404Y-4987475I16714J-18616D01*
G01*
X10092589Y-9484335D02*
X10092589Y-8884336D01*
X8089748Y-13221386D02*
X8089748Y-13450849D01*
X8089748Y-3850843D02*
X8089748Y-4080307D01*
X17660290Y-3650844D02*
X17559173Y-3751961D01*
X17208195Y-6863916D02*
X16963195Y-6863916D01*
X16423336Y-9094343D02*
X16423336Y-8984336D01*
X16433343Y-9419336D02*
X16433343Y-9224340D01*
X8089748Y-8884336D02*
G75*
G02*
X8139761Y-8834328I50012J-4D01*
G01*
X9846793Y-6754901D02*
X9575623Y-5878906D01*
X16963195Y-6863916D02*
G75*
G02*
X16724386Y-6539999I-5J249987D01*
G01*
X18089753Y-4080307D02*
X18089753Y-3850843D01*
X13839749Y-13450849D02*
X12339752Y-13450849D01*
X11463706Y-10900842D02*
X11994744Y-10900842D01*
X16407015Y-5427637D02*
X16754959Y-5079467D01*
X17889754Y-13650849D02*
X17943780Y-13596823D01*
X9610217Y-7832369D02*
X9696171Y-7832369D01*
X16086913Y-7817358D02*
G75*
G02*
X16136925Y-7767343I50017J-2D01*
G01*
X16332683Y-10546791D02*
X16603879Y-11422812D01*
X17693336Y-9469323D02*
X17607382Y-9469323D01*
X9159215Y-5158384D02*
X10839755Y-7024802D01*
X18039741Y-8834323D02*
X17983327Y-8834323D01*
X8322107Y-6843598D02*
X8322107Y-7717358D01*
X16273323Y-8834323D02*
X16136925Y-8834323D01*
X8981339Y-5094376D02*
G75*
G02*
X8247208Y-4352516I-91589J643536D01*
G01*
X9184844Y-13429996D02*
G75*
G02*
X8791424Y-13493363I-295094J579146D01*
G01*
X16086913Y-7817358D02*
X16086913Y-8417357D01*
X9866512Y-5333588D02*
X9518342Y-4985644D01*
X16646398Y-4543552D02*
G75*
G02*
X16711107Y-4154749I643352J92712D01*
G01*
X16711016Y-13146761D02*
X16871188Y-12986563D01*
X17607382Y-7832369D02*
G75*
G02*
X17557371Y-7782357I-2J50009D01*
G01*
X9424539Y-5079447D02*
X9772871Y-5427246D01*
X16725488Y-10758492D02*
G75*
G02*
X16964293Y-10434575I238802J73932D01*
G01*
X17889754Y-3650844D02*
X17660290Y-3650844D01*
X18035702Y-3796817D02*
X17918380Y-3914140D01*
X16646398Y-4543552D02*
G75*
G02*
X16582224Y-4720324I-198018J-28148D01*
G01*
X8281162Y-9144330D02*
G75*
G02*
X8331150Y-9094342I49988J0D01*
G01*
X16753109Y-12257510D02*
X16696411Y-12314225D01*
X8297317Y-3913251D02*
G75*
G02*
X8261105Y-3914157I-18537J16791D01*
G01*
X17843983Y-6754901D02*
X17572787Y-5878906D01*
X17882388Y-13388213D02*
G75*
G02*
X17827117Y-13443483I-592628J537363D01*
G01*
X16890442Y-11634089D02*
G75*
G02*
X16603855Y-11422793I-2J299999D01*
G01*
D11*
D12*
X12993311Y-9909895D02*
X13023311Y-9939895D01*
X13023311Y-9909895D02*
X12993311Y-9939895D01*
X12993311Y-10062395D02*
X13023311Y-10092395D01*
X13023311Y-10062395D02*
X12993311Y-10092395D01*
X13145811Y-9909895D02*
X13175811Y-9939895D01*
X13175811Y-9909895D02*
X13145811Y-9939895D01*
X13145811Y-10062395D02*
X13175811Y-10092395D01*
X13175811Y-10062395D02*
X13145811Y-10092395D01*
X13298311Y-9909895D02*
X13328311Y-9939895D01*
X13328311Y-9909895D02*
X13298311Y-9939895D01*
X13298311Y-10062395D02*
X13328311Y-10092395D01*
X13328311Y-10062395D02*
X13298311Y-10092395D01*
X11299251Y-9396349D02*
G75*
G02*
X11259251Y-9396349I-20000J0D01*
G01*
X11259251Y-9396349D02*
G75*
G02*
X11299251Y-9396349I20000J0D01*
G01*
X11362243Y-9459341D02*
G75*
G02*
X11322243Y-9459341I-20000J0D01*
G01*
X11322243Y-9459341D02*
G75*
G02*
X11362243Y-9459341I20000J0D01*
G01*
X11419774Y-8042402D02*
G75*
G02*
X11379774Y-8042402I-20000J0D01*
G01*
X11379774Y-8042402D02*
G75*
G02*
X11419774Y-8042402I20000J0D01*
G01*
X11426124Y-9523222D02*
G75*
G02*
X11386124Y-9523222I-20000J0D01*
G01*
X11386124Y-9523222D02*
G75*
G02*
X11426124Y-9523222I20000J0D01*
G01*
X11504991Y-8212963D02*
G75*
G02*
X11464991Y-8212963I-20000J0D01*
G01*
X11464991Y-8212963D02*
G75*
G02*
X11504991Y-8212963I20000J0D01*
G01*
X11575476Y-8994521D02*
G75*
G02*
X11535476Y-8994521I-20000J0D01*
G01*
X11535476Y-8994521D02*
G75*
G02*
X11575476Y-8994521I20000J0D01*
G01*
X11578000Y-10248000D02*
G75*
G02*
X11538000Y-10248000I-20000J0D01*
G01*
X11538000Y-10248000D02*
G75*
G02*
X11578000Y-10248000I20000J0D01*
G01*
X11615000Y-10163000D02*
G75*
G02*
X11575000Y-10163000I-20000J0D01*
G01*
X11575000Y-10163000D02*
G75*
G02*
X11615000Y-10163000I20000J0D01*
G01*
X11618084Y-8776399D02*
G75*
G02*
X11578084Y-8776399I-20000J0D01*
G01*
X11578084Y-8776399D02*
G75*
G02*
X11618084Y-8776399I20000J0D01*
G01*
X11635420Y-7089902D02*
G75*
G02*
X11595420Y-7089902I-20000J0D01*
G01*
X11595420Y-7089902D02*
G75*
G02*
X11635420Y-7089902I20000J0D01*
G01*
X11640754Y-7941818D02*
G75*
G02*
X11600754Y-7941818I-20000J0D01*
G01*
X11600754Y-7941818D02*
G75*
G02*
X11640754Y-7941818I20000J0D01*
G01*
X11643167Y-8128508D02*
G75*
G02*
X11603167Y-8128508I-20000J0D01*
G01*
X11603167Y-8128508D02*
G75*
G02*
X11643167Y-8128508I20000J0D01*
G01*
X11700126Y-7025195D02*
G75*
G02*
X11660126Y-7025195I-20000J0D01*
G01*
X11660126Y-7025195D02*
G75*
G02*
X11700126Y-7025195I20000J0D01*
G01*
X11763436Y-6961886D02*
G75*
G02*
X11723436Y-6961886I-20000J0D01*
G01*
X11723436Y-6961886D02*
G75*
G02*
X11763436Y-6961886I20000J0D01*
G01*
X11772072Y-7562088D02*
G75*
G02*
X11732072Y-7562088I-20000J0D01*
G01*
X11732072Y-7562088D02*
G75*
G02*
X11772072Y-7562088I20000J0D01*
G01*
X11799885Y-8306435D02*
G75*
G02*
X11759885Y-8306435I-20000J0D01*
G01*
X11759885Y-8306435D02*
G75*
G02*
X11799885Y-8306435I20000J0D01*
G01*
X11958635Y-8531098D02*
G75*
G02*
X11918635Y-8531098I-20000J0D01*
G01*
X11918635Y-8531098D02*
G75*
G02*
X11958635Y-8531098I20000J0D01*
G01*
X11994703Y-7162292D02*
G75*
G02*
X11954703Y-7162292I-20000J0D01*
G01*
X11954703Y-7162292D02*
G75*
G02*
X11994703Y-7162292I20000J0D01*
G01*
X12090207Y-9592945D02*
G75*
G02*
X12050207Y-9592945I-20000J0D01*
G01*
X12050207Y-9592945D02*
G75*
G02*
X12090207Y-9592945I20000J0D01*
G01*
X12273976Y-8814562D02*
G75*
G02*
X12233976Y-8814562I-20000J0D01*
G01*
X12233976Y-8814562D02*
G75*
G02*
X12273976Y-8814562I20000J0D01*
G01*
X12378751Y-10229342D02*
G75*
G02*
X12338751Y-10229342I-20000J0D01*
G01*
X12338751Y-10229342D02*
G75*
G02*
X12378751Y-10229342I20000J0D01*
G01*
X12382180Y-9719437D02*
G75*
G02*
X12342180Y-9719437I-20000J0D01*
G01*
X12342180Y-9719437D02*
G75*
G02*
X12382180Y-9719437I20000J0D01*
G01*
X12411644Y-10097262D02*
G75*
G02*
X12371644Y-10097262I-20000J0D01*
G01*
X12371644Y-10097262D02*
G75*
G02*
X12411644Y-10097262I20000J0D01*
G01*
X12434059Y-8183054D02*
G75*
G02*
X12394059Y-8183054I-20000J0D01*
G01*
X12394059Y-8183054D02*
G75*
G02*
X12434059Y-8183054I20000J0D01*
G01*
X12507402Y-10607929D02*
G75*
G02*
X12467402Y-10607929I-20000J0D01*
G01*
X12467402Y-10607929D02*
G75*
G02*
X12507402Y-10607929I20000J0D01*
G01*
X12523150Y-7904734D02*
G75*
G02*
X12483150Y-7904734I-20000J0D01*
G01*
X12483150Y-7904734D02*
G75*
G02*
X12523150Y-7904734I20000J0D01*
G01*
X12573696Y-8187690D02*
G75*
G02*
X12533696Y-8187690I-20000J0D01*
G01*
X12533696Y-8187690D02*
G75*
G02*
X12573696Y-8187690I20000J0D01*
G01*
X12576109Y-10229342D02*
G75*
G02*
X12536109Y-10229342I-20000J0D01*
G01*
X12536109Y-10229342D02*
G75*
G02*
X12576109Y-10229342I20000J0D01*
G01*
X12669835Y-9678416D02*
G75*
G02*
X12629835Y-9678416I-20000J0D01*
G01*
X12629835Y-9678416D02*
G75*
G02*
X12669835Y-9678416I20000J0D01*
G01*
X12785000Y-8035000D02*
G75*
G02*
X12745000Y-8035000I-20000J0D01*
G01*
X12745000Y-8035000D02*
G75*
G02*
X12785000Y-8035000I20000J0D01*
G01*
X12789723Y-10478770D02*
G75*
G02*
X12749723Y-10478770I-20000J0D01*
G01*
X12749723Y-10478770D02*
G75*
G02*
X12789723Y-10478770I20000J0D01*
G01*
X12796327Y-9752838D02*
G75*
G02*
X12756327Y-9752838I-20000J0D01*
G01*
X12756327Y-9752838D02*
G75*
G02*
X12796327Y-9752838I20000J0D01*
G01*
X12804074Y-8145466D02*
G75*
G02*
X12764074Y-8145466I-20000J0D01*
G01*
X12764074Y-8145466D02*
G75*
G02*
X12804074Y-8145466I20000J0D01*
G01*
X12974000Y-8058000D02*
G75*
G02*
X12934000Y-8058000I-20000J0D01*
G01*
X12934000Y-8058000D02*
G75*
G02*
X12974000Y-8058000I20000J0D01*
G01*
X13096301Y-7385558D02*
G75*
G02*
X13056301Y-7385558I-20000J0D01*
G01*
X13056301Y-7385558D02*
G75*
G02*
X13096301Y-7385558I20000J0D01*
G01*
X13128686Y-8764778D02*
G75*
G02*
X13088686Y-8764778I-20000J0D01*
G01*
X13088686Y-8764778D02*
G75*
G02*
X13128686Y-8764778I20000J0D01*
G01*
X13259750Y-7787640D02*
G75*
G02*
X13219750Y-7787640I-20000J0D01*
G01*
X13219750Y-7787640D02*
G75*
G02*
X13259750Y-7787640I20000J0D01*
G01*
X13301152Y-7374763D02*
G75*
G02*
X13261152Y-7374763I-20000J0D01*
G01*
X13261152Y-7374763D02*
G75*
G02*
X13301152Y-7374763I20000J0D01*
G01*
X13373034Y-8157210D02*
G75*
G02*
X13333034Y-8157210I-20000J0D01*
G01*
X13333034Y-8157210D02*
G75*
G02*
X13373034Y-8157210I20000J0D01*
G01*
X13390306Y-8614156D02*
G75*
G02*
X13350306Y-8614156I-20000J0D01*
G01*
X13350306Y-8614156D02*
G75*
G02*
X13390306Y-8614156I20000J0D01*
G01*
X13409356Y-7782687D02*
G75*
G02*
X13369356Y-7782687I-20000J0D01*
G01*
X13369356Y-7782687D02*
G75*
G02*
X13409356Y-7782687I20000J0D01*
G01*
X13500669Y-8214106D02*
G75*
G02*
X13460669Y-8214106I-20000J0D01*
G01*
X13460669Y-8214106D02*
G75*
G02*
X13500669Y-8214106I20000J0D01*
G01*
X13507908Y-7605649D02*
G75*
G02*
X13467908Y-7605649I-20000J0D01*
G01*
X13467908Y-7605649D02*
G75*
G02*
X13507908Y-7605649I20000J0D01*
G01*
X13542816Y-7385934D02*
G75*
G02*
X13502816Y-7385934I-20000J0D01*
G01*
X13502816Y-7385934D02*
G75*
G02*
X13542816Y-7385934I20000J0D01*
G01*
X13603412Y-9564243D02*
G75*
G02*
X13563412Y-9564243I-20000J0D01*
G01*
X13563412Y-9564243D02*
G75*
G02*
X13603412Y-9564243I20000J0D01*
G01*
X13622589Y-7607173D02*
G75*
G02*
X13582589Y-7607173I-20000J0D01*
G01*
X13582589Y-7607173D02*
G75*
G02*
X13622589Y-7607173I20000J0D01*
G01*
X13631352Y-8058023D02*
G75*
G02*
X13591352Y-8058023I-20000J0D01*
G01*
X13591352Y-8058023D02*
G75*
G02*
X13631352Y-8058023I20000J0D01*
G01*
X13709711Y-7607173D02*
G75*
G02*
X13669711Y-7607173I-20000J0D01*
G01*
X13669711Y-7607173D02*
G75*
G02*
X13709711Y-7607173I20000J0D01*
G01*
X13742096Y-8387715D02*
G75*
G02*
X13702096Y-8387715I-20000J0D01*
G01*
X13702096Y-8387715D02*
G75*
G02*
X13742096Y-8387715I20000J0D01*
G01*
X13789975Y-9847834D02*
G75*
G02*
X13749975Y-9847834I-20000J0D01*
G01*
X13749975Y-9847834D02*
G75*
G02*
X13789975Y-9847834I20000J0D01*
G01*
X13817534Y-10479278D02*
G75*
G02*
X13777534Y-10479278I-20000J0D01*
G01*
X13777534Y-10479278D02*
G75*
G02*
X13817534Y-10479278I20000J0D01*
G01*
X13855607Y-9583393D02*
G75*
G02*
X13815607Y-9583393I-20000J0D01*
G01*
X13815607Y-9583393D02*
G75*
G02*
X13855607Y-9583393I20000J0D01*
G01*
X13962568Y-7127240D02*
G75*
G02*
X13922568Y-7127240I-20000J0D01*
G01*
X13922568Y-7127240D02*
G75*
G02*
X13962568Y-7127240I20000J0D01*
G01*
X14120556Y-7128891D02*
G75*
G02*
X14080556Y-7128891I-20000J0D01*
G01*
X14080556Y-7128891D02*
G75*
G02*
X14120556Y-7128891I20000J0D01*
G01*
X14147099Y-7607173D02*
G75*
G02*
X14107099Y-7607173I-20000J0D01*
G01*
X14107099Y-7607173D02*
G75*
G02*
X14147099Y-7607173I20000J0D01*
G01*
X14245143Y-7525639D02*
G75*
G02*
X14205143Y-7525639I-20000J0D01*
G01*
X14205143Y-7525639D02*
G75*
G02*
X14245143Y-7525639I20000J0D01*
G01*
X14245143Y-7607173D02*
G75*
G02*
X14205143Y-7607173I-20000J0D01*
G01*
X14205143Y-7607173D02*
G75*
G02*
X14245143Y-7607173I20000J0D01*
G01*
X14309913Y-7246620D02*
G75*
G02*
X14269913Y-7246620I-20000J0D01*
G01*
X14269913Y-7246620D02*
G75*
G02*
X14309913Y-7246620I20000J0D01*
G01*
X14346870Y-10266807D02*
G75*
G02*
X14306870Y-10266807I-20000J0D01*
G01*
X14306870Y-10266807D02*
G75*
G02*
X14346870Y-10266807I20000J0D01*
G01*
X14354617Y-6827520D02*
G75*
G02*
X14314617Y-6827520I-20000J0D01*
G01*
X14314617Y-6827520D02*
G75*
G02*
X14354617Y-6827520I20000J0D01*
G01*
X14438945Y-6827520D02*
G75*
G02*
X14398945Y-6827520I-20000J0D01*
G01*
X14398945Y-6827520D02*
G75*
G02*
X14438945Y-6827520I20000J0D01*
G01*
X14471838Y-6640195D02*
G75*
G02*
X14431838Y-6640195I-20000J0D01*
G01*
X14431838Y-6640195D02*
G75*
G02*
X14471838Y-6640195I20000J0D01*
G01*
X14528353Y-6827520D02*
G75*
G02*
X14488353Y-6827520I-20000J0D01*
G01*
X14488353Y-6827520D02*
G75*
G02*
X14528353Y-6827520I20000J0D01*
G01*
X14635000Y-7099000D02*
G75*
G02*
X14595000Y-7099000I-20000J0D01*
G01*
X14595000Y-7099000D02*
G75*
G02*
X14635000Y-7099000I20000J0D01*
G01*
X14644685Y-9560433D02*
G75*
G02*
X14604685Y-9560433I-20000J0D01*
G01*
X14604685Y-9560433D02*
G75*
G02*
X14644685Y-9560433I20000J0D01*
G01*
X14647000Y-10083000D02*
G75*
G02*
X14607000Y-10083000I-20000J0D01*
G01*
X14607000Y-10083000D02*
G75*
G02*
X14647000Y-10083000I20000J0D01*
G01*
X14648163Y-9910523D02*
G75*
G02*
X14608163Y-9910523I-20000J0D01*
G01*
X14608163Y-9910523D02*
G75*
G02*
X14648163Y-9910523I20000J0D01*
G01*
X14648163Y-9996248D02*
G75*
G02*
X14608163Y-9996248I-20000J0D01*
G01*
X14608163Y-9996248D02*
G75*
G02*
X14648163Y-9996248I20000J0D01*
G01*
X14648163Y-10214942D02*
G75*
G02*
X14608163Y-10214942I-20000J0D01*
G01*
X14608163Y-10214942D02*
G75*
G02*
X14648163Y-10214942I20000J0D01*
G01*
X14657893Y-10777601D02*
G75*
G02*
X14617893Y-10777601I-20000J0D01*
G01*
X14617893Y-10777601D02*
G75*
G02*
X14657893Y-10777601I20000J0D01*
G01*
X14674000Y-7007000D02*
G75*
G02*
X14634000Y-7007000I-20000J0D01*
G01*
X14634000Y-7007000D02*
G75*
G02*
X14674000Y-7007000I20000J0D01*
G01*
X14699000Y-6908000D02*
G75*
G02*
X14659000Y-6908000I-20000J0D01*
G01*
X14659000Y-6908000D02*
G75*
G02*
X14699000Y-6908000I20000J0D01*
G01*
X14761000Y-10346000D02*
G75*
G02*
X14721000Y-10346000I-20000J0D01*
G01*
X14721000Y-10346000D02*
G75*
G02*
X14761000Y-10346000I20000J0D01*
G01*
X15046513Y-7941691D02*
G75*
G02*
X15006513Y-7941691I-20000J0D01*
G01*
X15006513Y-7941691D02*
G75*
G02*
X15046513Y-7941691I20000J0D01*
G01*
X12725073Y-6677407D02*
X12725073Y-6737407D01*
X12695073Y-6707407D02*
X12755073Y-6707407D01*
X12755073Y-6737407D02*
X12755073Y-6677407D01*
X12695073Y-6677407D02*
G75*
G02*
X12755073Y-6677407I30000J0D01*
G01*
X12695073Y-6677407D02*
X12695073Y-6737407D01*
X12695073Y-6737407D02*
G75*
G03*
X12755073Y-6737407I30000J0D01*
G01*
X12725073Y-7095407D02*
X12725073Y-7155407D01*
X12695073Y-7125407D02*
X12755073Y-7125407D01*
X12755073Y-7180407D02*
X12755073Y-7070407D01*
X12695073Y-7070407D02*
G75*
G02*
X12755073Y-7070407I30000J0D01*
G01*
X12695073Y-7070407D02*
X12695073Y-7180407D01*
X12695073Y-7180407D02*
G75*
G03*
X12755073Y-7180407I30000J0D01*
G01*
X13589073Y-6677407D02*
X13589073Y-6737407D01*
X13559073Y-6707407D02*
X13619073Y-6707407D01*
X13619073Y-6737407D02*
X13619073Y-6677407D01*
X13559073Y-6677407D02*
G75*
G02*
X13619073Y-6677407I30000J0D01*
G01*
X13559073Y-6677407D02*
X13559073Y-6737407D01*
X13559073Y-6737407D02*
G75*
G03*
X13619073Y-6737407I30000J0D01*
G01*
X13589073Y-7095407D02*
X13589073Y-7155407D01*
X13559073Y-7125407D02*
X13619073Y-7125407D01*
X13619073Y-7180407D02*
X13619073Y-7070407D01*
X13559073Y-7070407D02*
G75*
G02*
X13619073Y-7070407I30000J0D01*
G01*
X13559073Y-7070407D02*
X13559073Y-7180407D01*
X13559073Y-7180407D02*
G75*
G03*
X13619073Y-7180407I30000J0D01*
G01*
X11871248Y-8766733D02*
X11871248Y-8696021D01*
X11800536Y-8696021D01*
X11800536Y-8766733D01*
X11871248Y-8766733D01*
X11871248Y-9020733D02*
X11871248Y-8950021D01*
X11800536Y-8950021D01*
X11800536Y-9020733D01*
X11871248Y-9020733D01*
X11871248Y-9274733D02*
X11871248Y-9204021D01*
X11800536Y-9204021D01*
X11800536Y-9274733D01*
X11871248Y-9274733D01*
X11871248Y-9528733D02*
X11871248Y-9458021D01*
X11800536Y-9458021D01*
X11800536Y-9528733D01*
X11871248Y-9528733D01*
X11871248Y-9782733D02*
X11871248Y-9712021D01*
X11800536Y-9712021D01*
X11800536Y-9782733D01*
X11871248Y-9782733D01*
X11871248Y-10036733D02*
X11871248Y-9966021D01*
X11800536Y-9966021D01*
X11800536Y-10036733D01*
X11871248Y-10036733D01*
X14365655Y-8769527D02*
X14365655Y-8698815D01*
X14294943Y-8698815D01*
X14294943Y-8769527D01*
X14365655Y-8769527D01*
X14365655Y-9023527D02*
X14365655Y-8952815D01*
X14294943Y-8952815D01*
X14294943Y-9023527D01*
X14365655Y-9023527D01*
X14365655Y-9277527D02*
X14365655Y-9206815D01*
X14294943Y-9206815D01*
X14294943Y-9277527D01*
X14365655Y-9277527D01*
X14365655Y-9531527D02*
X14365655Y-9460815D01*
X14294943Y-9460815D01*
X14294943Y-9531527D01*
X14365655Y-9531527D01*
X14365655Y-9785527D02*
X14365655Y-9714815D01*
X14294943Y-9714815D01*
X14294943Y-9785527D01*
X14365655Y-9785527D01*
X14365655Y-10039527D02*
X14365655Y-9968815D01*
X14294943Y-9968815D01*
X14294943Y-10039527D01*
X14365655Y-10039527D01*
D11*
X8349255Y-13963603D02*
X8349255Y-13763603D01*
X8349255Y-13763603D02*
X8396874Y-13763603D01*
X8396874Y-13763603D02*
X8425445Y-13773127D01*
X8425445Y-13773127D02*
X8444493Y-13792174D01*
X8444493Y-13792174D02*
X8454017Y-13811222D01*
X8454017Y-13811222D02*
X8463541Y-13849317D01*
X8463541Y-13849317D02*
X8463541Y-13877888D01*
X8463541Y-13877888D02*
X8454017Y-13915984D01*
X8454017Y-13915984D02*
X8444493Y-13935031D01*
X8444493Y-13935031D02*
X8425445Y-13954079D01*
X8425445Y-13954079D02*
X8396874Y-13963603D01*
X8396874Y-13963603D02*
X8349255Y-13963603D01*
X8549255Y-13963603D02*
X8549255Y-13830269D01*
X8549255Y-13868365D02*
X8558779Y-13849317D01*
X8558779Y-13849317D02*
X8568302Y-13839793D01*
X8568302Y-13839793D02*
X8587350Y-13830269D01*
X8587350Y-13830269D02*
X8606398Y-13830269D01*
X8673064Y-13963603D02*
X8673064Y-13830269D01*
X8673064Y-13763603D02*
X8663541Y-13773127D01*
X8663541Y-13773127D02*
X8673064Y-13782650D01*
X8673064Y-13782650D02*
X8682588Y-13773127D01*
X8682588Y-13773127D02*
X8673064Y-13763603D01*
X8673064Y-13763603D02*
X8673064Y-13782650D01*
X8796874Y-13963603D02*
X8777826Y-13954079D01*
X8777826Y-13954079D02*
X8768302Y-13935031D01*
X8768302Y-13935031D02*
X8768302Y-13763603D01*
X8901636Y-13963603D02*
X8882588Y-13954079D01*
X8882588Y-13954079D02*
X8873064Y-13935031D01*
X8873064Y-13935031D02*
X8873064Y-13763603D01*
X9130207Y-13963603D02*
X9130207Y-13763603D01*
X9130207Y-13763603D02*
X9196874Y-13906460D01*
X9196874Y-13906460D02*
X9263541Y-13763603D01*
X9263541Y-13763603D02*
X9263541Y-13963603D01*
X9444493Y-13963603D02*
X9444493Y-13858841D01*
X9444493Y-13858841D02*
X9434969Y-13839793D01*
X9434969Y-13839793D02*
X9415922Y-13830269D01*
X9415922Y-13830269D02*
X9377826Y-13830269D01*
X9377826Y-13830269D02*
X9358779Y-13839793D01*
X9444493Y-13954079D02*
X9425445Y-13963603D01*
X9425445Y-13963603D02*
X9377826Y-13963603D01*
X9377826Y-13963603D02*
X9358779Y-13954079D01*
X9358779Y-13954079D02*
X9349255Y-13935031D01*
X9349255Y-13935031D02*
X9349255Y-13915984D01*
X9349255Y-13915984D02*
X9358779Y-13896936D01*
X9358779Y-13896936D02*
X9377826Y-13887412D01*
X9377826Y-13887412D02*
X9425445Y-13887412D01*
X9425445Y-13887412D02*
X9444493Y-13877888D01*
X9539731Y-13830269D02*
X9539731Y-14030269D01*
X9539731Y-13839793D02*
X9558779Y-13830269D01*
X9558779Y-13830269D02*
X9596874Y-13830269D01*
X9596874Y-13830269D02*
X9615922Y-13839793D01*
X9615922Y-13839793D02*
X9625445Y-13849317D01*
X9625445Y-13849317D02*
X9634969Y-13868365D01*
X9634969Y-13868365D02*
X9634969Y-13925507D01*
X9634969Y-13925507D02*
X9625445Y-13944555D01*
X9625445Y-13944555D02*
X9615922Y-13954079D01*
X9615922Y-13954079D02*
X9596874Y-13963603D01*
X9596874Y-13963603D02*
X9558779Y-13963603D01*
X9558779Y-13963603D02*
X9539731Y-13954079D01*
X9720683Y-13944555D02*
X9730207Y-13954079D01*
X9730207Y-13954079D02*
X9720683Y-13963603D01*
X9720683Y-13963603D02*
X9711160Y-13954079D01*
X9711160Y-13954079D02*
X9720683Y-13944555D01*
X9720683Y-13944555D02*
X9720683Y-13963603D01*
X9720683Y-13839793D02*
X9730207Y-13849317D01*
X9730207Y-13849317D02*
X9720683Y-13858841D01*
X9720683Y-13858841D02*
X9711160Y-13849317D01*
X9711160Y-13849317D02*
X9720683Y-13839793D01*
X9720683Y-13839793D02*
X9720683Y-13858841D01*
D12*
X8058478Y-14277119D02*
X8088478Y-14307119D01*
X8088478Y-14277119D02*
X8058478Y-14307119D01*
D11*
X8387350Y-14183603D02*
X8406398Y-14183603D01*
X8406398Y-14183603D02*
X8425445Y-14193127D01*
X8425445Y-14193127D02*
X8434969Y-14202650D01*
X8434969Y-14202650D02*
X8444493Y-14221698D01*
X8444493Y-14221698D02*
X8454017Y-14259793D01*
X8454017Y-14259793D02*
X8454017Y-14307412D01*
X8454017Y-14307412D02*
X8444493Y-14345507D01*
X8444493Y-14345507D02*
X8434969Y-14364555D01*
X8434969Y-14364555D02*
X8425445Y-14374079D01*
X8425445Y-14374079D02*
X8406398Y-14383603D01*
X8406398Y-14383603D02*
X8387350Y-14383603D01*
X8387350Y-14383603D02*
X8368302Y-14374079D01*
X8368302Y-14374079D02*
X8358779Y-14364555D01*
X8358779Y-14364555D02*
X8349255Y-14345507D01*
X8349255Y-14345507D02*
X8339731Y-14307412D01*
X8339731Y-14307412D02*
X8339731Y-14259793D01*
X8339731Y-14259793D02*
X8349255Y-14221698D01*
X8349255Y-14221698D02*
X8358779Y-14202650D01*
X8358779Y-14202650D02*
X8368302Y-14193127D01*
X8368302Y-14193127D02*
X8387350Y-14183603D01*
X8539731Y-14364555D02*
X8549255Y-14374079D01*
X8549255Y-14374079D02*
X8539731Y-14383603D01*
X8539731Y-14383603D02*
X8530207Y-14374079D01*
X8530207Y-14374079D02*
X8539731Y-14364555D01*
X8539731Y-14364555D02*
X8539731Y-14383603D01*
X8615922Y-14183603D02*
X8739731Y-14183603D01*
X8739731Y-14183603D02*
X8673064Y-14259793D01*
X8673064Y-14259793D02*
X8701636Y-14259793D01*
X8701636Y-14259793D02*
X8720683Y-14269317D01*
X8720683Y-14269317D02*
X8730207Y-14278841D01*
X8730207Y-14278841D02*
X8739731Y-14297888D01*
X8739731Y-14297888D02*
X8739731Y-14345507D01*
X8739731Y-14345507D02*
X8730207Y-14364555D01*
X8730207Y-14364555D02*
X8720683Y-14374079D01*
X8720683Y-14374079D02*
X8701636Y-14383603D01*
X8701636Y-14383603D02*
X8644493Y-14383603D01*
X8644493Y-14383603D02*
X8625445Y-14374079D01*
X8625445Y-14374079D02*
X8615922Y-14364555D01*
X8863541Y-14183603D02*
X8882588Y-14183603D01*
X8882588Y-14183603D02*
X8901636Y-14193127D01*
X8901636Y-14193127D02*
X8911160Y-14202650D01*
X8911160Y-14202650D02*
X8920683Y-14221698D01*
X8920683Y-14221698D02*
X8930207Y-14259793D01*
X8930207Y-14259793D02*
X8930207Y-14307412D01*
X8930207Y-14307412D02*
X8920683Y-14345507D01*
X8920683Y-14345507D02*
X8911160Y-14364555D01*
X8911160Y-14364555D02*
X8901636Y-14374079D01*
X8901636Y-14374079D02*
X8882588Y-14383603D01*
X8882588Y-14383603D02*
X8863541Y-14383603D01*
X8863541Y-14383603D02*
X8844493Y-14374079D01*
X8844493Y-14374079D02*
X8834969Y-14364555D01*
X8834969Y-14364555D02*
X8825445Y-14345507D01*
X8825445Y-14345507D02*
X8815922Y-14307412D01*
X8815922Y-14307412D02*
X8815922Y-14259793D01*
X8815922Y-14259793D02*
X8825445Y-14221698D01*
X8825445Y-14221698D02*
X8834969Y-14202650D01*
X8834969Y-14202650D02*
X8844493Y-14193127D01*
X8844493Y-14193127D02*
X8863541Y-14183603D01*
X9054017Y-14183603D02*
X9073064Y-14183603D01*
X9073064Y-14183603D02*
X9092112Y-14193127D01*
X9092112Y-14193127D02*
X9101636Y-14202650D01*
X9101636Y-14202650D02*
X9111160Y-14221698D01*
X9111160Y-14221698D02*
X9120683Y-14259793D01*
X9120683Y-14259793D02*
X9120683Y-14307412D01*
X9120683Y-14307412D02*
X9111160Y-14345507D01*
X9111160Y-14345507D02*
X9101636Y-14364555D01*
X9101636Y-14364555D02*
X9092112Y-14374079D01*
X9092112Y-14374079D02*
X9073064Y-14383603D01*
X9073064Y-14383603D02*
X9054017Y-14383603D01*
X9054017Y-14383603D02*
X9034969Y-14374079D01*
X9034969Y-14374079D02*
X9025445Y-14364555D01*
X9025445Y-14364555D02*
X9015922Y-14345507D01*
X9015922Y-14345507D02*
X9006398Y-14307412D01*
X9006398Y-14307412D02*
X9006398Y-14259793D01*
X9006398Y-14259793D02*
X9015922Y-14221698D01*
X9015922Y-14221698D02*
X9025445Y-14202650D01*
X9025445Y-14202650D02*
X9034969Y-14193127D01*
X9034969Y-14193127D02*
X9054017Y-14183603D01*
X9206398Y-14383603D02*
X9206398Y-14250269D01*
X9206398Y-14269317D02*
X9215922Y-14259793D01*
X9215922Y-14259793D02*
X9234969Y-14250269D01*
X9234969Y-14250269D02*
X9263541Y-14250269D01*
X9263541Y-14250269D02*
X9282588Y-14259793D01*
X9282588Y-14259793D02*
X9292112Y-14278841D01*
X9292112Y-14278841D02*
X9292112Y-14383603D01*
X9292112Y-14278841D02*
X9301636Y-14259793D01*
X9301636Y-14259793D02*
X9320683Y-14250269D01*
X9320683Y-14250269D02*
X9349255Y-14250269D01*
X9349255Y-14250269D02*
X9368303Y-14259793D01*
X9368303Y-14259793D02*
X9377826Y-14278841D01*
X9377826Y-14278841D02*
X9377826Y-14383603D01*
X9473064Y-14383603D02*
X9473064Y-14250269D01*
X9473064Y-14269317D02*
X9482588Y-14259793D01*
X9482588Y-14259793D02*
X9501636Y-14250269D01*
X9501636Y-14250269D02*
X9530207Y-14250269D01*
X9530207Y-14250269D02*
X9549255Y-14259793D01*
X9549255Y-14259793D02*
X9558779Y-14278841D01*
X9558779Y-14278841D02*
X9558779Y-14383603D01*
X9558779Y-14278841D02*
X9568303Y-14259793D01*
X9568303Y-14259793D02*
X9587350Y-14250269D01*
X9587350Y-14250269D02*
X9615922Y-14250269D01*
X9615922Y-14250269D02*
X9634969Y-14259793D01*
X9634969Y-14259793D02*
X9644493Y-14278841D01*
X9644493Y-14278841D02*
X9644493Y-14383603D01*
X10034969Y-14174079D02*
X9863541Y-14431222D01*
X10292112Y-14183603D02*
X10311160Y-14183603D01*
X10311160Y-14183603D02*
X10330207Y-14193127D01*
X10330207Y-14193127D02*
X10339731Y-14202650D01*
X10339731Y-14202650D02*
X10349255Y-14221698D01*
X10349255Y-14221698D02*
X10358779Y-14259793D01*
X10358779Y-14259793D02*
X10358779Y-14307412D01*
X10358779Y-14307412D02*
X10349255Y-14345507D01*
X10349255Y-14345507D02*
X10339731Y-14364555D01*
X10339731Y-14364555D02*
X10330207Y-14374079D01*
X10330207Y-14374079D02*
X10311160Y-14383603D01*
X10311160Y-14383603D02*
X10292112Y-14383603D01*
X10292112Y-14383603D02*
X10273065Y-14374079D01*
X10273065Y-14374079D02*
X10263541Y-14364555D01*
X10263541Y-14364555D02*
X10254017Y-14345507D01*
X10254017Y-14345507D02*
X10244493Y-14307412D01*
X10244493Y-14307412D02*
X10244493Y-14259793D01*
X10244493Y-14259793D02*
X10254017Y-14221698D01*
X10254017Y-14221698D02*
X10263541Y-14202650D01*
X10263541Y-14202650D02*
X10273065Y-14193127D01*
X10273065Y-14193127D02*
X10292112Y-14183603D01*
X10444493Y-14364555D02*
X10454017Y-14374079D01*
X10454017Y-14374079D02*
X10444493Y-14383603D01*
X10444493Y-14383603D02*
X10434969Y-14374079D01*
X10434969Y-14374079D02*
X10444493Y-14364555D01*
X10444493Y-14364555D02*
X10444493Y-14383603D01*
X10577826Y-14183603D02*
X10596874Y-14183603D01*
X10596874Y-14183603D02*
X10615922Y-14193127D01*
X10615922Y-14193127D02*
X10625446Y-14202650D01*
X10625446Y-14202650D02*
X10634969Y-14221698D01*
X10634969Y-14221698D02*
X10644493Y-14259793D01*
X10644493Y-14259793D02*
X10644493Y-14307412D01*
X10644493Y-14307412D02*
X10634969Y-14345507D01*
X10634969Y-14345507D02*
X10625446Y-14364555D01*
X10625446Y-14364555D02*
X10615922Y-14374079D01*
X10615922Y-14374079D02*
X10596874Y-14383603D01*
X10596874Y-14383603D02*
X10577826Y-14383603D01*
X10577826Y-14383603D02*
X10558779Y-14374079D01*
X10558779Y-14374079D02*
X10549255Y-14364555D01*
X10549255Y-14364555D02*
X10539731Y-14345507D01*
X10539731Y-14345507D02*
X10530207Y-14307412D01*
X10530207Y-14307412D02*
X10530207Y-14259793D01*
X10530207Y-14259793D02*
X10539731Y-14221698D01*
X10539731Y-14221698D02*
X10549255Y-14202650D01*
X10549255Y-14202650D02*
X10558779Y-14193127D01*
X10558779Y-14193127D02*
X10577826Y-14183603D01*
X10834969Y-14383603D02*
X10720684Y-14383603D01*
X10777826Y-14383603D02*
X10777826Y-14183603D01*
X10777826Y-14183603D02*
X10758779Y-14212174D01*
X10758779Y-14212174D02*
X10739731Y-14231222D01*
X10739731Y-14231222D02*
X10720684Y-14240746D01*
X11025446Y-14383603D02*
X10911160Y-14383603D01*
X10968303Y-14383603D02*
X10968303Y-14183603D01*
X10968303Y-14183603D02*
X10949255Y-14212174D01*
X10949255Y-14212174D02*
X10930207Y-14231222D01*
X10930207Y-14231222D02*
X10911160Y-14240746D01*
X11139731Y-14269317D02*
X11120684Y-14259793D01*
X11120684Y-14259793D02*
X11111160Y-14250269D01*
X11111160Y-14250269D02*
X11101636Y-14231222D01*
X11101636Y-14231222D02*
X11101636Y-14221698D01*
X11101636Y-14221698D02*
X11111160Y-14202650D01*
X11111160Y-14202650D02*
X11120684Y-14193127D01*
X11120684Y-14193127D02*
X11139731Y-14183603D01*
X11139731Y-14183603D02*
X11177827Y-14183603D01*
X11177827Y-14183603D02*
X11196874Y-14193127D01*
X11196874Y-14193127D02*
X11206398Y-14202650D01*
X11206398Y-14202650D02*
X11215922Y-14221698D01*
X11215922Y-14221698D02*
X11215922Y-14231222D01*
X11215922Y-14231222D02*
X11206398Y-14250269D01*
X11206398Y-14250269D02*
X11196874Y-14259793D01*
X11196874Y-14259793D02*
X11177827Y-14269317D01*
X11177827Y-14269317D02*
X11139731Y-14269317D01*
X11139731Y-14269317D02*
X11120684Y-14278841D01*
X11120684Y-14278841D02*
X11111160Y-14288365D01*
X11111160Y-14288365D02*
X11101636Y-14307412D01*
X11101636Y-14307412D02*
X11101636Y-14345507D01*
X11101636Y-14345507D02*
X11111160Y-14364555D01*
X11111160Y-14364555D02*
X11120684Y-14374079D01*
X11120684Y-14374079D02*
X11139731Y-14383603D01*
X11139731Y-14383603D02*
X11177827Y-14383603D01*
X11177827Y-14383603D02*
X11196874Y-14374079D01*
X11196874Y-14374079D02*
X11206398Y-14364555D01*
X11206398Y-14364555D02*
X11215922Y-14345507D01*
X11215922Y-14345507D02*
X11215922Y-14307412D01*
X11215922Y-14307412D02*
X11206398Y-14288365D01*
X11206398Y-14288365D02*
X11196874Y-14278841D01*
X11196874Y-14278841D02*
X11177827Y-14269317D01*
X11292112Y-14183603D02*
X11292112Y-14221698D01*
X11368303Y-14183603D02*
X11368303Y-14221698D01*
X11663541Y-14459793D02*
X11654017Y-14450269D01*
X11654017Y-14450269D02*
X11634969Y-14421698D01*
X11634969Y-14421698D02*
X11625446Y-14402650D01*
X11625446Y-14402650D02*
X11615922Y-14374079D01*
X11615922Y-14374079D02*
X11606398Y-14326460D01*
X11606398Y-14326460D02*
X11606398Y-14288365D01*
X11606398Y-14288365D02*
X11615922Y-14240746D01*
X11615922Y-14240746D02*
X11625446Y-14212174D01*
X11625446Y-14212174D02*
X11634969Y-14193127D01*
X11634969Y-14193127D02*
X11654017Y-14164555D01*
X11654017Y-14164555D02*
X11663541Y-14155031D01*
X11825446Y-14183603D02*
X11787350Y-14183603D01*
X11787350Y-14183603D02*
X11768303Y-14193127D01*
X11768303Y-14193127D02*
X11758779Y-14202650D01*
X11758779Y-14202650D02*
X11739731Y-14231222D01*
X11739731Y-14231222D02*
X11730207Y-14269317D01*
X11730207Y-14269317D02*
X11730207Y-14345507D01*
X11730207Y-14345507D02*
X11739731Y-14364555D01*
X11739731Y-14364555D02*
X11749255Y-14374079D01*
X11749255Y-14374079D02*
X11768303Y-14383603D01*
X11768303Y-14383603D02*
X11806398Y-14383603D01*
X11806398Y-14383603D02*
X11825446Y-14374079D01*
X11825446Y-14374079D02*
X11834969Y-14364555D01*
X11834969Y-14364555D02*
X11844493Y-14345507D01*
X11844493Y-14345507D02*
X11844493Y-14297888D01*
X11844493Y-14297888D02*
X11834969Y-14278841D01*
X11834969Y-14278841D02*
X11825446Y-14269317D01*
X11825446Y-14269317D02*
X11806398Y-14259793D01*
X11806398Y-14259793D02*
X11768303Y-14259793D01*
X11768303Y-14259793D02*
X11749255Y-14269317D01*
X11749255Y-14269317D02*
X11739731Y-14278841D01*
X11739731Y-14278841D02*
X11730207Y-14297888D01*
X12082588Y-14383603D02*
X12082588Y-14183603D01*
X12168303Y-14383603D02*
X12168303Y-14278841D01*
X12168303Y-14278841D02*
X12158779Y-14259793D01*
X12158779Y-14259793D02*
X12139731Y-14250269D01*
X12139731Y-14250269D02*
X12111160Y-14250269D01*
X12111160Y-14250269D02*
X12092112Y-14259793D01*
X12092112Y-14259793D02*
X12082588Y-14269317D01*
X12292112Y-14383603D02*
X12273065Y-14374079D01*
X12273065Y-14374079D02*
X12263541Y-14364555D01*
X12263541Y-14364555D02*
X12254017Y-14345507D01*
X12254017Y-14345507D02*
X12254017Y-14288365D01*
X12254017Y-14288365D02*
X12263541Y-14269317D01*
X12263541Y-14269317D02*
X12273065Y-14259793D01*
X12273065Y-14259793D02*
X12292112Y-14250269D01*
X12292112Y-14250269D02*
X12320684Y-14250269D01*
X12320684Y-14250269D02*
X12339731Y-14259793D01*
X12339731Y-14259793D02*
X12349255Y-14269317D01*
X12349255Y-14269317D02*
X12358779Y-14288365D01*
X12358779Y-14288365D02*
X12358779Y-14345507D01*
X12358779Y-14345507D02*
X12349255Y-14364555D01*
X12349255Y-14364555D02*
X12339731Y-14374079D01*
X12339731Y-14374079D02*
X12320684Y-14383603D01*
X12320684Y-14383603D02*
X12292112Y-14383603D01*
X12473065Y-14383603D02*
X12454017Y-14374079D01*
X12454017Y-14374079D02*
X12444493Y-14355031D01*
X12444493Y-14355031D02*
X12444493Y-14183603D01*
X12625446Y-14374079D02*
X12606398Y-14383603D01*
X12606398Y-14383603D02*
X12568303Y-14383603D01*
X12568303Y-14383603D02*
X12549255Y-14374079D01*
X12549255Y-14374079D02*
X12539731Y-14355031D01*
X12539731Y-14355031D02*
X12539731Y-14278841D01*
X12539731Y-14278841D02*
X12549255Y-14259793D01*
X12549255Y-14259793D02*
X12568303Y-14250269D01*
X12568303Y-14250269D02*
X12606398Y-14250269D01*
X12606398Y-14250269D02*
X12625446Y-14259793D01*
X12625446Y-14259793D02*
X12634969Y-14278841D01*
X12634969Y-14278841D02*
X12634969Y-14297888D01*
X12634969Y-14297888D02*
X12539731Y-14316936D01*
X12711160Y-14374079D02*
X12730208Y-14383603D01*
X12730208Y-14383603D02*
X12768303Y-14383603D01*
X12768303Y-14383603D02*
X12787350Y-14374079D01*
X12787350Y-14374079D02*
X12796874Y-14355031D01*
X12796874Y-14355031D02*
X12796874Y-14345507D01*
X12796874Y-14345507D02*
X12787350Y-14326460D01*
X12787350Y-14326460D02*
X12768303Y-14316936D01*
X12768303Y-14316936D02*
X12739731Y-14316936D01*
X12739731Y-14316936D02*
X12720684Y-14307412D01*
X12720684Y-14307412D02*
X12711160Y-14288365D01*
X12711160Y-14288365D02*
X12711160Y-14278841D01*
X12711160Y-14278841D02*
X12720684Y-14259793D01*
X12720684Y-14259793D02*
X12739731Y-14250269D01*
X12739731Y-14250269D02*
X12768303Y-14250269D01*
X12768303Y-14250269D02*
X12787350Y-14259793D01*
X12863541Y-14459793D02*
X12873065Y-14450269D01*
X12873065Y-14450269D02*
X12892112Y-14421698D01*
X12892112Y-14421698D02*
X12901636Y-14402650D01*
X12901636Y-14402650D02*
X12911160Y-14374079D01*
X12911160Y-14374079D02*
X12920684Y-14326460D01*
X12920684Y-14326460D02*
X12920684Y-14288365D01*
X12920684Y-14288365D02*
X12911160Y-14240746D01*
X12911160Y-14240746D02*
X12901636Y-14212174D01*
X12901636Y-14212174D02*
X12892112Y-14193127D01*
X12892112Y-14193127D02*
X12873065Y-14164555D01*
X12873065Y-14164555D02*
X12863541Y-14155031D01*
D12*
X8088478Y-14556119D02*
G75*
G02*
X8048478Y-14556119I-20000J0D01*
G01*
X8048478Y-14556119D02*
G75*
G02*
X8088478Y-14556119I20000J0D01*
G01*
D11*
X8387350Y-14447603D02*
X8406398Y-14447603D01*
X8406398Y-14447603D02*
X8425445Y-14457127D01*
X8425445Y-14457127D02*
X8434969Y-14466650D01*
X8434969Y-14466650D02*
X8444493Y-14485698D01*
X8444493Y-14485698D02*
X8454017Y-14523793D01*
X8454017Y-14523793D02*
X8454017Y-14571412D01*
X8454017Y-14571412D02*
X8444493Y-14609507D01*
X8444493Y-14609507D02*
X8434969Y-14628555D01*
X8434969Y-14628555D02*
X8425445Y-14638079D01*
X8425445Y-14638079D02*
X8406398Y-14647603D01*
X8406398Y-14647603D02*
X8387350Y-14647603D01*
X8387350Y-14647603D02*
X8368302Y-14638079D01*
X8368302Y-14638079D02*
X8358779Y-14628555D01*
X8358779Y-14628555D02*
X8349255Y-14609507D01*
X8349255Y-14609507D02*
X8339731Y-14571412D01*
X8339731Y-14571412D02*
X8339731Y-14523793D01*
X8339731Y-14523793D02*
X8349255Y-14485698D01*
X8349255Y-14485698D02*
X8358779Y-14466650D01*
X8358779Y-14466650D02*
X8368302Y-14457127D01*
X8368302Y-14457127D02*
X8387350Y-14447603D01*
X8539731Y-14628555D02*
X8549255Y-14638079D01*
X8549255Y-14638079D02*
X8539731Y-14647603D01*
X8539731Y-14647603D02*
X8530207Y-14638079D01*
X8530207Y-14638079D02*
X8539731Y-14628555D01*
X8539731Y-14628555D02*
X8539731Y-14647603D01*
X8720683Y-14514269D02*
X8720683Y-14647603D01*
X8673064Y-14438079D02*
X8625445Y-14580936D01*
X8625445Y-14580936D02*
X8749255Y-14580936D01*
X8863541Y-14447603D02*
X8882588Y-14447603D01*
X8882588Y-14447603D02*
X8901636Y-14457127D01*
X8901636Y-14457127D02*
X8911160Y-14466650D01*
X8911160Y-14466650D02*
X8920683Y-14485698D01*
X8920683Y-14485698D02*
X8930207Y-14523793D01*
X8930207Y-14523793D02*
X8930207Y-14571412D01*
X8930207Y-14571412D02*
X8920683Y-14609507D01*
X8920683Y-14609507D02*
X8911160Y-14628555D01*
X8911160Y-14628555D02*
X8901636Y-14638079D01*
X8901636Y-14638079D02*
X8882588Y-14647603D01*
X8882588Y-14647603D02*
X8863541Y-14647603D01*
X8863541Y-14647603D02*
X8844493Y-14638079D01*
X8844493Y-14638079D02*
X8834969Y-14628555D01*
X8834969Y-14628555D02*
X8825445Y-14609507D01*
X8825445Y-14609507D02*
X8815922Y-14571412D01*
X8815922Y-14571412D02*
X8815922Y-14523793D01*
X8815922Y-14523793D02*
X8825445Y-14485698D01*
X8825445Y-14485698D02*
X8834969Y-14466650D01*
X8834969Y-14466650D02*
X8844493Y-14457127D01*
X8844493Y-14457127D02*
X8863541Y-14447603D01*
X9054017Y-14447603D02*
X9073064Y-14447603D01*
X9073064Y-14447603D02*
X9092112Y-14457127D01*
X9092112Y-14457127D02*
X9101636Y-14466650D01*
X9101636Y-14466650D02*
X9111160Y-14485698D01*
X9111160Y-14485698D02*
X9120683Y-14523793D01*
X9120683Y-14523793D02*
X9120683Y-14571412D01*
X9120683Y-14571412D02*
X9111160Y-14609507D01*
X9111160Y-14609507D02*
X9101636Y-14628555D01*
X9101636Y-14628555D02*
X9092112Y-14638079D01*
X9092112Y-14638079D02*
X9073064Y-14647603D01*
X9073064Y-14647603D02*
X9054017Y-14647603D01*
X9054017Y-14647603D02*
X9034969Y-14638079D01*
X9034969Y-14638079D02*
X9025445Y-14628555D01*
X9025445Y-14628555D02*
X9015922Y-14609507D01*
X9015922Y-14609507D02*
X9006398Y-14571412D01*
X9006398Y-14571412D02*
X9006398Y-14523793D01*
X9006398Y-14523793D02*
X9015922Y-14485698D01*
X9015922Y-14485698D02*
X9025445Y-14466650D01*
X9025445Y-14466650D02*
X9034969Y-14457127D01*
X9034969Y-14457127D02*
X9054017Y-14447603D01*
X9206398Y-14647603D02*
X9206398Y-14514269D01*
X9206398Y-14533317D02*
X9215922Y-14523793D01*
X9215922Y-14523793D02*
X9234969Y-14514269D01*
X9234969Y-14514269D02*
X9263541Y-14514269D01*
X9263541Y-14514269D02*
X9282588Y-14523793D01*
X9282588Y-14523793D02*
X9292112Y-14542841D01*
X9292112Y-14542841D02*
X9292112Y-14647603D01*
X9292112Y-14542841D02*
X9301636Y-14523793D01*
X9301636Y-14523793D02*
X9320683Y-14514269D01*
X9320683Y-14514269D02*
X9349255Y-14514269D01*
X9349255Y-14514269D02*
X9368303Y-14523793D01*
X9368303Y-14523793D02*
X9377826Y-14542841D01*
X9377826Y-14542841D02*
X9377826Y-14647603D01*
X9473064Y-14647603D02*
X9473064Y-14514269D01*
X9473064Y-14533317D02*
X9482588Y-14523793D01*
X9482588Y-14523793D02*
X9501636Y-14514269D01*
X9501636Y-14514269D02*
X9530207Y-14514269D01*
X9530207Y-14514269D02*
X9549255Y-14523793D01*
X9549255Y-14523793D02*
X9558779Y-14542841D01*
X9558779Y-14542841D02*
X9558779Y-14647603D01*
X9558779Y-14542841D02*
X9568303Y-14523793D01*
X9568303Y-14523793D02*
X9587350Y-14514269D01*
X9587350Y-14514269D02*
X9615922Y-14514269D01*
X9615922Y-14514269D02*
X9634969Y-14523793D01*
X9634969Y-14523793D02*
X9644493Y-14542841D01*
X9644493Y-14542841D02*
X9644493Y-14647603D01*
X10034969Y-14438079D02*
X9863541Y-14695222D01*
X10292112Y-14447603D02*
X10311160Y-14447603D01*
X10311160Y-14447603D02*
X10330207Y-14457127D01*
X10330207Y-14457127D02*
X10339731Y-14466650D01*
X10339731Y-14466650D02*
X10349255Y-14485698D01*
X10349255Y-14485698D02*
X10358779Y-14523793D01*
X10358779Y-14523793D02*
X10358779Y-14571412D01*
X10358779Y-14571412D02*
X10349255Y-14609507D01*
X10349255Y-14609507D02*
X10339731Y-14628555D01*
X10339731Y-14628555D02*
X10330207Y-14638079D01*
X10330207Y-14638079D02*
X10311160Y-14647603D01*
X10311160Y-14647603D02*
X10292112Y-14647603D01*
X10292112Y-14647603D02*
X10273065Y-14638079D01*
X10273065Y-14638079D02*
X10263541Y-14628555D01*
X10263541Y-14628555D02*
X10254017Y-14609507D01*
X10254017Y-14609507D02*
X10244493Y-14571412D01*
X10244493Y-14571412D02*
X10244493Y-14523793D01*
X10244493Y-14523793D02*
X10254017Y-14485698D01*
X10254017Y-14485698D02*
X10263541Y-14466650D01*
X10263541Y-14466650D02*
X10273065Y-14457127D01*
X10273065Y-14457127D02*
X10292112Y-14447603D01*
X10444493Y-14628555D02*
X10454017Y-14638079D01*
X10454017Y-14638079D02*
X10444493Y-14647603D01*
X10444493Y-14647603D02*
X10434969Y-14638079D01*
X10434969Y-14638079D02*
X10444493Y-14628555D01*
X10444493Y-14628555D02*
X10444493Y-14647603D01*
X10577826Y-14447603D02*
X10596874Y-14447603D01*
X10596874Y-14447603D02*
X10615922Y-14457127D01*
X10615922Y-14457127D02*
X10625446Y-14466650D01*
X10625446Y-14466650D02*
X10634969Y-14485698D01*
X10634969Y-14485698D02*
X10644493Y-14523793D01*
X10644493Y-14523793D02*
X10644493Y-14571412D01*
X10644493Y-14571412D02*
X10634969Y-14609507D01*
X10634969Y-14609507D02*
X10625446Y-14628555D01*
X10625446Y-14628555D02*
X10615922Y-14638079D01*
X10615922Y-14638079D02*
X10596874Y-14647603D01*
X10596874Y-14647603D02*
X10577826Y-14647603D01*
X10577826Y-14647603D02*
X10558779Y-14638079D01*
X10558779Y-14638079D02*
X10549255Y-14628555D01*
X10549255Y-14628555D02*
X10539731Y-14609507D01*
X10539731Y-14609507D02*
X10530207Y-14571412D01*
X10530207Y-14571412D02*
X10530207Y-14523793D01*
X10530207Y-14523793D02*
X10539731Y-14485698D01*
X10539731Y-14485698D02*
X10549255Y-14466650D01*
X10549255Y-14466650D02*
X10558779Y-14457127D01*
X10558779Y-14457127D02*
X10577826Y-14447603D01*
X10834969Y-14647603D02*
X10720684Y-14647603D01*
X10777826Y-14647603D02*
X10777826Y-14447603D01*
X10777826Y-14447603D02*
X10758779Y-14476174D01*
X10758779Y-14476174D02*
X10739731Y-14495222D01*
X10739731Y-14495222D02*
X10720684Y-14504746D01*
X11015922Y-14447603D02*
X10920684Y-14447603D01*
X10920684Y-14447603D02*
X10911160Y-14542841D01*
X10911160Y-14542841D02*
X10920684Y-14533317D01*
X10920684Y-14533317D02*
X10939731Y-14523793D01*
X10939731Y-14523793D02*
X10987350Y-14523793D01*
X10987350Y-14523793D02*
X11006398Y-14533317D01*
X11006398Y-14533317D02*
X11015922Y-14542841D01*
X11015922Y-14542841D02*
X11025446Y-14561888D01*
X11025446Y-14561888D02*
X11025446Y-14609507D01*
X11025446Y-14609507D02*
X11015922Y-14628555D01*
X11015922Y-14628555D02*
X11006398Y-14638079D01*
X11006398Y-14638079D02*
X10987350Y-14647603D01*
X10987350Y-14647603D02*
X10939731Y-14647603D01*
X10939731Y-14647603D02*
X10920684Y-14638079D01*
X10920684Y-14638079D02*
X10911160Y-14628555D01*
X11092112Y-14447603D02*
X11225445Y-14447603D01*
X11225445Y-14447603D02*
X11139731Y-14647603D01*
X11292112Y-14447603D02*
X11292112Y-14485698D01*
X11368303Y-14447603D02*
X11368303Y-14485698D01*
X11663541Y-14723793D02*
X11654017Y-14714269D01*
X11654017Y-14714269D02*
X11634969Y-14685698D01*
X11634969Y-14685698D02*
X11625446Y-14666650D01*
X11625446Y-14666650D02*
X11615922Y-14638079D01*
X11615922Y-14638079D02*
X11606398Y-14590460D01*
X11606398Y-14590460D02*
X11606398Y-14552365D01*
X11606398Y-14552365D02*
X11615922Y-14504746D01*
X11615922Y-14504746D02*
X11625446Y-14476174D01*
X11625446Y-14476174D02*
X11634969Y-14457127D01*
X11634969Y-14457127D02*
X11654017Y-14428555D01*
X11654017Y-14428555D02*
X11663541Y-14419031D01*
X11720684Y-14447603D02*
X11854017Y-14447603D01*
X11854017Y-14447603D02*
X11768303Y-14647603D01*
X12015922Y-14514269D02*
X12015922Y-14647603D01*
X11968303Y-14438079D02*
X11920684Y-14580936D01*
X11920684Y-14580936D02*
X12044493Y-14580936D01*
X12273065Y-14647603D02*
X12273065Y-14447603D01*
X12358779Y-14647603D02*
X12358779Y-14542841D01*
X12358779Y-14542841D02*
X12349255Y-14523793D01*
X12349255Y-14523793D02*
X12330208Y-14514269D01*
X12330208Y-14514269D02*
X12301636Y-14514269D01*
X12301636Y-14514269D02*
X12282588Y-14523793D01*
X12282588Y-14523793D02*
X12273065Y-14533317D01*
X12482588Y-14647603D02*
X12463541Y-14638079D01*
X12463541Y-14638079D02*
X12454017Y-14628555D01*
X12454017Y-14628555D02*
X12444493Y-14609507D01*
X12444493Y-14609507D02*
X12444493Y-14552365D01*
X12444493Y-14552365D02*
X12454017Y-14533317D01*
X12454017Y-14533317D02*
X12463541Y-14523793D01*
X12463541Y-14523793D02*
X12482588Y-14514269D01*
X12482588Y-14514269D02*
X12511160Y-14514269D01*
X12511160Y-14514269D02*
X12530208Y-14523793D01*
X12530208Y-14523793D02*
X12539731Y-14533317D01*
X12539731Y-14533317D02*
X12549255Y-14552365D01*
X12549255Y-14552365D02*
X12549255Y-14609507D01*
X12549255Y-14609507D02*
X12539731Y-14628555D01*
X12539731Y-14628555D02*
X12530208Y-14638079D01*
X12530208Y-14638079D02*
X12511160Y-14647603D01*
X12511160Y-14647603D02*
X12482588Y-14647603D01*
X12663541Y-14647603D02*
X12644493Y-14638079D01*
X12644493Y-14638079D02*
X12634969Y-14619031D01*
X12634969Y-14619031D02*
X12634969Y-14447603D01*
X12815922Y-14638079D02*
X12796874Y-14647603D01*
X12796874Y-14647603D02*
X12758779Y-14647603D01*
X12758779Y-14647603D02*
X12739731Y-14638079D01*
X12739731Y-14638079D02*
X12730208Y-14619031D01*
X12730208Y-14619031D02*
X12730208Y-14542841D01*
X12730208Y-14542841D02*
X12739731Y-14523793D01*
X12739731Y-14523793D02*
X12758779Y-14514269D01*
X12758779Y-14514269D02*
X12796874Y-14514269D01*
X12796874Y-14514269D02*
X12815922Y-14523793D01*
X12815922Y-14523793D02*
X12825446Y-14542841D01*
X12825446Y-14542841D02*
X12825446Y-14561888D01*
X12825446Y-14561888D02*
X12730208Y-14580936D01*
X12901636Y-14638079D02*
X12920684Y-14647603D01*
X12920684Y-14647603D02*
X12958779Y-14647603D01*
X12958779Y-14647603D02*
X12977827Y-14638079D01*
X12977827Y-14638079D02*
X12987350Y-14619031D01*
X12987350Y-14619031D02*
X12987350Y-14609507D01*
X12987350Y-14609507D02*
X12977827Y-14590460D01*
X12977827Y-14590460D02*
X12958779Y-14580936D01*
X12958779Y-14580936D02*
X12930208Y-14580936D01*
X12930208Y-14580936D02*
X12911160Y-14571412D01*
X12911160Y-14571412D02*
X12901636Y-14552365D01*
X12901636Y-14552365D02*
X12901636Y-14542841D01*
X12901636Y-14542841D02*
X12911160Y-14523793D01*
X12911160Y-14523793D02*
X12930208Y-14514269D01*
X12930208Y-14514269D02*
X12958779Y-14514269D01*
X12958779Y-14514269D02*
X12977827Y-14523793D01*
X13054017Y-14723793D02*
X13063541Y-14714269D01*
X13063541Y-14714269D02*
X13082589Y-14685698D01*
X13082589Y-14685698D02*
X13092112Y-14666650D01*
X13092112Y-14666650D02*
X13101636Y-14638079D01*
X13101636Y-14638079D02*
X13111160Y-14590460D01*
X13111160Y-14590460D02*
X13111160Y-14552365D01*
X13111160Y-14552365D02*
X13101636Y-14504746D01*
X13101636Y-14504746D02*
X13092112Y-14476174D01*
X13092112Y-14476174D02*
X13082589Y-14457127D01*
X13082589Y-14457127D02*
X13063541Y-14428555D01*
X13063541Y-14428555D02*
X13054017Y-14419031D01*
D12*
X8058478Y-14790119D02*
X8058478Y-14850119D01*
X8028478Y-14820119D02*
X8088478Y-14820119D01*
D11*
X8387350Y-14711603D02*
X8406398Y-14711603D01*
X8406398Y-14711603D02*
X8425445Y-14721127D01*
X8425445Y-14721127D02*
X8434969Y-14730650D01*
X8434969Y-14730650D02*
X8444493Y-14749698D01*
X8444493Y-14749698D02*
X8454017Y-14787793D01*
X8454017Y-14787793D02*
X8454017Y-14835412D01*
X8454017Y-14835412D02*
X8444493Y-14873507D01*
X8444493Y-14873507D02*
X8434969Y-14892555D01*
X8434969Y-14892555D02*
X8425445Y-14902079D01*
X8425445Y-14902079D02*
X8406398Y-14911603D01*
X8406398Y-14911603D02*
X8387350Y-14911603D01*
X8387350Y-14911603D02*
X8368302Y-14902079D01*
X8368302Y-14902079D02*
X8358779Y-14892555D01*
X8358779Y-14892555D02*
X8349255Y-14873507D01*
X8349255Y-14873507D02*
X8339731Y-14835412D01*
X8339731Y-14835412D02*
X8339731Y-14787793D01*
X8339731Y-14787793D02*
X8349255Y-14749698D01*
X8349255Y-14749698D02*
X8358779Y-14730650D01*
X8358779Y-14730650D02*
X8368302Y-14721127D01*
X8368302Y-14721127D02*
X8387350Y-14711603D01*
X8539731Y-14892555D02*
X8549255Y-14902079D01*
X8549255Y-14902079D02*
X8539731Y-14911603D01*
X8539731Y-14911603D02*
X8530207Y-14902079D01*
X8530207Y-14902079D02*
X8539731Y-14892555D01*
X8539731Y-14892555D02*
X8539731Y-14911603D01*
X8720683Y-14711603D02*
X8682588Y-14711603D01*
X8682588Y-14711603D02*
X8663541Y-14721127D01*
X8663541Y-14721127D02*
X8654017Y-14730650D01*
X8654017Y-14730650D02*
X8634969Y-14759222D01*
X8634969Y-14759222D02*
X8625445Y-14797317D01*
X8625445Y-14797317D02*
X8625445Y-14873507D01*
X8625445Y-14873507D02*
X8634969Y-14892555D01*
X8634969Y-14892555D02*
X8644493Y-14902079D01*
X8644493Y-14902079D02*
X8663541Y-14911603D01*
X8663541Y-14911603D02*
X8701636Y-14911603D01*
X8701636Y-14911603D02*
X8720683Y-14902079D01*
X8720683Y-14902079D02*
X8730207Y-14892555D01*
X8730207Y-14892555D02*
X8739731Y-14873507D01*
X8739731Y-14873507D02*
X8739731Y-14825888D01*
X8739731Y-14825888D02*
X8730207Y-14806841D01*
X8730207Y-14806841D02*
X8720683Y-14797317D01*
X8720683Y-14797317D02*
X8701636Y-14787793D01*
X8701636Y-14787793D02*
X8663541Y-14787793D01*
X8663541Y-14787793D02*
X8644493Y-14797317D01*
X8644493Y-14797317D02*
X8634969Y-14806841D01*
X8634969Y-14806841D02*
X8625445Y-14825888D01*
X8863541Y-14711603D02*
X8882588Y-14711603D01*
X8882588Y-14711603D02*
X8901636Y-14721127D01*
X8901636Y-14721127D02*
X8911160Y-14730650D01*
X8911160Y-14730650D02*
X8920683Y-14749698D01*
X8920683Y-14749698D02*
X8930207Y-14787793D01*
X8930207Y-14787793D02*
X8930207Y-14835412D01*
X8930207Y-14835412D02*
X8920683Y-14873507D01*
X8920683Y-14873507D02*
X8911160Y-14892555D01*
X8911160Y-14892555D02*
X8901636Y-14902079D01*
X8901636Y-14902079D02*
X8882588Y-14911603D01*
X8882588Y-14911603D02*
X8863541Y-14911603D01*
X8863541Y-14911603D02*
X8844493Y-14902079D01*
X8844493Y-14902079D02*
X8834969Y-14892555D01*
X8834969Y-14892555D02*
X8825445Y-14873507D01*
X8825445Y-14873507D02*
X8815922Y-14835412D01*
X8815922Y-14835412D02*
X8815922Y-14787793D01*
X8815922Y-14787793D02*
X8825445Y-14749698D01*
X8825445Y-14749698D02*
X8834969Y-14730650D01*
X8834969Y-14730650D02*
X8844493Y-14721127D01*
X8844493Y-14721127D02*
X8863541Y-14711603D01*
X9054017Y-14711603D02*
X9073064Y-14711603D01*
X9073064Y-14711603D02*
X9092112Y-14721127D01*
X9092112Y-14721127D02*
X9101636Y-14730650D01*
X9101636Y-14730650D02*
X9111160Y-14749698D01*
X9111160Y-14749698D02*
X9120683Y-14787793D01*
X9120683Y-14787793D02*
X9120683Y-14835412D01*
X9120683Y-14835412D02*
X9111160Y-14873507D01*
X9111160Y-14873507D02*
X9101636Y-14892555D01*
X9101636Y-14892555D02*
X9092112Y-14902079D01*
X9092112Y-14902079D02*
X9073064Y-14911603D01*
X9073064Y-14911603D02*
X9054017Y-14911603D01*
X9054017Y-14911603D02*
X9034969Y-14902079D01*
X9034969Y-14902079D02*
X9025445Y-14892555D01*
X9025445Y-14892555D02*
X9015922Y-14873507D01*
X9015922Y-14873507D02*
X9006398Y-14835412D01*
X9006398Y-14835412D02*
X9006398Y-14787793D01*
X9006398Y-14787793D02*
X9015922Y-14749698D01*
X9015922Y-14749698D02*
X9025445Y-14730650D01*
X9025445Y-14730650D02*
X9034969Y-14721127D01*
X9034969Y-14721127D02*
X9054017Y-14711603D01*
X9206398Y-14911603D02*
X9206398Y-14778269D01*
X9206398Y-14797317D02*
X9215922Y-14787793D01*
X9215922Y-14787793D02*
X9234969Y-14778269D01*
X9234969Y-14778269D02*
X9263541Y-14778269D01*
X9263541Y-14778269D02*
X9282588Y-14787793D01*
X9282588Y-14787793D02*
X9292112Y-14806841D01*
X9292112Y-14806841D02*
X9292112Y-14911603D01*
X9292112Y-14806841D02*
X9301636Y-14787793D01*
X9301636Y-14787793D02*
X9320683Y-14778269D01*
X9320683Y-14778269D02*
X9349255Y-14778269D01*
X9349255Y-14778269D02*
X9368303Y-14787793D01*
X9368303Y-14787793D02*
X9377826Y-14806841D01*
X9377826Y-14806841D02*
X9377826Y-14911603D01*
X9473064Y-14911603D02*
X9473064Y-14778269D01*
X9473064Y-14797317D02*
X9482588Y-14787793D01*
X9482588Y-14787793D02*
X9501636Y-14778269D01*
X9501636Y-14778269D02*
X9530207Y-14778269D01*
X9530207Y-14778269D02*
X9549255Y-14787793D01*
X9549255Y-14787793D02*
X9558779Y-14806841D01*
X9558779Y-14806841D02*
X9558779Y-14911603D01*
X9558779Y-14806841D02*
X9568303Y-14787793D01*
X9568303Y-14787793D02*
X9587350Y-14778269D01*
X9587350Y-14778269D02*
X9615922Y-14778269D01*
X9615922Y-14778269D02*
X9634969Y-14787793D01*
X9634969Y-14787793D02*
X9644493Y-14806841D01*
X9644493Y-14806841D02*
X9644493Y-14911603D01*
X10034969Y-14702079D02*
X9863541Y-14959222D01*
X10292112Y-14711603D02*
X10311160Y-14711603D01*
X10311160Y-14711603D02*
X10330207Y-14721127D01*
X10330207Y-14721127D02*
X10339731Y-14730650D01*
X10339731Y-14730650D02*
X10349255Y-14749698D01*
X10349255Y-14749698D02*
X10358779Y-14787793D01*
X10358779Y-14787793D02*
X10358779Y-14835412D01*
X10358779Y-14835412D02*
X10349255Y-14873507D01*
X10349255Y-14873507D02*
X10339731Y-14892555D01*
X10339731Y-14892555D02*
X10330207Y-14902079D01*
X10330207Y-14902079D02*
X10311160Y-14911603D01*
X10311160Y-14911603D02*
X10292112Y-14911603D01*
X10292112Y-14911603D02*
X10273065Y-14902079D01*
X10273065Y-14902079D02*
X10263541Y-14892555D01*
X10263541Y-14892555D02*
X10254017Y-14873507D01*
X10254017Y-14873507D02*
X10244493Y-14835412D01*
X10244493Y-14835412D02*
X10244493Y-14787793D01*
X10244493Y-14787793D02*
X10254017Y-14749698D01*
X10254017Y-14749698D02*
X10263541Y-14730650D01*
X10263541Y-14730650D02*
X10273065Y-14721127D01*
X10273065Y-14721127D02*
X10292112Y-14711603D01*
X10444493Y-14892555D02*
X10454017Y-14902079D01*
X10454017Y-14902079D02*
X10444493Y-14911603D01*
X10444493Y-14911603D02*
X10434969Y-14902079D01*
X10434969Y-14902079D02*
X10444493Y-14892555D01*
X10444493Y-14892555D02*
X10444493Y-14911603D01*
X10577826Y-14711603D02*
X10596874Y-14711603D01*
X10596874Y-14711603D02*
X10615922Y-14721127D01*
X10615922Y-14721127D02*
X10625446Y-14730650D01*
X10625446Y-14730650D02*
X10634969Y-14749698D01*
X10634969Y-14749698D02*
X10644493Y-14787793D01*
X10644493Y-14787793D02*
X10644493Y-14835412D01*
X10644493Y-14835412D02*
X10634969Y-14873507D01*
X10634969Y-14873507D02*
X10625446Y-14892555D01*
X10625446Y-14892555D02*
X10615922Y-14902079D01*
X10615922Y-14902079D02*
X10596874Y-14911603D01*
X10596874Y-14911603D02*
X10577826Y-14911603D01*
X10577826Y-14911603D02*
X10558779Y-14902079D01*
X10558779Y-14902079D02*
X10549255Y-14892555D01*
X10549255Y-14892555D02*
X10539731Y-14873507D01*
X10539731Y-14873507D02*
X10530207Y-14835412D01*
X10530207Y-14835412D02*
X10530207Y-14787793D01*
X10530207Y-14787793D02*
X10539731Y-14749698D01*
X10539731Y-14749698D02*
X10549255Y-14730650D01*
X10549255Y-14730650D02*
X10558779Y-14721127D01*
X10558779Y-14721127D02*
X10577826Y-14711603D01*
X10720684Y-14730650D02*
X10730207Y-14721127D01*
X10730207Y-14721127D02*
X10749255Y-14711603D01*
X10749255Y-14711603D02*
X10796874Y-14711603D01*
X10796874Y-14711603D02*
X10815922Y-14721127D01*
X10815922Y-14721127D02*
X10825446Y-14730650D01*
X10825446Y-14730650D02*
X10834969Y-14749698D01*
X10834969Y-14749698D02*
X10834969Y-14768746D01*
X10834969Y-14768746D02*
X10825446Y-14797317D01*
X10825446Y-14797317D02*
X10711160Y-14911603D01*
X10711160Y-14911603D02*
X10834969Y-14911603D01*
X10901636Y-14711603D02*
X11025446Y-14711603D01*
X11025446Y-14711603D02*
X10958779Y-14787793D01*
X10958779Y-14787793D02*
X10987350Y-14787793D01*
X10987350Y-14787793D02*
X11006398Y-14797317D01*
X11006398Y-14797317D02*
X11015922Y-14806841D01*
X11015922Y-14806841D02*
X11025446Y-14825888D01*
X11025446Y-14825888D02*
X11025446Y-14873507D01*
X11025446Y-14873507D02*
X11015922Y-14892555D01*
X11015922Y-14892555D02*
X11006398Y-14902079D01*
X11006398Y-14902079D02*
X10987350Y-14911603D01*
X10987350Y-14911603D02*
X10930207Y-14911603D01*
X10930207Y-14911603D02*
X10911160Y-14902079D01*
X10911160Y-14902079D02*
X10901636Y-14892555D01*
X11196874Y-14711603D02*
X11158779Y-14711603D01*
X11158779Y-14711603D02*
X11139731Y-14721127D01*
X11139731Y-14721127D02*
X11130207Y-14730650D01*
X11130207Y-14730650D02*
X11111160Y-14759222D01*
X11111160Y-14759222D02*
X11101636Y-14797317D01*
X11101636Y-14797317D02*
X11101636Y-14873507D01*
X11101636Y-14873507D02*
X11111160Y-14892555D01*
X11111160Y-14892555D02*
X11120684Y-14902079D01*
X11120684Y-14902079D02*
X11139731Y-14911603D01*
X11139731Y-14911603D02*
X11177827Y-14911603D01*
X11177827Y-14911603D02*
X11196874Y-14902079D01*
X11196874Y-14902079D02*
X11206398Y-14892555D01*
X11206398Y-14892555D02*
X11215922Y-14873507D01*
X11215922Y-14873507D02*
X11215922Y-14825888D01*
X11215922Y-14825888D02*
X11206398Y-14806841D01*
X11206398Y-14806841D02*
X11196874Y-14797317D01*
X11196874Y-14797317D02*
X11177827Y-14787793D01*
X11177827Y-14787793D02*
X11139731Y-14787793D01*
X11139731Y-14787793D02*
X11120684Y-14797317D01*
X11120684Y-14797317D02*
X11111160Y-14806841D01*
X11111160Y-14806841D02*
X11101636Y-14825888D01*
X11292112Y-14711603D02*
X11292112Y-14749698D01*
X11368303Y-14711603D02*
X11368303Y-14749698D01*
X11663541Y-14987793D02*
X11654017Y-14978269D01*
X11654017Y-14978269D02*
X11634969Y-14949698D01*
X11634969Y-14949698D02*
X11625446Y-14930650D01*
X11625446Y-14930650D02*
X11615922Y-14902079D01*
X11615922Y-14902079D02*
X11606398Y-14854460D01*
X11606398Y-14854460D02*
X11606398Y-14816365D01*
X11606398Y-14816365D02*
X11615922Y-14768746D01*
X11615922Y-14768746D02*
X11625446Y-14740174D01*
X11625446Y-14740174D02*
X11634969Y-14721127D01*
X11634969Y-14721127D02*
X11654017Y-14692555D01*
X11654017Y-14692555D02*
X11663541Y-14683031D01*
X11777826Y-14711603D02*
X11796874Y-14711603D01*
X11796874Y-14711603D02*
X11815922Y-14721127D01*
X11815922Y-14721127D02*
X11825446Y-14730650D01*
X11825446Y-14730650D02*
X11834969Y-14749698D01*
X11834969Y-14749698D02*
X11844493Y-14787793D01*
X11844493Y-14787793D02*
X11844493Y-14835412D01*
X11844493Y-14835412D02*
X11834969Y-14873507D01*
X11834969Y-14873507D02*
X11825446Y-14892555D01*
X11825446Y-14892555D02*
X11815922Y-14902079D01*
X11815922Y-14902079D02*
X11796874Y-14911603D01*
X11796874Y-14911603D02*
X11777826Y-14911603D01*
X11777826Y-14911603D02*
X11758779Y-14902079D01*
X11758779Y-14902079D02*
X11749255Y-14892555D01*
X11749255Y-14892555D02*
X11739731Y-14873507D01*
X11739731Y-14873507D02*
X11730207Y-14835412D01*
X11730207Y-14835412D02*
X11730207Y-14787793D01*
X11730207Y-14787793D02*
X11739731Y-14749698D01*
X11739731Y-14749698D02*
X11749255Y-14730650D01*
X11749255Y-14730650D02*
X11758779Y-14721127D01*
X11758779Y-14721127D02*
X11777826Y-14711603D01*
X12082588Y-14911603D02*
X12082588Y-14711603D01*
X12168303Y-14911603D02*
X12168303Y-14806841D01*
X12168303Y-14806841D02*
X12158779Y-14787793D01*
X12158779Y-14787793D02*
X12139731Y-14778269D01*
X12139731Y-14778269D02*
X12111160Y-14778269D01*
X12111160Y-14778269D02*
X12092112Y-14787793D01*
X12092112Y-14787793D02*
X12082588Y-14797317D01*
X12292112Y-14911603D02*
X12273065Y-14902079D01*
X12273065Y-14902079D02*
X12263541Y-14892555D01*
X12263541Y-14892555D02*
X12254017Y-14873507D01*
X12254017Y-14873507D02*
X12254017Y-14816365D01*
X12254017Y-14816365D02*
X12263541Y-14797317D01*
X12263541Y-14797317D02*
X12273065Y-14787793D01*
X12273065Y-14787793D02*
X12292112Y-14778269D01*
X12292112Y-14778269D02*
X12320684Y-14778269D01*
X12320684Y-14778269D02*
X12339731Y-14787793D01*
X12339731Y-14787793D02*
X12349255Y-14797317D01*
X12349255Y-14797317D02*
X12358779Y-14816365D01*
X12358779Y-14816365D02*
X12358779Y-14873507D01*
X12358779Y-14873507D02*
X12349255Y-14892555D01*
X12349255Y-14892555D02*
X12339731Y-14902079D01*
X12339731Y-14902079D02*
X12320684Y-14911603D01*
X12320684Y-14911603D02*
X12292112Y-14911603D01*
X12473065Y-14911603D02*
X12454017Y-14902079D01*
X12454017Y-14902079D02*
X12444493Y-14883031D01*
X12444493Y-14883031D02*
X12444493Y-14711603D01*
X12625446Y-14902079D02*
X12606398Y-14911603D01*
X12606398Y-14911603D02*
X12568303Y-14911603D01*
X12568303Y-14911603D02*
X12549255Y-14902079D01*
X12549255Y-14902079D02*
X12539731Y-14883031D01*
X12539731Y-14883031D02*
X12539731Y-14806841D01*
X12539731Y-14806841D02*
X12549255Y-14787793D01*
X12549255Y-14787793D02*
X12568303Y-14778269D01*
X12568303Y-14778269D02*
X12606398Y-14778269D01*
X12606398Y-14778269D02*
X12625446Y-14787793D01*
X12625446Y-14787793D02*
X12634969Y-14806841D01*
X12634969Y-14806841D02*
X12634969Y-14825888D01*
X12634969Y-14825888D02*
X12539731Y-14844936D01*
X12711160Y-14902079D02*
X12730208Y-14911603D01*
X12730208Y-14911603D02*
X12768303Y-14911603D01*
X12768303Y-14911603D02*
X12787350Y-14902079D01*
X12787350Y-14902079D02*
X12796874Y-14883031D01*
X12796874Y-14883031D02*
X12796874Y-14873507D01*
X12796874Y-14873507D02*
X12787350Y-14854460D01*
X12787350Y-14854460D02*
X12768303Y-14844936D01*
X12768303Y-14844936D02*
X12739731Y-14844936D01*
X12739731Y-14844936D02*
X12720684Y-14835412D01*
X12720684Y-14835412D02*
X12711160Y-14816365D01*
X12711160Y-14816365D02*
X12711160Y-14806841D01*
X12711160Y-14806841D02*
X12720684Y-14787793D01*
X12720684Y-14787793D02*
X12739731Y-14778269D01*
X12739731Y-14778269D02*
X12768303Y-14778269D01*
X12768303Y-14778269D02*
X12787350Y-14787793D01*
X13034970Y-14835412D02*
X13187351Y-14835412D01*
X13111160Y-14911603D02*
X13111160Y-14759222D01*
X13520684Y-14778269D02*
X13520684Y-14911603D01*
X13473065Y-14702079D02*
X13425446Y-14844936D01*
X13425446Y-14844936D02*
X13549255Y-14844936D01*
X13768303Y-14902079D02*
X13787351Y-14911603D01*
X13787351Y-14911603D02*
X13825446Y-14911603D01*
X13825446Y-14911603D02*
X13844493Y-14902079D01*
X13844493Y-14902079D02*
X13854017Y-14883031D01*
X13854017Y-14883031D02*
X13854017Y-14873507D01*
X13854017Y-14873507D02*
X13844493Y-14854460D01*
X13844493Y-14854460D02*
X13825446Y-14844936D01*
X13825446Y-14844936D02*
X13796874Y-14844936D01*
X13796874Y-14844936D02*
X13777827Y-14835412D01*
X13777827Y-14835412D02*
X13768303Y-14816365D01*
X13768303Y-14816365D02*
X13768303Y-14806841D01*
X13768303Y-14806841D02*
X13777827Y-14787793D01*
X13777827Y-14787793D02*
X13796874Y-14778269D01*
X13796874Y-14778269D02*
X13825446Y-14778269D01*
X13825446Y-14778269D02*
X13844493Y-14787793D01*
X13968303Y-14911603D02*
X13949255Y-14902079D01*
X13949255Y-14902079D02*
X13939732Y-14883031D01*
X13939732Y-14883031D02*
X13939732Y-14711603D01*
X14073065Y-14911603D02*
X14054017Y-14902079D01*
X14054017Y-14902079D02*
X14044493Y-14892555D01*
X14044493Y-14892555D02*
X14034970Y-14873507D01*
X14034970Y-14873507D02*
X14034970Y-14816365D01*
X14034970Y-14816365D02*
X14044493Y-14797317D01*
X14044493Y-14797317D02*
X14054017Y-14787793D01*
X14054017Y-14787793D02*
X14073065Y-14778269D01*
X14073065Y-14778269D02*
X14101636Y-14778269D01*
X14101636Y-14778269D02*
X14120684Y-14787793D01*
X14120684Y-14787793D02*
X14130208Y-14797317D01*
X14130208Y-14797317D02*
X14139732Y-14816365D01*
X14139732Y-14816365D02*
X14139732Y-14873507D01*
X14139732Y-14873507D02*
X14130208Y-14892555D01*
X14130208Y-14892555D02*
X14120684Y-14902079D01*
X14120684Y-14902079D02*
X14101636Y-14911603D01*
X14101636Y-14911603D02*
X14073065Y-14911603D01*
X14196874Y-14778269D02*
X14273065Y-14778269D01*
X14225446Y-14711603D02*
X14225446Y-14883031D01*
X14225446Y-14883031D02*
X14234970Y-14902079D01*
X14234970Y-14902079D02*
X14254017Y-14911603D01*
X14254017Y-14911603D02*
X14273065Y-14911603D01*
X14330208Y-14902079D02*
X14349255Y-14911603D01*
X14349255Y-14911603D02*
X14387351Y-14911603D01*
X14387351Y-14911603D02*
X14406398Y-14902079D01*
X14406398Y-14902079D02*
X14415922Y-14883031D01*
X14415922Y-14883031D02*
X14415922Y-14873507D01*
X14415922Y-14873507D02*
X14406398Y-14854460D01*
X14406398Y-14854460D02*
X14387351Y-14844936D01*
X14387351Y-14844936D02*
X14358779Y-14844936D01*
X14358779Y-14844936D02*
X14339732Y-14835412D01*
X14339732Y-14835412D02*
X14330208Y-14816365D01*
X14330208Y-14816365D02*
X14330208Y-14806841D01*
X14330208Y-14806841D02*
X14339732Y-14787793D01*
X14339732Y-14787793D02*
X14358779Y-14778269D01*
X14358779Y-14778269D02*
X14387351Y-14778269D01*
X14387351Y-14778269D02*
X14406398Y-14787793D01*
X14482589Y-14987793D02*
X14492113Y-14978269D01*
X14492113Y-14978269D02*
X14511160Y-14949698D01*
X14511160Y-14949698D02*
X14520684Y-14930650D01*
X14520684Y-14930650D02*
X14530208Y-14902079D01*
X14530208Y-14902079D02*
X14539732Y-14854460D01*
X14539732Y-14854460D02*
X14539732Y-14816365D01*
X14539732Y-14816365D02*
X14530208Y-14768746D01*
X14530208Y-14768746D02*
X14520684Y-14740174D01*
X14520684Y-14740174D02*
X14511160Y-14721127D01*
X14511160Y-14721127D02*
X14492113Y-14692555D01*
X14492113Y-14692555D02*
X14482589Y-14683031D01*
D12*
X8073834Y-15119475D02*
X8073834Y-15048763D01*
X8003122Y-15048763D01*
X8003122Y-15119475D01*
X8073834Y-15119475D01*
D11*
X8454017Y-15175603D02*
X8339731Y-15175603D01*
X8396874Y-15175603D02*
X8396874Y-14975603D01*
X8396874Y-14975603D02*
X8377826Y-15004174D01*
X8377826Y-15004174D02*
X8358779Y-15023222D01*
X8358779Y-15023222D02*
X8339731Y-15032746D01*
X8539731Y-15156555D02*
X8549255Y-15166079D01*
X8549255Y-15166079D02*
X8539731Y-15175603D01*
X8539731Y-15175603D02*
X8530207Y-15166079D01*
X8530207Y-15166079D02*
X8539731Y-15156555D01*
X8539731Y-15156555D02*
X8539731Y-15175603D01*
X8673064Y-14975603D02*
X8692112Y-14975603D01*
X8692112Y-14975603D02*
X8711160Y-14985127D01*
X8711160Y-14985127D02*
X8720683Y-14994650D01*
X8720683Y-14994650D02*
X8730207Y-15013698D01*
X8730207Y-15013698D02*
X8739731Y-15051793D01*
X8739731Y-15051793D02*
X8739731Y-15099412D01*
X8739731Y-15099412D02*
X8730207Y-15137507D01*
X8730207Y-15137507D02*
X8720683Y-15156555D01*
X8720683Y-15156555D02*
X8711160Y-15166079D01*
X8711160Y-15166079D02*
X8692112Y-15175603D01*
X8692112Y-15175603D02*
X8673064Y-15175603D01*
X8673064Y-15175603D02*
X8654017Y-15166079D01*
X8654017Y-15166079D02*
X8644493Y-15156555D01*
X8644493Y-15156555D02*
X8634969Y-15137507D01*
X8634969Y-15137507D02*
X8625445Y-15099412D01*
X8625445Y-15099412D02*
X8625445Y-15051793D01*
X8625445Y-15051793D02*
X8634969Y-15013698D01*
X8634969Y-15013698D02*
X8644493Y-14994650D01*
X8644493Y-14994650D02*
X8654017Y-14985127D01*
X8654017Y-14985127D02*
X8673064Y-14975603D01*
X8863541Y-14975603D02*
X8882588Y-14975603D01*
X8882588Y-14975603D02*
X8901636Y-14985127D01*
X8901636Y-14985127D02*
X8911160Y-14994650D01*
X8911160Y-14994650D02*
X8920683Y-15013698D01*
X8920683Y-15013698D02*
X8930207Y-15051793D01*
X8930207Y-15051793D02*
X8930207Y-15099412D01*
X8930207Y-15099412D02*
X8920683Y-15137507D01*
X8920683Y-15137507D02*
X8911160Y-15156555D01*
X8911160Y-15156555D02*
X8901636Y-15166079D01*
X8901636Y-15166079D02*
X8882588Y-15175603D01*
X8882588Y-15175603D02*
X8863541Y-15175603D01*
X8863541Y-15175603D02*
X8844493Y-15166079D01*
X8844493Y-15166079D02*
X8834969Y-15156555D01*
X8834969Y-15156555D02*
X8825445Y-15137507D01*
X8825445Y-15137507D02*
X8815922Y-15099412D01*
X8815922Y-15099412D02*
X8815922Y-15051793D01*
X8815922Y-15051793D02*
X8825445Y-15013698D01*
X8825445Y-15013698D02*
X8834969Y-14994650D01*
X8834969Y-14994650D02*
X8844493Y-14985127D01*
X8844493Y-14985127D02*
X8863541Y-14975603D01*
X9054017Y-14975603D02*
X9073064Y-14975603D01*
X9073064Y-14975603D02*
X9092112Y-14985127D01*
X9092112Y-14985127D02*
X9101636Y-14994650D01*
X9101636Y-14994650D02*
X9111160Y-15013698D01*
X9111160Y-15013698D02*
X9120683Y-15051793D01*
X9120683Y-15051793D02*
X9120683Y-15099412D01*
X9120683Y-15099412D02*
X9111160Y-15137507D01*
X9111160Y-15137507D02*
X9101636Y-15156555D01*
X9101636Y-15156555D02*
X9092112Y-15166079D01*
X9092112Y-15166079D02*
X9073064Y-15175603D01*
X9073064Y-15175603D02*
X9054017Y-15175603D01*
X9054017Y-15175603D02*
X9034969Y-15166079D01*
X9034969Y-15166079D02*
X9025445Y-15156555D01*
X9025445Y-15156555D02*
X9015922Y-15137507D01*
X9015922Y-15137507D02*
X9006398Y-15099412D01*
X9006398Y-15099412D02*
X9006398Y-15051793D01*
X9006398Y-15051793D02*
X9015922Y-15013698D01*
X9015922Y-15013698D02*
X9025445Y-14994650D01*
X9025445Y-14994650D02*
X9034969Y-14985127D01*
X9034969Y-14985127D02*
X9054017Y-14975603D01*
X9206398Y-15175603D02*
X9206398Y-15042269D01*
X9206398Y-15061317D02*
X9215922Y-15051793D01*
X9215922Y-15051793D02*
X9234969Y-15042269D01*
X9234969Y-15042269D02*
X9263541Y-15042269D01*
X9263541Y-15042269D02*
X9282588Y-15051793D01*
X9282588Y-15051793D02*
X9292112Y-15070841D01*
X9292112Y-15070841D02*
X9292112Y-15175603D01*
X9292112Y-15070841D02*
X9301636Y-15051793D01*
X9301636Y-15051793D02*
X9320683Y-15042269D01*
X9320683Y-15042269D02*
X9349255Y-15042269D01*
X9349255Y-15042269D02*
X9368303Y-15051793D01*
X9368303Y-15051793D02*
X9377826Y-15070841D01*
X9377826Y-15070841D02*
X9377826Y-15175603D01*
X9473064Y-15175603D02*
X9473064Y-15042269D01*
X9473064Y-15061317D02*
X9482588Y-15051793D01*
X9482588Y-15051793D02*
X9501636Y-15042269D01*
X9501636Y-15042269D02*
X9530207Y-15042269D01*
X9530207Y-15042269D02*
X9549255Y-15051793D01*
X9549255Y-15051793D02*
X9558779Y-15070841D01*
X9558779Y-15070841D02*
X9558779Y-15175603D01*
X9558779Y-15070841D02*
X9568303Y-15051793D01*
X9568303Y-15051793D02*
X9587350Y-15042269D01*
X9587350Y-15042269D02*
X9615922Y-15042269D01*
X9615922Y-15042269D02*
X9634969Y-15051793D01*
X9634969Y-15051793D02*
X9644493Y-15070841D01*
X9644493Y-15070841D02*
X9644493Y-15175603D01*
X10034969Y-14966079D02*
X9863541Y-15223222D01*
X10292112Y-14975603D02*
X10311160Y-14975603D01*
X10311160Y-14975603D02*
X10330207Y-14985127D01*
X10330207Y-14985127D02*
X10339731Y-14994650D01*
X10339731Y-14994650D02*
X10349255Y-15013698D01*
X10349255Y-15013698D02*
X10358779Y-15051793D01*
X10358779Y-15051793D02*
X10358779Y-15099412D01*
X10358779Y-15099412D02*
X10349255Y-15137507D01*
X10349255Y-15137507D02*
X10339731Y-15156555D01*
X10339731Y-15156555D02*
X10330207Y-15166079D01*
X10330207Y-15166079D02*
X10311160Y-15175603D01*
X10311160Y-15175603D02*
X10292112Y-15175603D01*
X10292112Y-15175603D02*
X10273065Y-15166079D01*
X10273065Y-15166079D02*
X10263541Y-15156555D01*
X10263541Y-15156555D02*
X10254017Y-15137507D01*
X10254017Y-15137507D02*
X10244493Y-15099412D01*
X10244493Y-15099412D02*
X10244493Y-15051793D01*
X10244493Y-15051793D02*
X10254017Y-15013698D01*
X10254017Y-15013698D02*
X10263541Y-14994650D01*
X10263541Y-14994650D02*
X10273065Y-14985127D01*
X10273065Y-14985127D02*
X10292112Y-14975603D01*
X10444493Y-15156555D02*
X10454017Y-15166079D01*
X10454017Y-15166079D02*
X10444493Y-15175603D01*
X10444493Y-15175603D02*
X10434969Y-15166079D01*
X10434969Y-15166079D02*
X10444493Y-15156555D01*
X10444493Y-15156555D02*
X10444493Y-15175603D01*
X10577826Y-14975603D02*
X10596874Y-14975603D01*
X10596874Y-14975603D02*
X10615922Y-14985127D01*
X10615922Y-14985127D02*
X10625446Y-14994650D01*
X10625446Y-14994650D02*
X10634969Y-15013698D01*
X10634969Y-15013698D02*
X10644493Y-15051793D01*
X10644493Y-15051793D02*
X10644493Y-15099412D01*
X10644493Y-15099412D02*
X10634969Y-15137507D01*
X10634969Y-15137507D02*
X10625446Y-15156555D01*
X10625446Y-15156555D02*
X10615922Y-15166079D01*
X10615922Y-15166079D02*
X10596874Y-15175603D01*
X10596874Y-15175603D02*
X10577826Y-15175603D01*
X10577826Y-15175603D02*
X10558779Y-15166079D01*
X10558779Y-15166079D02*
X10549255Y-15156555D01*
X10549255Y-15156555D02*
X10539731Y-15137507D01*
X10539731Y-15137507D02*
X10530207Y-15099412D01*
X10530207Y-15099412D02*
X10530207Y-15051793D01*
X10530207Y-15051793D02*
X10539731Y-15013698D01*
X10539731Y-15013698D02*
X10549255Y-14994650D01*
X10549255Y-14994650D02*
X10558779Y-14985127D01*
X10558779Y-14985127D02*
X10577826Y-14975603D01*
X10711160Y-14975603D02*
X10834969Y-14975603D01*
X10834969Y-14975603D02*
X10768303Y-15051793D01*
X10768303Y-15051793D02*
X10796874Y-15051793D01*
X10796874Y-15051793D02*
X10815922Y-15061317D01*
X10815922Y-15061317D02*
X10825446Y-15070841D01*
X10825446Y-15070841D02*
X10834969Y-15089888D01*
X10834969Y-15089888D02*
X10834969Y-15137507D01*
X10834969Y-15137507D02*
X10825446Y-15156555D01*
X10825446Y-15156555D02*
X10815922Y-15166079D01*
X10815922Y-15166079D02*
X10796874Y-15175603D01*
X10796874Y-15175603D02*
X10739731Y-15175603D01*
X10739731Y-15175603D02*
X10720684Y-15166079D01*
X10720684Y-15166079D02*
X10711160Y-15156555D01*
X10930207Y-15175603D02*
X10968303Y-15175603D01*
X10968303Y-15175603D02*
X10987350Y-15166079D01*
X10987350Y-15166079D02*
X10996874Y-15156555D01*
X10996874Y-15156555D02*
X11015922Y-15127984D01*
X11015922Y-15127984D02*
X11025446Y-15089888D01*
X11025446Y-15089888D02*
X11025446Y-15013698D01*
X11025446Y-15013698D02*
X11015922Y-14994650D01*
X11015922Y-14994650D02*
X11006398Y-14985127D01*
X11006398Y-14985127D02*
X10987350Y-14975603D01*
X10987350Y-14975603D02*
X10949255Y-14975603D01*
X10949255Y-14975603D02*
X10930207Y-14985127D01*
X10930207Y-14985127D02*
X10920684Y-14994650D01*
X10920684Y-14994650D02*
X10911160Y-15013698D01*
X10911160Y-15013698D02*
X10911160Y-15061317D01*
X10911160Y-15061317D02*
X10920684Y-15080365D01*
X10920684Y-15080365D02*
X10930207Y-15089888D01*
X10930207Y-15089888D02*
X10949255Y-15099412D01*
X10949255Y-15099412D02*
X10987350Y-15099412D01*
X10987350Y-15099412D02*
X11006398Y-15089888D01*
X11006398Y-15089888D02*
X11015922Y-15080365D01*
X11015922Y-15080365D02*
X11025446Y-15061317D01*
X11196874Y-15042269D02*
X11196874Y-15175603D01*
X11149255Y-14966079D02*
X11101636Y-15108936D01*
X11101636Y-15108936D02*
X11225445Y-15108936D01*
X11292112Y-14975603D02*
X11292112Y-15013698D01*
X11368303Y-14975603D02*
X11368303Y-15013698D01*
X11663541Y-15251793D02*
X11654017Y-15242269D01*
X11654017Y-15242269D02*
X11634969Y-15213698D01*
X11634969Y-15213698D02*
X11625446Y-15194650D01*
X11625446Y-15194650D02*
X11615922Y-15166079D01*
X11615922Y-15166079D02*
X11606398Y-15118460D01*
X11606398Y-15118460D02*
X11606398Y-15080365D01*
X11606398Y-15080365D02*
X11615922Y-15032746D01*
X11615922Y-15032746D02*
X11625446Y-15004174D01*
X11625446Y-15004174D02*
X11634969Y-14985127D01*
X11634969Y-14985127D02*
X11654017Y-14956555D01*
X11654017Y-14956555D02*
X11663541Y-14947031D01*
X11844493Y-15175603D02*
X11730207Y-15175603D01*
X11787350Y-15175603D02*
X11787350Y-14975603D01*
X11787350Y-14975603D02*
X11768303Y-15004174D01*
X11768303Y-15004174D02*
X11749255Y-15023222D01*
X11749255Y-15023222D02*
X11730207Y-15032746D01*
X11920684Y-14994650D02*
X11930207Y-14985127D01*
X11930207Y-14985127D02*
X11949255Y-14975603D01*
X11949255Y-14975603D02*
X11996874Y-14975603D01*
X11996874Y-14975603D02*
X12015922Y-14985127D01*
X12015922Y-14985127D02*
X12025446Y-14994650D01*
X12025446Y-14994650D02*
X12034969Y-15013698D01*
X12034969Y-15013698D02*
X12034969Y-15032746D01*
X12034969Y-15032746D02*
X12025446Y-15061317D01*
X12025446Y-15061317D02*
X11911160Y-15175603D01*
X11911160Y-15175603D02*
X12034969Y-15175603D01*
X12273065Y-15175603D02*
X12273065Y-14975603D01*
X12358779Y-15175603D02*
X12358779Y-15070841D01*
X12358779Y-15070841D02*
X12349255Y-15051793D01*
X12349255Y-15051793D02*
X12330208Y-15042269D01*
X12330208Y-15042269D02*
X12301636Y-15042269D01*
X12301636Y-15042269D02*
X12282588Y-15051793D01*
X12282588Y-15051793D02*
X12273065Y-15061317D01*
X12482588Y-15175603D02*
X12463541Y-15166079D01*
X12463541Y-15166079D02*
X12454017Y-15156555D01*
X12454017Y-15156555D02*
X12444493Y-15137507D01*
X12444493Y-15137507D02*
X12444493Y-15080365D01*
X12444493Y-15080365D02*
X12454017Y-15061317D01*
X12454017Y-15061317D02*
X12463541Y-15051793D01*
X12463541Y-15051793D02*
X12482588Y-15042269D01*
X12482588Y-15042269D02*
X12511160Y-15042269D01*
X12511160Y-15042269D02*
X12530208Y-15051793D01*
X12530208Y-15051793D02*
X12539731Y-15061317D01*
X12539731Y-15061317D02*
X12549255Y-15080365D01*
X12549255Y-15080365D02*
X12549255Y-15137507D01*
X12549255Y-15137507D02*
X12539731Y-15156555D01*
X12539731Y-15156555D02*
X12530208Y-15166079D01*
X12530208Y-15166079D02*
X12511160Y-15175603D01*
X12511160Y-15175603D02*
X12482588Y-15175603D01*
X12663541Y-15175603D02*
X12644493Y-15166079D01*
X12644493Y-15166079D02*
X12634969Y-15147031D01*
X12634969Y-15147031D02*
X12634969Y-14975603D01*
X12815922Y-15166079D02*
X12796874Y-15175603D01*
X12796874Y-15175603D02*
X12758779Y-15175603D01*
X12758779Y-15175603D02*
X12739731Y-15166079D01*
X12739731Y-15166079D02*
X12730208Y-15147031D01*
X12730208Y-15147031D02*
X12730208Y-15070841D01*
X12730208Y-15070841D02*
X12739731Y-15051793D01*
X12739731Y-15051793D02*
X12758779Y-15042269D01*
X12758779Y-15042269D02*
X12796874Y-15042269D01*
X12796874Y-15042269D02*
X12815922Y-15051793D01*
X12815922Y-15051793D02*
X12825446Y-15070841D01*
X12825446Y-15070841D02*
X12825446Y-15089888D01*
X12825446Y-15089888D02*
X12730208Y-15108936D01*
X12901636Y-15166079D02*
X12920684Y-15175603D01*
X12920684Y-15175603D02*
X12958779Y-15175603D01*
X12958779Y-15175603D02*
X12977827Y-15166079D01*
X12977827Y-15166079D02*
X12987350Y-15147031D01*
X12987350Y-15147031D02*
X12987350Y-15137507D01*
X12987350Y-15137507D02*
X12977827Y-15118460D01*
X12977827Y-15118460D02*
X12958779Y-15108936D01*
X12958779Y-15108936D02*
X12930208Y-15108936D01*
X12930208Y-15108936D02*
X12911160Y-15099412D01*
X12911160Y-15099412D02*
X12901636Y-15080365D01*
X12901636Y-15080365D02*
X12901636Y-15070841D01*
X12901636Y-15070841D02*
X12911160Y-15051793D01*
X12911160Y-15051793D02*
X12930208Y-15042269D01*
X12930208Y-15042269D02*
X12958779Y-15042269D01*
X12958779Y-15042269D02*
X12977827Y-15051793D01*
X13054017Y-15251793D02*
X13063541Y-15242269D01*
X13063541Y-15242269D02*
X13082589Y-15213698D01*
X13082589Y-15213698D02*
X13092112Y-15194650D01*
X13092112Y-15194650D02*
X13101636Y-15166079D01*
X13101636Y-15166079D02*
X13111160Y-15118460D01*
X13111160Y-15118460D02*
X13111160Y-15080365D01*
X13111160Y-15080365D02*
X13101636Y-15032746D01*
X13101636Y-15032746D02*
X13092112Y-15004174D01*
X13092112Y-15004174D02*
X13082589Y-14985127D01*
X13082589Y-14985127D02*
X13063541Y-14956555D01*
X13063541Y-14956555D02*
X13054017Y-14947031D01*
M02*
