G04 #@! TF.GenerationSoftware,KiCad,Pcbnew,8.99.0-1558-g48f6f837a1*
G04 #@! TF.CreationDate,2024-07-10T16:23:39+03:00*
G04 #@! TF.ProjectId,ESP32 drone,45535033-3220-4647-926f-6e652e6b6963,rev?*
G04 #@! TF.SameCoordinates,Original*
G04 #@! TF.FileFunction,Legend,Top*
G04 #@! TF.FilePolarity,Positive*
%FSLAX46Y46*%
G04 Gerber Fmt 4.6, Leading zero omitted, Abs format (unit mm)*
G04 Created by KiCad (PCBNEW 8.99.0-1558-g48f6f837a1) date 2024-07-10 16:23:39*
%MOMM*%
%LPD*%
G01*
G04 APERTURE LIST*
G04 Aperture macros list*
%AMRoundRect*
0 Rectangle with rounded corners*
0 $1 Rounding radius*
0 $2 $3 $4 $5 $6 $7 $8 $9 X,Y pos of 4 corners*
0 Add a 4 corners polygon primitive as box body*
4,1,4,$2,$3,$4,$5,$6,$7,$8,$9,$2,$3,0*
0 Add four circle primitives for the rounded corners*
1,1,$1+$1,$2,$3*
1,1,$1+$1,$4,$5*
1,1,$1+$1,$6,$7*
1,1,$1+$1,$8,$9*
0 Add four rect primitives between the rounded corners*
20,1,$1+$1,$2,$3,$4,$5,0*
20,1,$1+$1,$4,$5,$6,$7,0*
20,1,$1+$1,$6,$7,$8,$9,0*
20,1,$1+$1,$8,$9,$2,$3,0*%
%AMRotRect*
0 Rectangle, with rotation*
0 The origin of the aperture is its center*
0 $1 length*
0 $2 width*
0 $3 Rotation angle, in degrees counterclockwise*
0 Add horizontal line*
21,1,$1,$2,0,0,$3*%
G04 Aperture macros list end*
%ADD10C,0.120000*%
%ADD11C,0.200000*%
%ADD12C,0.127000*%
%ADD13C,0.000000*%
%ADD14C,0.300000*%
%ADD15RoundRect,0.200000X-0.275000X0.200000X-0.275000X-0.200000X0.275000X-0.200000X0.275000X0.200000X0*%
%ADD16R,0.600000X1.300000*%
%ADD17RoundRect,0.225000X0.250000X-0.225000X0.250000X0.225000X-0.250000X0.225000X-0.250000X-0.225000X0*%
%ADD18RoundRect,0.200000X0.200000X0.275000X-0.200000X0.275000X-0.200000X-0.275000X0.200000X-0.275000X0*%
%ADD19RoundRect,0.200000X-0.200000X-0.275000X0.200000X-0.275000X0.200000X0.275000X-0.200000X0.275000X0*%
%ADD20RoundRect,0.250000X-0.250000X-0.475000X0.250000X-0.475000X0.250000X0.475000X-0.250000X0.475000X0*%
%ADD21C,0.650000*%
%ADD22R,0.600000X1.450000*%
%ADD23R,0.300000X1.450000*%
%ADD24O,1.000000X2.100000*%
%ADD25O,1.000000X1.600000*%
%ADD26R,0.650000X0.400000*%
%ADD27RoundRect,0.102000X0.395000X0.140000X-0.395000X0.140000X-0.395000X-0.140000X0.395000X-0.140000X0*%
%ADD28RoundRect,0.102000X0.140000X0.395000X-0.140000X0.395000X-0.140000X-0.395000X0.140000X-0.395000X0*%
%ADD29RoundRect,0.218750X0.218750X0.256250X-0.218750X0.256250X-0.218750X-0.256250X0.218750X-0.256250X0*%
%ADD30RoundRect,0.225000X-0.225000X-0.250000X0.225000X-0.250000X0.225000X0.250000X-0.225000X0.250000X0*%
%ADD31RoundRect,0.218750X0.256250X-0.218750X0.256250X0.218750X-0.256250X0.218750X-0.256250X-0.218750X0*%
%ADD32RoundRect,0.218750X-0.218750X-0.256250X0.218750X-0.256250X0.218750X0.256250X-0.218750X0.256250X0*%
%ADD33RoundRect,0.062500X0.337500X0.062500X-0.337500X0.062500X-0.337500X-0.062500X0.337500X-0.062500X0*%
%ADD34RoundRect,0.062500X0.062500X0.337500X-0.062500X0.337500X-0.062500X-0.337500X0.062500X-0.337500X0*%
%ADD35R,3.350000X3.350000*%
%ADD36R,1.500000X0.900000*%
%ADD37R,0.900000X1.500000*%
%ADD38C,0.600000*%
%ADD39R,4.200000X4.200000*%
%ADD40RoundRect,0.225000X0.225000X0.250000X-0.225000X0.250000X-0.225000X-0.250000X0.225000X-0.250000X0*%
%ADD41C,0.900000*%
%ADD42RoundRect,0.102000X-0.350000X0.750000X-0.350000X-0.750000X0.350000X-0.750000X0.350000X0.750000X0*%
%ADD43RoundRect,0.102000X0.500000X0.400000X-0.500000X0.400000X-0.500000X-0.400000X0.500000X-0.400000X0*%
%ADD44RotRect,0.600000X0.450000X45.000000*%
%ADD45RoundRect,0.200000X0.275000X-0.200000X0.275000X0.200000X-0.275000X0.200000X-0.275000X-0.200000X0*%
%ADD46RoundRect,0.225000X-0.017678X0.335876X-0.335876X0.017678X0.017678X-0.335876X0.335876X-0.017678X0*%
%ADD47RoundRect,0.150000X-0.388909X0.601041X-0.601041X0.388909X0.388909X-0.601041X0.601041X-0.388909X0*%
%ADD48RoundRect,0.250000X-0.601041X0.954594X-0.954594X0.601041X0.601041X-0.954594X0.954594X-0.601041X0*%
%ADD49RotRect,0.600000X0.450000X225.000000*%
%ADD50RoundRect,0.150000X0.388909X-0.601041X0.601041X-0.388909X-0.388909X0.601041X-0.601041X0.388909X0*%
%ADD51RoundRect,0.250000X0.601041X-0.954594X0.954594X-0.601041X-0.601041X0.954594X-0.954594X0.601041X0*%
%ADD52R,0.450000X0.600000*%
%ADD53RoundRect,0.102000X-2.750000X0.500000X-2.750000X-0.500000X2.750000X-0.500000X2.750000X0.500000X0*%
%ADD54RoundRect,0.102000X-1.500000X-0.800000X1.500000X-0.800000X1.500000X0.800000X-1.500000X0.800000X0*%
%ADD55RoundRect,0.150000X-0.512500X-0.150000X0.512500X-0.150000X0.512500X0.150000X-0.512500X0.150000X0*%
%ADD56R,1.700000X1.700000*%
%ADD57O,1.700000X1.700000*%
%ADD58R,2.500000X1.800000*%
%ADD59RoundRect,0.225000X-0.250000X0.225000X-0.250000X-0.225000X0.250000X-0.225000X0.250000X0.225000X0*%
%ADD60RoundRect,0.100500X0.301500X-0.986500X0.301500X0.986500X-0.301500X0.986500X-0.301500X-0.986500X0*%
%ADD61RoundRect,0.102000X1.651000X-1.206500X1.651000X1.206500X-1.651000X1.206500X-1.651000X-1.206500X0*%
%ADD62RoundRect,0.150000X0.601041X0.388909X0.388909X0.601041X-0.601041X-0.388909X-0.388909X-0.601041X0*%
%ADD63RoundRect,0.250000X0.954594X0.601041X0.601041X0.954594X-0.954594X-0.601041X-0.601041X-0.954594X0*%
%ADD64RoundRect,0.150000X-0.587500X-0.150000X0.587500X-0.150000X0.587500X0.150000X-0.587500X0.150000X0*%
%ADD65RoundRect,0.150000X-0.601041X-0.388909X-0.388909X-0.601041X0.601041X0.388909X0.388909X0.601041X0*%
%ADD66RoundRect,0.250000X-0.954594X-0.601041X-0.601041X-0.954594X0.954594X0.601041X0.601041X0.954594X0*%
%ADD67RotRect,0.600000X0.450000X135.000000*%
G04 #@! TA.AperFunction,Profile*
%ADD68C,0.025400*%
G04 #@! TD*
G04 APERTURE END LIST*
D10*
X110558050Y-85816672D02*
X110558050Y-86291188D01*
X111603050Y-85816672D02*
X111603050Y-86291188D01*
D11*
X108951260Y-97722220D02*
X111871260Y-97722220D01*
X108951260Y-97822220D02*
X108951260Y-97722220D01*
X111871260Y-97722220D02*
X111871260Y-97822220D01*
X111871260Y-97822220D02*
X108951260Y-97822220D01*
X111911260Y-96072220D02*
X111911260Y-97372220D01*
D10*
X123866180Y-75576040D02*
X123866180Y-75294880D01*
X124886180Y-75576040D02*
X124886180Y-75294880D01*
X144380490Y-107453040D02*
X144380490Y-107171880D01*
X145400490Y-107453040D02*
X145400490Y-107171880D01*
X139519428Y-75409530D02*
X139044912Y-75409530D01*
X139519428Y-76454530D02*
X139044912Y-76454530D01*
X135740372Y-84573850D02*
X136214888Y-84573850D01*
X135740372Y-85618850D02*
X136214888Y-85618850D01*
X126069630Y-86017980D02*
X126069630Y-85736820D01*
X127089630Y-86017980D02*
X127089630Y-85736820D01*
X110558050Y-88916742D02*
X110558050Y-89391258D01*
X111603050Y-88916742D02*
X111603050Y-89391258D01*
X120002068Y-75095840D02*
X119527552Y-75095840D01*
X120002068Y-76140840D02*
X119527552Y-76140840D01*
X142404198Y-78829230D02*
X142926702Y-78829230D01*
X142404198Y-80299230D02*
X142926702Y-80299230D01*
X142815078Y-105589810D02*
X142340562Y-105589810D01*
X142815078Y-106634810D02*
X142340562Y-106634810D01*
X132726198Y-79119200D02*
X132251682Y-79119200D01*
X132726198Y-80164200D02*
X132251682Y-80164200D01*
X126870730Y-66124070D02*
X126870730Y-64224070D01*
X126870730Y-70024070D02*
X126870730Y-68024070D01*
X136270730Y-64224070D02*
X126870730Y-64224070D01*
X136270730Y-66124070D02*
X136270730Y-64224070D01*
X136270730Y-70024070D02*
X136270730Y-68024070D01*
X121951518Y-86713800D02*
X121477002Y-86713800D01*
X121951518Y-87758800D02*
X121477002Y-87758800D01*
X114751890Y-85184470D02*
X116151890Y-85184470D01*
X116151890Y-82864470D02*
X114251890Y-82864470D01*
D12*
X128960940Y-81935420D02*
X128960940Y-82230420D01*
X128960940Y-81935420D02*
X129255940Y-81935420D01*
X128960940Y-85935420D02*
X128960940Y-85640420D01*
X128960940Y-85935420D02*
X129255940Y-85935420D01*
X132960940Y-81935420D02*
X132665940Y-81935420D01*
X132960940Y-81935420D02*
X132960940Y-82230420D01*
X132960940Y-85935420D02*
X132665940Y-85935420D01*
X132960940Y-85935420D02*
X132960940Y-85640420D01*
D11*
X134060940Y-85185420D02*
G75*
G02*
X133860940Y-85185420I-100000J0D01*
G01*
X133860940Y-85185420D02*
G75*
G02*
X134060940Y-85185420I100000J0D01*
G01*
D10*
X137747160Y-67248710D02*
X140032160Y-67248710D01*
X140032160Y-65778710D02*
X137747160Y-65778710D01*
X140032160Y-67248710D02*
X140032160Y-65778710D01*
X142319130Y-77290200D02*
X142600290Y-77290200D01*
X142319130Y-78310200D02*
X142600290Y-78310200D01*
X108760590Y-81612840D02*
X108760590Y-83897840D01*
X108760590Y-83897840D02*
X110230590Y-83897840D01*
X110230590Y-83897840D02*
X110230590Y-81612840D01*
X143273410Y-64151840D02*
X143273410Y-65621840D01*
X143273410Y-65621840D02*
X145558410Y-65621840D01*
X145558410Y-64151840D02*
X143273410Y-64151840D01*
X117669160Y-77054560D02*
X117669160Y-77779560D01*
X117669160Y-82274560D02*
X117669160Y-81549560D01*
X118394160Y-77054560D02*
X117669160Y-77054560D01*
X118394160Y-82274560D02*
X117669160Y-82274560D01*
X122164160Y-77054560D02*
X122889160Y-77054560D01*
X122164160Y-82274560D02*
X122889160Y-82274560D01*
X122889160Y-77054560D02*
X122889160Y-77779560D01*
X121808110Y-89221450D02*
X122808110Y-89221450D01*
X121808110Y-90001450D02*
X121808110Y-89221450D01*
X121808110Y-114961450D02*
X121808110Y-108546450D01*
X140048110Y-89221450D02*
X139048110Y-89221450D01*
X140048110Y-90001450D02*
X140048110Y-89221450D01*
X140048110Y-108546450D02*
X140428110Y-108546450D01*
X140048110Y-114961450D02*
X121808110Y-114961450D01*
X140048110Y-114961450D02*
X140048110Y-108546450D01*
X145677500Y-76123070D02*
X145396340Y-76123070D01*
X145677500Y-77143070D02*
X145396340Y-77143070D01*
D11*
X117775000Y-66106000D02*
X117775000Y-65201000D01*
X121125000Y-66975000D02*
X122773000Y-66975000D01*
X124125000Y-64375000D02*
X118125000Y-64375000D01*
X124475000Y-66106000D02*
X124475000Y-65221000D01*
D10*
X145362389Y-100969959D02*
X146564471Y-102172041D01*
X145362389Y-100969959D02*
X147165511Y-99166837D01*
X146564471Y-102172041D02*
X148367593Y-100368919D01*
X121525770Y-75063118D02*
X121525770Y-74588602D01*
X122570770Y-75063118D02*
X122570770Y-74588602D01*
X111443538Y-77864440D02*
X110969022Y-77864440D01*
X111443538Y-78909440D02*
X110969022Y-78909440D01*
X116414951Y-72691970D02*
X116216140Y-72890781D01*
X117136200Y-73413219D02*
X116937389Y-73612030D01*
X143398472Y-83853760D02*
X143872988Y-83853760D01*
X143398472Y-84898760D02*
X143872988Y-84898760D01*
X110550430Y-82185742D02*
X110550430Y-82660258D01*
X111595430Y-82185742D02*
X111595430Y-82660258D01*
X135740372Y-86111820D02*
X136214888Y-86111820D01*
X135740372Y-87156820D02*
X136214888Y-87156820D01*
X125399070Y-75568420D02*
X125399070Y-75287260D01*
X126419070Y-75568420D02*
X126419070Y-75287260D01*
X141867658Y-65988670D02*
X141393142Y-65988670D01*
X141867658Y-67033670D02*
X141393142Y-67033670D01*
X138204820Y-80893190D02*
X137923660Y-80893190D01*
X138204820Y-81913190D02*
X137923660Y-81913190D01*
X147607252Y-91307390D02*
X148081768Y-91307390D01*
X147607252Y-92352390D02*
X148081768Y-92352390D01*
X110107962Y-94365550D02*
X110582478Y-94365550D01*
X110107962Y-95410550D02*
X110582478Y-95410550D01*
X125045860Y-77619130D02*
X125327020Y-77619130D01*
X125045860Y-78639130D02*
X125327020Y-78639130D01*
X146945740Y-77655960D02*
X147226900Y-77655960D01*
X146945740Y-78675960D02*
X147226900Y-78675960D01*
D11*
X146347680Y-94746610D02*
X149267680Y-94746610D01*
X146347680Y-94846610D02*
X146347680Y-94746610D01*
X149267680Y-94746610D02*
X149267680Y-94846610D01*
X149267680Y-94846610D02*
X146347680Y-94846610D01*
X149307680Y-93096610D02*
X149307680Y-94396610D01*
D10*
X110770394Y-70797092D02*
X111795699Y-71822396D01*
X111795699Y-71822396D02*
X113068491Y-70549604D01*
X112099755Y-65479649D02*
X109674379Y-67905025D01*
X114744334Y-68873761D02*
X115444370Y-69573797D01*
X114991822Y-66575664D02*
X116017126Y-67600969D01*
X116017126Y-67600969D02*
X114744334Y-68873761D01*
D11*
X109829470Y-77292940D02*
X109829470Y-75992940D01*
X109869470Y-75542940D02*
X112789470Y-75542940D01*
X109869470Y-75642940D02*
X109869470Y-75542940D01*
X112789470Y-75542940D02*
X112789470Y-75642940D01*
X112789470Y-75642940D02*
X109869470Y-75642940D01*
D10*
X143872988Y-82333570D02*
X143398472Y-82333570D01*
X143872988Y-83378570D02*
X143398472Y-83378570D01*
X119505962Y-73546440D02*
X119980478Y-73546440D01*
X119505962Y-74591440D02*
X119980478Y-74591440D01*
X115948339Y-70193629D02*
X114145217Y-71996751D01*
X117150421Y-71395711D02*
X115347299Y-73198833D01*
X117150421Y-71395711D02*
X115948339Y-70193629D01*
X142421030Y-107269820D02*
X142702190Y-107269820D01*
X142421030Y-108289820D02*
X142702190Y-108289820D01*
X145934344Y-105314611D02*
X147207136Y-104041819D01*
X146959648Y-106339916D02*
X145934344Y-105314611D01*
X147207136Y-104041819D02*
X146507100Y-103341783D01*
X149851715Y-107435931D02*
X152277091Y-105010555D01*
X150155771Y-101093184D02*
X148882979Y-102365976D01*
X151181076Y-102118488D02*
X150155771Y-101093184D01*
X147411070Y-73443970D02*
X147411070Y-75993970D01*
X149111070Y-73443970D02*
X147411070Y-73443970D01*
X149111070Y-73443970D02*
X149111070Y-75993970D01*
X137835872Y-82397070D02*
X138310388Y-82397070D01*
X137835872Y-83442070D02*
X138310388Y-83442070D01*
X146888590Y-97335880D02*
X147169750Y-97335880D01*
X146888590Y-98355880D02*
X147169750Y-98355880D01*
X142422000Y-104070690D02*
X142703160Y-104070690D01*
X142422000Y-105090690D02*
X142703160Y-105090690D01*
X126022640Y-82028910D02*
X126022640Y-81747750D01*
X127042640Y-82028910D02*
X127042640Y-81747750D01*
X121813552Y-83267020D02*
X122288068Y-83267020D01*
X121813552Y-84312020D02*
X122288068Y-84312020D01*
D11*
X149669370Y-76924640D02*
X149669370Y-75624640D01*
X149709370Y-75174640D02*
X152629370Y-75174640D01*
X149709370Y-75274640D02*
X149709370Y-75174640D01*
X152629370Y-75174640D02*
X152629370Y-75274640D01*
X152629370Y-75274640D02*
X149709370Y-75274640D01*
D10*
X143538680Y-70804808D02*
X143538680Y-70330292D01*
X144583680Y-70804808D02*
X144583680Y-70330292D01*
D12*
X148375000Y-81375000D02*
X153325000Y-81375000D01*
X148375000Y-89675000D02*
X148375000Y-81375000D01*
X153325000Y-81375000D02*
X153325000Y-89675000D01*
X153325000Y-89675000D02*
X148375000Y-89675000D01*
D10*
X108779640Y-85299970D02*
X108779640Y-87584970D01*
X108779640Y-87584970D02*
X110249640Y-87584970D01*
X110249640Y-87584970D02*
X110249640Y-85299970D01*
X141860038Y-64373230D02*
X141385522Y-64373230D01*
X141860038Y-65418230D02*
X141385522Y-65418230D01*
X138850370Y-77205400D02*
X137050370Y-77205400D01*
X138850370Y-77205400D02*
X139650370Y-77205400D01*
X138850370Y-80325400D02*
X138050370Y-80325400D01*
X138850370Y-80325400D02*
X139650370Y-80325400D01*
X117028920Y-85983770D02*
X118358920Y-85983770D01*
X117028920Y-87313770D02*
X117028920Y-85983770D01*
X117028920Y-88583770D02*
X117028920Y-101343770D01*
X117028920Y-88583770D02*
X119688920Y-88583770D01*
X117028920Y-101343770D02*
X119688920Y-101343770D01*
X119688920Y-88583770D02*
X119688920Y-101343770D01*
X119979208Y-68842360D02*
X119504692Y-68842360D01*
X119979208Y-69887360D02*
X119504692Y-69887360D01*
X134522420Y-74406490D02*
X129122420Y-74406490D01*
X134522420Y-77706490D02*
X129122420Y-77706490D01*
X134522420Y-77706490D02*
X134522420Y-74406490D01*
X129582790Y-79125350D02*
X129301630Y-79125350D01*
X129582790Y-80145350D02*
X129301630Y-80145350D01*
X151321538Y-77525350D02*
X150847022Y-77525350D01*
X151321538Y-78570350D02*
X150847022Y-78570350D01*
X135393970Y-78411460D02*
X135393970Y-78692620D01*
X136413970Y-78411460D02*
X136413970Y-78692620D01*
X137736680Y-65633270D02*
X140021680Y-65633270D01*
X140021680Y-64163270D02*
X137736680Y-64163270D01*
X140021680Y-65633270D02*
X140021680Y-64163270D01*
D12*
X137811670Y-73375270D02*
X137811670Y-69375270D01*
X142911670Y-73375270D02*
X142911670Y-69375270D01*
D11*
X137956670Y-75820270D02*
G75*
G02*
X137756670Y-75820270I-100000J0D01*
G01*
X137756670Y-75820270D02*
G75*
G02*
X137956670Y-75820270I100000J0D01*
G01*
D10*
X145780674Y-67541279D02*
X147053466Y-68814071D01*
X146805978Y-66515974D02*
X145780674Y-67541279D01*
X148729309Y-70489914D02*
X148029273Y-71189950D01*
X150002101Y-71762706D02*
X148729309Y-70489914D01*
X151027406Y-70737402D02*
X150002101Y-71762706D01*
X152123421Y-67845335D02*
X149698045Y-65419959D01*
X108746620Y-88383530D02*
X108746620Y-90668530D01*
X108746620Y-90668530D02*
X110216620Y-90668530D01*
X110216620Y-90668530D02*
X110216620Y-88383530D01*
X145224500Y-72300660D02*
X143549500Y-72300660D01*
X145224500Y-72300660D02*
X145874500Y-72300660D01*
X145224500Y-75420660D02*
X144574500Y-75420660D01*
X145224500Y-75420660D02*
X145874500Y-75420660D01*
X109689619Y-105103265D02*
X112114995Y-107528641D01*
X110785634Y-102211198D02*
X111810939Y-101185894D01*
X111810939Y-101185894D02*
X113083731Y-102458686D01*
X113083731Y-102458686D02*
X113783767Y-101758650D01*
X115007062Y-106432626D02*
X116032366Y-105407321D01*
X116032366Y-105407321D02*
X114759574Y-104134529D01*
X114191660Y-96431640D02*
X113910500Y-96431640D01*
X114191660Y-97451640D02*
X113910500Y-97451640D01*
X121812282Y-84787210D02*
X122286798Y-84787210D01*
X121812282Y-85832210D02*
X122286798Y-85832210D01*
X141972990Y-86011710D02*
X143302990Y-86011710D01*
X141972990Y-87341710D02*
X141972990Y-86011710D01*
X141972990Y-88611710D02*
X141972990Y-101371710D01*
X141972990Y-88611710D02*
X144632990Y-88611710D01*
X141972990Y-101371710D02*
X144632990Y-101371710D01*
X144632990Y-88611710D02*
X144632990Y-101371710D01*
X115096169Y-101948521D02*
X113293047Y-100145399D01*
X115096169Y-101948521D02*
X116298251Y-100746439D01*
X116298251Y-100746439D02*
X114495129Y-98943317D01*
%LPC*%
D13*
G36*
X180649178Y-90717308D02*
G01*
X177649188Y-90717308D01*
X177649188Y-88717308D01*
X180649178Y-88717308D01*
X180649178Y-90717308D01*
G37*
G36*
X180649178Y-80531908D02*
G01*
X177649188Y-80531908D01*
X177649188Y-78531908D01*
X180649178Y-78531908D01*
X180649178Y-80531908D01*
G37*
G36*
X84129178Y-80531908D02*
G01*
X81129188Y-80531908D01*
X81129188Y-78531908D01*
X84129178Y-78531908D01*
X84129178Y-80531908D01*
G37*
G36*
X164088378Y-84265708D02*
G01*
X161088388Y-84265708D01*
X161088388Y-82265708D01*
X164088378Y-82265708D01*
X164088378Y-84265708D01*
G37*
G36*
X84129178Y-84265708D02*
G01*
X81129188Y-84265708D01*
X81129188Y-82265708D01*
X84129178Y-82265708D01*
X84129178Y-84265708D01*
G37*
G36*
X100689218Y-90717308D02*
G01*
X97689228Y-90717308D01*
X97689228Y-88717308D01*
X100689218Y-88717308D01*
X100689218Y-90717308D01*
G37*
G36*
X164088378Y-90717308D02*
G01*
X161088388Y-90717308D01*
X161088388Y-88717308D01*
X164088378Y-88717308D01*
X164088378Y-90717308D01*
G37*
G36*
X164088378Y-80531908D02*
G01*
X161088388Y-80531908D01*
X161088388Y-78531908D01*
X164088378Y-78531908D01*
X164088378Y-80531908D01*
G37*
G36*
X85966998Y-37915278D02*
G01*
X82301778Y-41579228D01*
X80179608Y-39457058D01*
X83841018Y-35798188D01*
X85966998Y-37915278D01*
G37*
G36*
X97403725Y-123420369D02*
G01*
X95281555Y-125542539D01*
X91622685Y-121881129D01*
X93739775Y-119755149D01*
X97403725Y-123420369D01*
G37*
G36*
X100689218Y-80531908D02*
G01*
X97689228Y-80531908D01*
X97689228Y-78531908D01*
X100689218Y-78531908D01*
X100689218Y-80531908D01*
G37*
G36*
X170080191Y-122153054D02*
G01*
X166418781Y-125811924D01*
X164292801Y-123694834D01*
X167958021Y-120030884D01*
X170080191Y-122153054D01*
G37*
G36*
X170346893Y-50542895D02*
G01*
X168229803Y-52668875D01*
X164565853Y-49003655D01*
X166688023Y-46881485D01*
X170346893Y-50542895D01*
G37*
G36*
X181612788Y-39461440D02*
G01*
X179495698Y-41587420D01*
X175831748Y-37922200D01*
X177953918Y-35800030D01*
X181612788Y-39461440D01*
G37*
G36*
X84129178Y-90717308D02*
G01*
X81129188Y-90717308D01*
X81129188Y-88717308D01*
X84129178Y-88717308D01*
X84129178Y-90717308D01*
G37*
G36*
X84129178Y-94451108D02*
G01*
X81129188Y-94451108D01*
X81129188Y-92451108D01*
X84129178Y-92451108D01*
X84129178Y-94451108D01*
G37*
G36*
X164088378Y-94451108D02*
G01*
X161088388Y-94451108D01*
X161088388Y-92451108D01*
X164088378Y-92451108D01*
X164088378Y-94451108D01*
G37*
G36*
X180649178Y-84284758D02*
G01*
X177649188Y-84284758D01*
X177649188Y-82284758D01*
X180649178Y-82284758D01*
X180649178Y-84284758D01*
G37*
G36*
X100689218Y-84265708D02*
G01*
X97689228Y-84265708D01*
X97689228Y-82265708D01*
X100689218Y-82265708D01*
X100689218Y-84265708D01*
G37*
G36*
X100689218Y-94451108D02*
G01*
X97689228Y-94451108D01*
X97689228Y-92451108D01*
X100689218Y-92451108D01*
X100689218Y-94451108D01*
G37*
G36*
X97670739Y-49494382D02*
G01*
X94005519Y-53158332D01*
X91883349Y-51036162D01*
X95544759Y-47377292D01*
X97670739Y-49494382D01*
G37*
G36*
X180649178Y-94444758D02*
G01*
X177649188Y-94444758D01*
X177649188Y-92444758D01*
X180649178Y-92444758D01*
X180649178Y-94444758D01*
G37*
G36*
X181401720Y-133233160D02*
G01*
X177740310Y-136892030D01*
X175614330Y-134774940D01*
X179279550Y-131110990D01*
X181401720Y-133233160D01*
G37*
G36*
X85980968Y-135075358D02*
G01*
X83858798Y-137197528D01*
X80199928Y-133536118D01*
X82317018Y-131410138D01*
X85980968Y-135075358D01*
G37*
D14*
X153400000Y-98670530D03*
X153400000Y-99373686D03*
X140856842Y-109200000D03*
X108390000Y-99343686D03*
X163190000Y-74366842D03*
D15*
X111080550Y-85228930D03*
X111080550Y-86878930D03*
D16*
X111361260Y-96722220D03*
X109461260Y-96722220D03*
X110411260Y-98822220D03*
D14*
X153400000Y-100076842D03*
X163190000Y-73663686D03*
D17*
X124376180Y-76210460D03*
X124376180Y-74660460D03*
D14*
X98600000Y-97964570D03*
D17*
X144890490Y-108087460D03*
X144890490Y-106537460D03*
D18*
X140107170Y-75932030D03*
X138457170Y-75932030D03*
D19*
X135152630Y-85096350D03*
X136802630Y-85096350D03*
D17*
X126579630Y-86652400D03*
X126579630Y-85102400D03*
D15*
X111080550Y-88329000D03*
X111080550Y-89979000D03*
D18*
X120589810Y-75618340D03*
X118939810Y-75618340D03*
D20*
X141715450Y-79564230D03*
X143615450Y-79564230D03*
D18*
X143402820Y-106112310D03*
X141752820Y-106112310D03*
X133313940Y-79641700D03*
X131663940Y-79641700D03*
D14*
X163190000Y-72960530D03*
X139450530Y-113010000D03*
D21*
X134460730Y-70724070D03*
X128680730Y-70724070D03*
D22*
X134820730Y-72169070D03*
X134020730Y-72169070D03*
D23*
X132820730Y-72169070D03*
X131820730Y-72169070D03*
X131320730Y-72169070D03*
X130320730Y-72169070D03*
D22*
X129120730Y-72169070D03*
X128320730Y-72169070D03*
X128320730Y-72169070D03*
X129120730Y-72169070D03*
D23*
X129820730Y-72169070D03*
X130820730Y-72169070D03*
X132320730Y-72169070D03*
X133320730Y-72169070D03*
D22*
X134020730Y-72169070D03*
X134820730Y-72169070D03*
D24*
X135890730Y-71254070D03*
D25*
X135890730Y-67074070D03*
D24*
X127250730Y-71254070D03*
D25*
X127250730Y-67074070D03*
D18*
X122539260Y-87236300D03*
X120889260Y-87236300D03*
D14*
X108340000Y-72244570D03*
D26*
X114501890Y-83374470D03*
X114501890Y-84024470D03*
X114501890Y-84674470D03*
X116401890Y-84674470D03*
X116401890Y-84024470D03*
X116401890Y-83374470D03*
D14*
X108390000Y-98640530D03*
X163200000Y-97974570D03*
D27*
X132930940Y-85185420D03*
X132930940Y-84685420D03*
X132930940Y-84185420D03*
X132930940Y-83685420D03*
X132930940Y-83185420D03*
X132930940Y-82685420D03*
D28*
X132210940Y-81965420D03*
X131710940Y-81965420D03*
X131210940Y-81965420D03*
X130710940Y-81965420D03*
X130210940Y-81965420D03*
X129710940Y-81965420D03*
D27*
X128990940Y-82685420D03*
X128990940Y-83185420D03*
X128990940Y-83685420D03*
X128990940Y-84185420D03*
X128990940Y-84685420D03*
X128990940Y-85185420D03*
D28*
X129710940Y-85905420D03*
X130210940Y-85905420D03*
X130710940Y-85905420D03*
X131210940Y-85905420D03*
X131710940Y-85905420D03*
X132210940Y-85905420D03*
D14*
X153400000Y-74336842D03*
X163200000Y-99373686D03*
X121656842Y-109200000D03*
D29*
X139334660Y-66513710D03*
X137759660Y-66513710D03*
D30*
X141684710Y-77800200D03*
X143234710Y-77800200D03*
D31*
X109495590Y-83200340D03*
X109495590Y-81625340D03*
D14*
X120953686Y-109200000D03*
D32*
X143970910Y-64886840D03*
X145545910Y-64886840D03*
D14*
X140856842Y-113010000D03*
D33*
X122729160Y-81164560D03*
X122729160Y-80664560D03*
X122729160Y-80164560D03*
X122729160Y-79664560D03*
X122729160Y-79164560D03*
X122729160Y-78664560D03*
X122729160Y-78164560D03*
D34*
X121779160Y-77214560D03*
X121279160Y-77214560D03*
X120779160Y-77214560D03*
X120279160Y-77214560D03*
X119779160Y-77214560D03*
X119279160Y-77214560D03*
X118779160Y-77214560D03*
D33*
X117829160Y-78164560D03*
X117829160Y-78664560D03*
X117829160Y-79164560D03*
X117829160Y-79664560D03*
X117829160Y-80164560D03*
X117829160Y-80664560D03*
X117829160Y-81164560D03*
D34*
X118779160Y-82114560D03*
X119279160Y-82114560D03*
X119779160Y-82114560D03*
X120279160Y-82114560D03*
X120779160Y-82114560D03*
X121279160Y-82114560D03*
X121779160Y-82114560D03*
D35*
X120279160Y-79664560D03*
D36*
X139678110Y-107351450D03*
X139678110Y-106081450D03*
X139678110Y-104811450D03*
X139678110Y-103541450D03*
X139678110Y-102271450D03*
X139678110Y-101001450D03*
X139678110Y-99731450D03*
X139678110Y-98461450D03*
X139678110Y-97191450D03*
X139678110Y-95921450D03*
X139678110Y-94651450D03*
X139678110Y-93381450D03*
X139678110Y-92111450D03*
X139678110Y-90841450D03*
D37*
X136638110Y-89591450D03*
X135368110Y-89591450D03*
X134098110Y-89591450D03*
X132828110Y-89591450D03*
X131558110Y-89591450D03*
X130288110Y-89591450D03*
X129018110Y-89591450D03*
X127748110Y-89591450D03*
X126478110Y-89591450D03*
X125208110Y-89591450D03*
D36*
X122178110Y-90841450D03*
X122178110Y-92111450D03*
X122178110Y-93381450D03*
X122178110Y-94651450D03*
X122178110Y-95921450D03*
X122178110Y-97191450D03*
X122178110Y-98461450D03*
X122178110Y-99731450D03*
X122178110Y-101001450D03*
X122178110Y-102271450D03*
X122178110Y-103541450D03*
X122178110Y-104811450D03*
X122178110Y-106081450D03*
X122178110Y-107351450D03*
D38*
X133133110Y-100773950D03*
X133133110Y-99248950D03*
X131608110Y-100773950D03*
D39*
X131608110Y-100011450D03*
D38*
X131608110Y-99248950D03*
X130083110Y-100773950D03*
X130083110Y-99248950D03*
D40*
X146311920Y-76633070D03*
X144761920Y-76633070D03*
D14*
X98600000Y-98660530D03*
D41*
X122625000Y-65675000D03*
X119625000Y-65675000D03*
D42*
X123375000Y-67425000D03*
X120375000Y-67425000D03*
X118875000Y-67425000D03*
D43*
X117475000Y-66675000D03*
X117475000Y-64675000D03*
X124775000Y-64675000D03*
X124775000Y-66675000D03*
D14*
X141560000Y-113010000D03*
D44*
X146281628Y-101252802D03*
X147766552Y-99767878D03*
D14*
X122350000Y-113000000D03*
D45*
X122048270Y-75650860D03*
X122048270Y-74000860D03*
D14*
X98620000Y-74366842D03*
X153400000Y-72930530D03*
D18*
X112031280Y-78386940D03*
X110381280Y-78386940D03*
D46*
X117224178Y-72603992D03*
X116128162Y-73700008D03*
D14*
X163200000Y-98670530D03*
D19*
X142810730Y-84376260D03*
X144460730Y-84376260D03*
D15*
X111072930Y-81598000D03*
X111072930Y-83248000D03*
D19*
X135152630Y-86634320D03*
X136802630Y-86634320D03*
D14*
X121646842Y-113000000D03*
X108390000Y-100750000D03*
X108340000Y-72940530D03*
D17*
X125909070Y-76202840D03*
X125909070Y-74652840D03*
D18*
X142455400Y-66511170D03*
X140805400Y-66511170D03*
D14*
X98620000Y-72960530D03*
D40*
X138839240Y-81403190D03*
X137289240Y-81403190D03*
D19*
X147019510Y-91829890D03*
X148669510Y-91829890D03*
D14*
X98620000Y-73663686D03*
D19*
X109520220Y-94888050D03*
X111170220Y-94888050D03*
D30*
X124411440Y-78129130D03*
X125961440Y-78129130D03*
X146311320Y-78165960D03*
X147861320Y-78165960D03*
D16*
X148757680Y-93746610D03*
X146857680Y-93746610D03*
X147807680Y-95846610D03*
D14*
X108340000Y-74346842D03*
D47*
X114447349Y-69368736D03*
X113563466Y-70252619D03*
D48*
X113492755Y-65797847D03*
X109992577Y-69298025D03*
D14*
X98620000Y-72264570D03*
X153400000Y-73633686D03*
X153400000Y-100780000D03*
D16*
X110379470Y-76642940D03*
X112279470Y-76642940D03*
X111329470Y-74542940D03*
D18*
X144460730Y-82856070D03*
X142810730Y-82856070D03*
D19*
X118918220Y-74068940D03*
X120568220Y-74068940D03*
D14*
X153400000Y-97974570D03*
X108390000Y-97944570D03*
D49*
X116231182Y-71112868D03*
X114746258Y-72597792D03*
D14*
X108340000Y-73643686D03*
D30*
X141786610Y-107779820D03*
X143336610Y-107779820D03*
D50*
X147504121Y-103546844D03*
X148388004Y-102662961D03*
D51*
X148458715Y-107117733D03*
X151958893Y-103617555D03*
D14*
X163200000Y-100076842D03*
X122360000Y-109200000D03*
X98620000Y-75070000D03*
D52*
X148261070Y-73893970D03*
X148261070Y-75993970D03*
D19*
X137248130Y-82919570D03*
X138898130Y-82919570D03*
D14*
X120240530Y-113000000D03*
X98600000Y-100770000D03*
X153400000Y-72234570D03*
X120943686Y-113000000D03*
D30*
X146254170Y-97845880D03*
X147804170Y-97845880D03*
X141787580Y-104580690D03*
X143337580Y-104580690D03*
D17*
X126532640Y-82663330D03*
X126532640Y-81113330D03*
D19*
X121225810Y-83789520D03*
X122875810Y-83789520D03*
D16*
X150219370Y-76274640D03*
X152119370Y-76274640D03*
X151169370Y-74174640D03*
D45*
X144061180Y-71392550D03*
X144061180Y-69742550D03*
D53*
X148575000Y-84525000D03*
X148575000Y-86525000D03*
D54*
X150825000Y-82125000D03*
X150825000Y-88925000D03*
D31*
X109514640Y-86887470D03*
X109514640Y-85312470D03*
D14*
X108390000Y-100046842D03*
D18*
X142447780Y-64895730D03*
X140797780Y-64895730D03*
D55*
X137712870Y-77815400D03*
X137712870Y-78765400D03*
X137712870Y-79715400D03*
X139987870Y-79715400D03*
X139987870Y-77815400D03*
D56*
X118358920Y-87313770D03*
D57*
X118358920Y-89853770D03*
X118358920Y-92393770D03*
X118358920Y-94933770D03*
X118358920Y-97473770D03*
X118358920Y-100013770D03*
D14*
X153400000Y-75040000D03*
D18*
X120566950Y-69364860D03*
X118916950Y-69364860D03*
D14*
X98600000Y-99363686D03*
D58*
X133122420Y-76056490D03*
X129122420Y-76056490D03*
D14*
X120250530Y-109200000D03*
D40*
X130217210Y-79635350D03*
X128667210Y-79635350D03*
D18*
X151909280Y-78047850D03*
X150259280Y-78047850D03*
D14*
X139450530Y-109200000D03*
D59*
X135903970Y-77777040D03*
X135903970Y-79327040D03*
D14*
X98600000Y-100066842D03*
D29*
X139324180Y-64898270D03*
X137749180Y-64898270D03*
D60*
X138456670Y-73850270D03*
X139726670Y-73850270D03*
X140996670Y-73850270D03*
X142266670Y-73850270D03*
X142266670Y-68900270D03*
X140996670Y-68900270D03*
X139726670Y-68900270D03*
X138456670Y-68900270D03*
D61*
X140361670Y-71375270D03*
D62*
X148234334Y-70192929D03*
X147350451Y-69309046D03*
D63*
X151805223Y-69238335D03*
X148305045Y-65738157D03*
D14*
X108340000Y-75050000D03*
D31*
X109481620Y-89971030D03*
X109481620Y-88396030D03*
D14*
X163200000Y-100780000D03*
D64*
X144287000Y-72910660D03*
X144287000Y-74810660D03*
X146162000Y-73860660D03*
D14*
X140153686Y-113010000D03*
X140153686Y-109200000D03*
X163190000Y-75070000D03*
X141560000Y-109200000D03*
X163190000Y-72264570D03*
D65*
X113578706Y-102755671D03*
X114462589Y-103639554D03*
D66*
X110007817Y-103710265D03*
X113507995Y-107210443D03*
D40*
X114826080Y-96941640D03*
X113276080Y-96941640D03*
D19*
X121224540Y-85309710D03*
X122874540Y-85309710D03*
D56*
X143302990Y-87341710D03*
D57*
X143302990Y-89881710D03*
X143302990Y-92421710D03*
X143302990Y-94961710D03*
X143302990Y-97501710D03*
X143302990Y-100041710D03*
D67*
X115379012Y-101029282D03*
X113894088Y-99544358D03*
%LPD*%
D68*
X89744997Y-112289635D02*
G75*
G02*
X88445021Y-111346061I-19997J1339735D01*
G01*
X95102180Y-72673720D02*
G75*
G02*
X95602080Y-73173590I20J-499880D01*
G01*
X81961740Y-88343230D02*
G75*
G02*
X83961670Y-90343230I-40J-1999970D01*
G01*
X83961740Y-82673700D02*
X83961740Y-82073750D01*
X108397550Y-97616520D02*
X98602300Y-97616520D01*
X177433230Y-94193360D02*
G75*
G02*
X176933360Y-94693230I-499830J-40D01*
G01*
X97461580Y-92243400D02*
X97461580Y-94193360D01*
X81437740Y-37968170D02*
X80897480Y-38508430D01*
X83961740Y-90943430D02*
X83961740Y-90343230D01*
X97461580Y-78823570D02*
X97461580Y-80773780D01*
X167531290Y-50441860D02*
G75*
G02*
X167549544Y-50794377I-168190J-185440D01*
G01*
X82470500Y-129480560D02*
G75*
G02*
X89824572Y-122074857I6427000J972060D01*
G01*
X163283400Y-82073750D02*
G75*
G02*
X162783250Y-81573620I0J500150D01*
G01*
X146197580Y-132508500D02*
G75*
G02*
X142197590Y-136508480I-3999980J0D01*
G01*
X82811620Y-91743280D02*
X82811620Y-91443300D01*
X98602300Y-104580940D02*
X98602300Y-101116380D01*
X164070152Y-54276373D02*
G75*
G02*
X163717410Y-54258021I-167152J186373D01*
G01*
X162733230Y-84673690D02*
X164233360Y-83173570D01*
X96102170Y-78323690D02*
G75*
G02*
X95602110Y-77823570I30J500090D01*
G01*
X98467930Y-67549010D02*
G75*
G02*
X98602064Y-68435980I-2865630J-886990D01*
G01*
X98665118Y-53335878D02*
G75*
G02*
X98646740Y-53688591I-186418J-167122D01*
G01*
X176602900Y-136508490D02*
X178897540Y-136508490D01*
X180397410Y-88343230D02*
G75*
G02*
X180897570Y-88843360I-10J-500170D01*
G01*
X100425760Y-77673710D02*
X99102170Y-77673710D01*
X95183460Y-123160540D02*
G75*
G02*
X94830706Y-123142199I-167160J186440D01*
G01*
X94263720Y-122575070D02*
X94830727Y-123142180D01*
X179833270Y-84673690D02*
G75*
G02*
X177833310Y-82673700I30J1999990D01*
G01*
X81397610Y-95343220D02*
G75*
G02*
X80897680Y-94843350I-10J499920D01*
G01*
X178264570Y-134794750D02*
G75*
G02*
X178273645Y-134433005I176830J176550D01*
G01*
X153397460Y-101116380D02*
X163192720Y-101116380D01*
X83311500Y-90943430D02*
X83961740Y-90943430D01*
X81397610Y-84673690D02*
X81961740Y-84673690D01*
X108397550Y-101116380D02*
X108397550Y-102768910D01*
X82720950Y-95343220D02*
G75*
G02*
X83220980Y-95843340I-50J-500080D01*
G01*
X99011740Y-91443300D02*
X99011740Y-91743280D01*
X166692840Y-100343210D02*
G75*
G02*
X166192890Y-99843340I-40J499910D01*
G01*
X84361530Y-92243400D02*
X83311500Y-92243400D01*
X139397490Y-133508500D02*
G75*
G02*
X138397490Y-134508490I-999990J0D01*
G01*
X88932770Y-116340890D02*
G75*
G02*
X86066922Y-114227850I30J2999990D01*
G01*
X123397520Y-134508490D02*
G75*
G02*
X122397510Y-133508500I-20J999990D01*
G01*
X172862240Y-56676040D02*
X168904420Y-56676040D01*
X160869130Y-88843360D02*
X160869130Y-94843350D01*
X178573940Y-77173580D02*
X178573940Y-68435980D01*
X98602300Y-75400410D02*
X108397550Y-75400410D01*
X171974260Y-122074430D02*
G75*
G02*
X170202729Y-121433197I-285260J1979630D01*
G01*
X100925890Y-94843350D02*
G75*
G02*
X100425760Y-95343390I-500090J50D01*
G01*
X141847570Y-109008420D02*
X147157950Y-109008420D01*
X95602300Y-95193360D02*
G75*
G02*
X96102170Y-94693500I499900J-40D01*
G01*
X174470000Y-65400000D02*
G75*
G02*
X172081948Y-68639217I-2388100J-739300D01*
G01*
X172081952Y-60719530D02*
G75*
G02*
X173381999Y-61663082I20048J-1339770D01*
G01*
X175573950Y-73173590D02*
X175573950Y-77823570D01*
X82357220Y-37048950D02*
X83530440Y-38222170D01*
X95602300Y-73173590D02*
X95602300Y-77823570D01*
X83355180Y-105467910D02*
G75*
G02*
X83221048Y-104580940I2865820J887010D01*
G01*
X139397490Y-116008400D02*
X139397490Y-133508500D01*
X173392929Y-111321817D02*
G75*
G02*
X172092933Y-112265400I-1280029J396217D01*
G01*
X95102180Y-100343210D02*
X86720940Y-100343210D01*
X178483260Y-80773780D02*
G75*
G02*
X178983220Y-81273650I40J-499920D01*
G01*
X86203290Y-37519610D02*
X85192110Y-36508440D01*
X86221070Y-99843340D02*
X86221070Y-95193360D01*
X100425760Y-77673710D02*
G75*
G02*
X100925690Y-78173580I40J-499890D01*
G01*
X179833270Y-84673690D02*
X180397410Y-84673690D01*
X86720940Y-72673720D02*
X95102180Y-72673720D01*
X166692840Y-72673720D02*
X175073820Y-72673720D01*
X85720940Y-94693230D02*
G75*
G02*
X86221070Y-95193360I-40J-500170D01*
G01*
X89780000Y-68659870D02*
G75*
G02*
X87391948Y-65420705I0J2499870D01*
G01*
X108397550Y-75400410D02*
X108397550Y-97616520D01*
X98602300Y-101116380D02*
X108397550Y-101116380D01*
X86221070Y-77823570D02*
X86221070Y-73173590D01*
X87925410Y-38081460D02*
G75*
G02*
X91858619Y-38722012I972090J-6426940D01*
G01*
X83221070Y-77173580D02*
G75*
G02*
X82720950Y-77673770I-500170J-20D01*
G01*
X167531290Y-50441860D02*
G75*
G02*
X166964112Y-49874679I5365910J5933060D01*
G01*
X89839997Y-60740235D02*
X92230004Y-60740235D01*
X180357020Y-135048750D02*
X180897530Y-134508490D01*
X89820750Y-50942490D02*
G75*
G02*
X91592293Y-51583711I285250J-1979710D01*
G01*
X84361530Y-80773780D02*
X84361530Y-78823570D01*
X177833280Y-90343230D02*
X177833280Y-90943430D01*
X153397460Y-75400410D02*
X163192720Y-75400410D01*
X99011740Y-81573620D02*
G75*
G02*
X98511620Y-82073740I-500140J20D01*
G01*
X108397550Y-102768910D02*
X91592150Y-121433080D01*
X97461580Y-94193360D02*
G75*
G02*
X96961710Y-94693280I-499880J-40D01*
G01*
X178573940Y-104580940D02*
X178573940Y-95843340D01*
X98511620Y-92243400D02*
X97461580Y-92243400D01*
X163192720Y-68435980D02*
G75*
G02*
X163326843Y-67549014I2999980J-20D01*
G01*
X95183510Y-123160585D02*
X98661496Y-119677256D01*
X163192720Y-97616520D02*
X153397460Y-97616520D01*
X82471520Y-129485900D02*
G75*
G02*
X81908689Y-131202719I-1977120J-302500D01*
G01*
X91592150Y-121433080D02*
G75*
G02*
X89820779Y-122074233I-1486150J1338380D01*
G01*
X141847570Y-113008410D02*
X141847570Y-109008420D01*
X122397520Y-116008400D02*
G75*
G02*
X123397520Y-115008420I999980J0D01*
G01*
X179183800Y-133875530D02*
X180357020Y-135048750D01*
X84361530Y-78823570D02*
G75*
G02*
X84861660Y-78323430I500170J-30D01*
G01*
X83530440Y-134795010D02*
X82357220Y-135968230D01*
X99061530Y-84673690D02*
X100425760Y-84673690D01*
X82811620Y-81273650D02*
G75*
G02*
X83311500Y-80773720I499880J50D01*
G01*
X168391949Y-61663098D02*
G75*
G02*
X169691944Y-60719580I1279951J-396202D01*
G01*
X85720940Y-94693230D02*
X84861660Y-94693230D01*
X94618052Y-65420705D02*
X93530000Y-61683803D01*
X164233360Y-89843360D02*
X162733230Y-88343230D01*
X164233360Y-82073750D02*
X163283400Y-82073750D01*
X98511620Y-82073750D02*
X97561660Y-82073750D01*
X82811620Y-81573620D02*
X82811620Y-81273650D01*
X98643256Y-119324741D02*
X98076249Y-118757631D01*
X179437800Y-135968230D02*
X178264570Y-134795010D01*
X82720950Y-77673710D02*
X81397610Y-77673710D01*
X168711880Y-43151300D02*
X167110160Y-41549570D01*
X80897480Y-78173580D02*
G75*
G02*
X81397610Y-77673480I500120J-20D01*
G01*
X163192720Y-75400410D02*
X163192720Y-77173580D01*
X162783270Y-91743280D02*
X162783270Y-91443300D01*
X180897530Y-134508490D02*
X180897530Y-132213860D01*
X169691945Y-60719530D02*
X172081952Y-60719530D01*
X166192710Y-99843340D02*
X166192710Y-95193360D01*
X122647460Y-109008420D02*
X122647460Y-113008410D01*
X165822130Y-125813820D02*
G75*
G02*
X166463325Y-127585197I-1338330J-1486180D01*
G01*
X164333430Y-80773780D02*
X164333430Y-78823570D01*
X176933360Y-78323690D02*
G75*
G02*
X177433310Y-78823570I40J-499910D01*
G01*
X179886360Y-131202680D02*
G75*
G02*
X179323542Y-129485906I1414240J1414280D01*
G01*
X94684850Y-41549570D02*
X93082880Y-43151300D01*
X170202860Y-121433080D02*
X153397460Y-102768910D01*
X178983390Y-81573620D02*
G75*
G02*
X178483260Y-82073690I-500090J20D01*
G01*
X80897480Y-88843360D02*
X80897480Y-94843350D01*
X166192710Y-77823570D02*
X166192710Y-73173590D01*
X97561660Y-83173570D02*
X99061530Y-84673690D01*
X119947440Y-109008420D02*
X119947440Y-113008410D01*
X171540430Y-132693920D02*
X169938450Y-134295900D01*
X94830900Y-49874680D02*
G75*
G02*
X94267926Y-50436653I-5925200J5372780D01*
G01*
X81961740Y-88343230D02*
X81397610Y-88343230D01*
X146197580Y-132508500D02*
X146197580Y-117008400D01*
X165692840Y-94693230D02*
X164833300Y-94693230D01*
X179437800Y-37048950D02*
X178897540Y-36508440D01*
X162692850Y-95343220D02*
G75*
G02*
X163192880Y-95843340I-50J-500080D01*
G01*
X167110162Y-131467609D02*
G75*
G02*
X166463985Y-127581411I5787338J2959109D01*
G01*
X87920070Y-38082470D02*
G75*
G02*
X86203265Y-37519635I-302470J1977170D01*
G01*
X161369250Y-84673690D02*
X162733230Y-84673690D01*
X98511620Y-90943430D02*
G75*
G02*
X99011470Y-91443300I-20J-499870D01*
G01*
X99102170Y-95343220D02*
X100425760Y-95343220D01*
X99011740Y-91743280D02*
G75*
G02*
X98511620Y-92243440I-500140J-20D01*
G01*
X85192110Y-36508440D02*
X82897480Y-36508440D01*
X165822130Y-47203110D02*
X147157950Y-64008510D01*
X87296948Y-107609165D02*
X88445001Y-111346067D01*
X177433230Y-92243400D02*
X177433230Y-94193360D01*
X142197590Y-113008410D02*
G75*
G02*
X146197590Y-117008400I10J-3999990D01*
G01*
X166038790Y-58789060D02*
G75*
G02*
X168904420Y-56676269I2865610J-886940D01*
G01*
X168904420Y-116340890D02*
X172862240Y-116340890D01*
X163192720Y-68435980D02*
X163192720Y-71900540D01*
X82897480Y-36508440D02*
X82357220Y-37048950D01*
X93082110Y-43148760D02*
G75*
G02*
X90249788Y-40321395I-4184650J-1359660D01*
G01*
X81908650Y-131202680D02*
X80897480Y-132213860D01*
X88540001Y-61683803D02*
G75*
G02*
X89839997Y-60740235I1279999J-396197D01*
G01*
X80897480Y-78173580D02*
X80897480Y-84173570D01*
X167549640Y-122222455D02*
X164066311Y-118744469D01*
X87391948Y-65420705D02*
X88540001Y-61683803D01*
X84361530Y-94193360D02*
X84361530Y-92243400D01*
X166192710Y-77823570D02*
G75*
G02*
X165692840Y-78323510I-499910J-30D01*
G01*
X163192720Y-101116380D02*
X163192720Y-104580940D01*
X175573950Y-95193360D02*
X175573950Y-99843340D01*
X123247410Y-64008510D02*
X138547610Y-64008510D01*
X153397460Y-71900540D02*
X153397460Y-70248020D01*
X88932770Y-116340890D02*
X92890340Y-116340890D01*
X167549330Y-122222510D02*
G75*
G02*
X167531050Y-122575055I-186230J-167090D01*
G01*
X171981630Y-122073420D02*
G75*
G02*
X179322745Y-129491742I915970J-6435080D01*
G01*
X83355180Y-105467910D02*
X86066890Y-114228120D01*
X95972890Y-125813820D02*
X114637060Y-109008420D01*
X83961740Y-82673700D02*
G75*
G02*
X81961740Y-84673740I-2000040J0D01*
G01*
X83311500Y-82073750D02*
G75*
G02*
X82811350Y-81573620I0J500150D01*
G01*
X94830900Y-49874680D02*
G75*
G02*
X95183388Y-49856470I185400J-168120D01*
G01*
X162783270Y-81273650D02*
G75*
G02*
X163283400Y-80773570I500130J-50D01*
G01*
X177833280Y-90343230D02*
G75*
G02*
X179833270Y-88343180I2000020J30D01*
G01*
X178573940Y-104580940D02*
G75*
G02*
X178439814Y-105467905I-3000040J40D01*
G01*
X92890340Y-56676040D02*
X88932770Y-56676040D01*
X84861660Y-94693230D02*
G75*
G02*
X84361870Y-94193360I40J499830D01*
G01*
X122647460Y-113008410D02*
X139147550Y-113008410D01*
X81397610Y-84673690D02*
G75*
G02*
X80897510Y-84173570I-10J500090D01*
G01*
X97561660Y-90943430D02*
X98511620Y-90943430D01*
X169702926Y-112265385D02*
X172092933Y-112265385D01*
X81397610Y-95343220D02*
X82720950Y-95343220D01*
X119597430Y-136508490D02*
X142197590Y-136508490D01*
X178983390Y-91443300D02*
X178983390Y-91743280D01*
X163283400Y-90943430D02*
X164233360Y-90943430D01*
X177433230Y-80773780D02*
X178483260Y-80773780D01*
X167243896Y-65400000D02*
X168391949Y-61663098D01*
X177833280Y-90943430D02*
X178483260Y-90943430D01*
X83221070Y-95843340D02*
X83221070Y-104580940D01*
X98602300Y-71900540D02*
X98602300Y-68435980D01*
X90254590Y-40323010D02*
X91856560Y-38721030D01*
X160869130Y-88843360D02*
G75*
G02*
X161369250Y-88343230I500170J-40D01*
G01*
X180897530Y-94843350D02*
G75*
G02*
X180397410Y-95343430I-500130J50D01*
G01*
X98643256Y-119324741D02*
G75*
G02*
X98661521Y-119677278I-168256J-185459D01*
G01*
X171537890Y-40323770D02*
G75*
G02*
X168710544Y-43156180I1359710J-4184630D01*
G01*
X82971140Y-39134800D02*
G75*
G02*
X83523847Y-38582097I5926260J-5373600D01*
G01*
X138397490Y-115008410D02*
G75*
G02*
X139397490Y-116008400I10J-999990D01*
G01*
X83526630Y-38218110D02*
G75*
G02*
X83521602Y-38584177I-173130J-180690D01*
G01*
X163151814Y-53692484D02*
X163718821Y-54259594D01*
X108397550Y-70248020D02*
X108397550Y-71900540D01*
X83311500Y-80773780D02*
X84361530Y-80773780D01*
X166964110Y-123142250D02*
G75*
G02*
X166611620Y-123160474I-185410J168150D01*
G01*
X178983390Y-91743280D02*
G75*
G02*
X178483260Y-92243390I-500090J-20D01*
G01*
X178983390Y-81273650D02*
X178983390Y-81573620D01*
X163713796Y-118762709D02*
G75*
G02*
X164066285Y-118744498I185404J-168191D01*
G01*
X80897480Y-40803070D02*
X81908650Y-41814240D01*
X83523840Y-134434830D02*
G75*
G02*
X82971137Y-133882134I5373660J5926430D01*
G01*
X178573940Y-95843340D02*
G75*
G02*
X179073810Y-95343440I499860J40D01*
G01*
X163151814Y-53692484D02*
G75*
G02*
X163133624Y-53340014I168186J185384D01*
G01*
X92135000Y-104370000D02*
X89685000Y-104370000D01*
X179886360Y-41814240D02*
X180897530Y-40803070D01*
X97561660Y-82073750D02*
X97561660Y-83173570D01*
X97461580Y-80773780D02*
X98511620Y-80773780D01*
X95756230Y-114227860D02*
G75*
G02*
X92890340Y-116340942I-2865930J886960D01*
G01*
X94245430Y-50794410D02*
G75*
G02*
X94263687Y-50441824I186470J167110D01*
G01*
X179073810Y-77673710D02*
G75*
G02*
X178573690Y-77173580I-10J500110D01*
G01*
X100925890Y-84173570D02*
G75*
G02*
X100425760Y-84673690I-500090J-30D01*
G01*
X83311500Y-92243400D02*
G75*
G02*
X82811400Y-91743280I0J500100D01*
G01*
X180897530Y-84173570D02*
G75*
G02*
X180397410Y-84673730I-500130J-30D01*
G01*
X170202860Y-51583840D02*
G75*
G02*
X171974231Y-50942689I1486140J-1338360D01*
G01*
X114637060Y-64008510D02*
X95972890Y-47203110D01*
X178264570Y-38222170D02*
X179437800Y-37048950D01*
X162783270Y-91443300D02*
G75*
G02*
X163283400Y-90943170I500130J0D01*
G01*
X83961740Y-82073750D02*
X83311500Y-82073750D01*
X178271155Y-38582107D02*
G75*
G02*
X178821809Y-39132547I-5373455J-5926193D01*
G01*
X176073820Y-78323690D02*
X176933360Y-78323690D01*
X169702926Y-112265385D02*
G75*
G02*
X168402889Y-111321830I-20026J1339785D01*
G01*
X122397520Y-133508500D02*
X122397520Y-116008400D01*
X97724918Y-118740852D02*
G75*
G02*
X98077690Y-118759177I167182J-186348D01*
G01*
X161369250Y-95343220D02*
X162692850Y-95343220D01*
X163283400Y-92243400D02*
G75*
G02*
X162783300Y-91743280I0J500100D01*
G01*
X98602300Y-97616520D02*
X98602300Y-95843340D01*
X98602300Y-77173580D02*
X98602300Y-75400410D01*
X95331540Y-127585220D02*
G75*
G02*
X95972790Y-125813708I1979660J285220D01*
G01*
X178273460Y-38584120D02*
G75*
G02*
X178264661Y-38222261I167940J185120D01*
G01*
X169938450Y-38721030D02*
X171540430Y-40323010D01*
X178483260Y-90943430D02*
G75*
G02*
X178983170Y-91443300I40J-499870D01*
G01*
X164333430Y-78823570D02*
G75*
G02*
X164833300Y-78323730I499870J-30D01*
G01*
X92135000Y-104370000D02*
G75*
G02*
X94523089Y-107609177I0J-2499900D01*
G01*
X163129907Y-119681047D02*
G75*
G02*
X163148263Y-119328309I186393J167147D01*
G01*
X175073820Y-100343210D02*
X166692840Y-100343210D01*
X177433230Y-78823570D02*
X177433230Y-80773780D01*
X180397410Y-77673710D02*
X179073810Y-77673710D01*
X115597440Y-117008400D02*
G75*
G02*
X119597430Y-113008440I3999960J0D01*
G01*
X153397460Y-97616520D02*
X153397460Y-75400410D01*
X178821850Y-133884420D02*
G75*
G02*
X179183741Y-133875589I185150J-167880D01*
G01*
X98602300Y-104580940D02*
G75*
G02*
X98468150Y-105467977I-3000000J40D01*
G01*
X86221070Y-73173590D02*
G75*
G02*
X86720940Y-72673770I499830J-10D01*
G01*
X164833300Y-94693230D02*
G75*
G02*
X164333470Y-94193360I0J499830D01*
G01*
X82611220Y-133875530D02*
G75*
G02*
X82972888Y-133884675I176480J-176770D01*
G01*
X147157950Y-109008420D02*
X165822130Y-125813820D01*
X161369250Y-84673690D02*
G75*
G02*
X160869210Y-84173570I50J500090D01*
G01*
X98081229Y-54254216D02*
G75*
G02*
X97728718Y-54272451I-185429J168216D01*
G01*
X86066890Y-58789060D02*
G75*
G02*
X88932770Y-56676194I2865910J-887240D01*
G01*
X100425760Y-88343230D02*
X99061530Y-88343230D01*
X164233360Y-83173570D02*
X164233360Y-82073750D01*
X167254877Y-107584915D02*
X168402930Y-111321817D01*
X92230000Y-68659870D02*
X89780000Y-68659870D01*
X93082880Y-129865630D02*
X94684850Y-131467610D01*
X175573950Y-95193360D02*
G75*
G02*
X176073820Y-94693550I499850J-40D01*
G01*
X165692840Y-94693230D02*
G75*
G02*
X166192970Y-95193360I-40J-500170D01*
G01*
X163192720Y-77173580D02*
G75*
G02*
X162692850Y-77673520I-499920J-20D01*
G01*
X86203290Y-135497320D02*
G75*
G02*
X87920065Y-134934487I1414310J-1414280D01*
G01*
X166611560Y-49856640D02*
X163133574Y-53339969D01*
X91856560Y-134295900D02*
X90254590Y-132693920D01*
X94618052Y-65420705D02*
G75*
G02*
X92230000Y-68659870I-2388052J-739295D01*
G01*
X97724918Y-118740852D02*
X94245480Y-122222555D01*
X179324510Y-43536620D02*
G75*
G02*
X171970446Y-50942014I-6427010J-971780D01*
G01*
X95331540Y-127585220D02*
G75*
G02*
X94683787Y-131469614I-6434040J-923280D01*
G01*
X99061530Y-88343230D02*
X97561660Y-89843360D01*
X94263720Y-122575070D02*
G75*
G02*
X94245440Y-122222519I168180J185470D01*
G01*
X82897480Y-136508490D02*
X85192110Y-136508490D01*
X139147550Y-109008420D02*
X122647460Y-109008420D01*
X172092929Y-104345750D02*
X169642929Y-104345750D01*
X161369250Y-95343220D02*
G75*
G02*
X160869480Y-94843350I50J499820D01*
G01*
X119597430Y-136508490D02*
G75*
G02*
X115597410Y-132508500I-30J3999990D01*
G01*
X180397410Y-77673710D02*
G75*
G02*
X180897290Y-78173580I-10J-499890D01*
G01*
X89744997Y-112289635D02*
X92135004Y-112289635D01*
X108397550Y-71900540D02*
X98602300Y-71900540D01*
X80897480Y-134508490D02*
X81437740Y-135048750D01*
X175573950Y-99843340D02*
G75*
G02*
X175073820Y-100343450I-500150J40D01*
G01*
X94683840Y-41547540D02*
G75*
G02*
X95330921Y-45435504I-5786340J-2960860D01*
G01*
X86221070Y-77823570D02*
G75*
G02*
X85720940Y-78323770I-500170J-30D01*
G01*
X98081229Y-54254216D02*
X98648339Y-53687209D01*
X98511620Y-80773780D02*
G75*
G02*
X99011420Y-81273650I-20J-499820D01*
G01*
X172862240Y-56676040D02*
G75*
G02*
X175728236Y-58788946I-40J-3000260D01*
G01*
X175591730Y-135497320D02*
X176602900Y-136508490D01*
X163713796Y-118762709D02*
X163146686Y-119329716D01*
X95756230Y-114228120D02*
X98467930Y-105467910D01*
X153397460Y-102768910D02*
X153397460Y-101116380D01*
X179323500Y-43531030D02*
G75*
G02*
X179886317Y-41814197I1977100J302530D01*
G01*
X163283400Y-80773780D02*
X164333430Y-80773780D01*
X98602300Y-95843340D02*
G75*
G02*
X99102170Y-95343400I499900J40D01*
G01*
X82357220Y-135968230D02*
X82897480Y-136508490D01*
X166192710Y-73173590D02*
G75*
G02*
X166692840Y-72673510I500090J-10D01*
G01*
X163326830Y-105467910D02*
G75*
G02*
X163192700Y-104580940I2865870J887010D01*
G01*
X175727870Y-114228120D02*
X178439830Y-105467910D01*
X99011740Y-81273650D02*
X99011740Y-81573620D01*
X163192720Y-71900540D02*
X153397460Y-71900540D01*
X81437740Y-135048750D02*
X82610960Y-133875530D01*
X162692850Y-77673710D02*
X161369250Y-77673710D01*
X180897530Y-132213860D02*
X179886360Y-131202680D01*
X178483260Y-82073750D02*
X177833280Y-82073750D01*
X180897530Y-84173570D02*
X180897530Y-78173580D01*
X86720940Y-100343210D02*
G75*
G02*
X86220990Y-99843340I-40J499910D01*
G01*
X96961710Y-94693230D02*
X96102170Y-94693230D01*
X173874940Y-134934450D02*
G75*
G02*
X175591806Y-135497244I302560J-1977150D01*
G01*
X83521550Y-134432800D02*
G75*
G02*
X83530638Y-134794948I-167850J-185400D01*
G01*
X180897530Y-94843350D02*
X180897530Y-88843360D01*
X177833280Y-82073750D02*
X177833280Y-82673700D01*
X81908650Y-41814240D02*
G75*
G02*
X82471447Y-43531019I-1414250J-1414260D01*
G01*
X97561660Y-89843360D02*
X97561660Y-90943430D01*
X175727870Y-114227860D02*
G75*
G02*
X172862240Y-116340694I-2865670J886960D01*
G01*
X172092929Y-104345750D02*
G75*
G02*
X174480930Y-107584899I-29J-2499850D01*
G01*
X175591730Y-37519610D02*
G75*
G02*
X173874943Y-38082450I-1414330J1414310D01*
G01*
X142197590Y-113008410D02*
X141847570Y-113008410D01*
X90257130Y-132693160D02*
G75*
G02*
X93084497Y-129860831I-1359670J4184660D01*
G01*
X147157950Y-64008510D02*
X138547610Y-64008510D01*
X163129907Y-119681047D02*
X166611610Y-123160485D01*
X82610960Y-39141400D02*
X81437740Y-37968170D01*
X178439830Y-67549010D02*
G75*
G02*
X178573955Y-68435980I-2865830J-886990D01*
G01*
X115597440Y-117008400D02*
X115597440Y-132508500D01*
X139147550Y-113008410D02*
X139147550Y-109008420D01*
X92890340Y-56676040D02*
G75*
G02*
X95756248Y-58789054I60J-2999960D01*
G01*
X94523052Y-107609165D02*
X93435000Y-111346067D01*
X87296948Y-107609165D02*
G75*
G02*
X89685000Y-104370039I2388052J739265D01*
G01*
X173869350Y-134935470D02*
G75*
G02*
X169936412Y-134294897I-971850J6426970D01*
G01*
X153397460Y-70248020D02*
X170202860Y-51583840D01*
X83221070Y-68435980D02*
G75*
G02*
X83355191Y-67549013I3000030J-20D01*
G01*
X123397520Y-115008410D02*
X138397490Y-115008410D01*
X93435000Y-111346067D02*
G75*
G02*
X92135004Y-112289657I-1280000J396167D01*
G01*
X164833300Y-78323690D02*
X165692840Y-78323690D01*
X180897530Y-38508430D02*
X180357020Y-37968170D01*
X95972890Y-47203110D02*
G75*
G02*
X95331662Y-45431728I1338310J1486210D01*
G01*
X179073810Y-95343220D02*
X180397410Y-95343220D01*
X169946580Y-38716970D02*
G75*
G02*
X173880769Y-38083311I2950920J-5791430D01*
G01*
X178483260Y-92243400D02*
X177433230Y-92243400D01*
X92230004Y-60740235D02*
G75*
G02*
X93529999Y-61683803I19996J-1339765D01*
G01*
X166038790Y-58789060D02*
X163326830Y-67549010D01*
X86066890Y-58789060D02*
X83355180Y-67549010D01*
X163192720Y-95843340D02*
X163192720Y-97616520D01*
X96961710Y-78323690D02*
G75*
G02*
X97461610Y-78823570I-10J-499910D01*
G01*
X174470000Y-65400000D02*
X173381948Y-61663098D01*
X99102170Y-77673710D02*
G75*
G02*
X98602090Y-77173580I30J500110D01*
G01*
X84861660Y-78323690D02*
X85720940Y-78323690D01*
X100425760Y-88343230D02*
G75*
G02*
X100925970Y-88843360I40J-500170D01*
G01*
X95602300Y-99843340D02*
G75*
G02*
X95102180Y-100343400I-500100J40D01*
G01*
X100925890Y-84173570D02*
X100925890Y-78173580D01*
X85192110Y-136508490D02*
X86203290Y-135497320D01*
X175073820Y-72673720D02*
G75*
G02*
X175573680Y-73173590I-20J-499880D01*
G01*
X123247410Y-64008510D02*
X114637060Y-64008510D01*
X95602300Y-95193360D02*
X95602300Y-99843340D01*
X162783270Y-81573620D02*
X162783270Y-81273650D01*
X179183800Y-39141400D02*
G75*
G02*
X178821787Y-39132567I-176800J176800D01*
G01*
X119947440Y-113008410D02*
X119597430Y-113008410D01*
X164333430Y-92243400D02*
X163283400Y-92243400D01*
X168712900Y-129868170D02*
G75*
G02*
X171545005Y-132695424I4184600J1359670D01*
G01*
X174480981Y-107584915D02*
X173392929Y-111321817D01*
X166611560Y-49856640D02*
G75*
G02*
X166964036Y-49874747I167140J-186160D01*
G01*
X100925890Y-94843350D02*
X100925890Y-88843360D01*
X80897480Y-132213860D02*
X80897480Y-134508490D01*
X80897480Y-38508430D02*
X80897480Y-40803070D01*
X176602900Y-36508440D02*
X175591730Y-37519610D01*
X172081948Y-68639165D02*
X169631948Y-68639165D01*
X164233360Y-90943430D02*
X164233360Y-89843360D01*
X164333430Y-94193360D02*
X164333430Y-92243400D01*
X80897480Y-88843360D02*
G75*
G02*
X81397610Y-88343280I500120J-40D01*
G01*
X98467930Y-67549010D02*
X95756230Y-58789060D01*
X169631948Y-68639165D02*
G75*
G02*
X167243858Y-65399988I-48J2499865D01*
G01*
X180897530Y-40803070D02*
X180897530Y-38508430D01*
X138397490Y-134508490D02*
X123397520Y-134508490D01*
X114637060Y-109008420D02*
X119947440Y-109008420D01*
X164070152Y-54276373D02*
X167549590Y-50794670D01*
X178897540Y-136508490D02*
X179437800Y-135968230D01*
X96102170Y-78323690D02*
X96961710Y-78323690D01*
X160869130Y-78173580D02*
G75*
G02*
X161369250Y-77673430I500170J-20D01*
G01*
X163326830Y-105467910D02*
X166038790Y-114228120D01*
X176933360Y-94693230D02*
X176073820Y-94693230D01*
X91592150Y-51583840D02*
X108397550Y-70248020D01*
X180397410Y-88343230D02*
X179833270Y-88343230D01*
X83221070Y-68435980D02*
X83221070Y-77173580D01*
X162733230Y-88343230D02*
X161369250Y-88343230D01*
X89813390Y-50943760D02*
G75*
G02*
X82472085Y-43525160I-915890J6435360D01*
G01*
X91848440Y-134299960D02*
G75*
G02*
X87914240Y-134933627I-2950940J5791460D01*
G01*
X160869130Y-78173580D02*
X160869130Y-84173570D01*
X98665118Y-53335878D02*
X95183415Y-49856440D01*
X166463980Y-45435520D02*
G75*
G02*
X167111075Y-41547486I6433520J927120D01*
G01*
X167110161Y-131467610D02*
X168711880Y-129865630D01*
X176073820Y-78323690D02*
G75*
G02*
X175573710Y-77823570I-20J500090D01*
G01*
X94245385Y-50794470D02*
X97728714Y-54272456D01*
X167254877Y-107584915D02*
G75*
G02*
X169642929Y-104345752I2388023J739315D01*
G01*
X178897540Y-36508440D02*
X176602900Y-36508440D01*
X180357020Y-37968170D02*
X179183800Y-39141400D01*
X166463979Y-45435520D02*
G75*
G02*
X165822245Y-47203239I-1980179J-281480D01*
G01*
X82811620Y-91443300D02*
G75*
G02*
X83311500Y-90943420I499880J0D01*
G01*
X167531095Y-122575105D02*
X166964110Y-123142250D01*
X82973170Y-39132510D02*
G75*
G02*
X82611054Y-39141566I-185370J167910D01*
G01*
X178439830Y-67549010D02*
X175727870Y-58789060D01*
X178823880Y-133882130D02*
G75*
G02*
X178271172Y-134434832I-5926280J5373630D01*
G01*
X168904420Y-116340890D02*
G75*
G02*
X166038548Y-114227935I-20J2999990D01*
G01*
M02*
